<svg width="1828" height="1367" viewBox="0 0 1828 1367" fill="none" xmlns="http://www.w3.org/2000/svg">
<path fill-rule="evenodd" clip-rule="evenodd" d="M58.647 76.0001H59.4159C59.4257 76 59.4355 76 59.4453 76.0001H74.3332L111.98 143.451L105.706 156H28.0588L21 143.451L58.647 76.0001ZM88.6753 130.118L59.2727 78.0977L54.1835 87.2158L61.1917 99.8758L61.2656 99.9179L61.24 99.9629L77.9328 130.118H88.6753ZM90.6954 130.504C90.7643 130.621 90.8038 130.757 90.8038 130.902C90.8038 131.335 90.4527 131.686 90.0195 131.686H56.3388L50.1498 142.667H109.746L73.4123 77.5688H60.7755L90.6954 130.504ZM57.2229 130.118H76.1399L66.7666 113.185L57.2229 130.118ZM43.5188 154.431L49.2657 144.235H109.834L104.736 154.431H43.5188ZM65.8806 111.585C65.8534 111.618 65.8287 111.655 65.8069 111.693L41.7182 154.431H30.193L60.3304 101.559L65.8806 111.585ZM59.4408 99.9517L28.6838 153.911L22.7981 143.448L53.2834 88.8286L59.4408 99.9517Z" fill="url(#paint0_linear_0_1)"/>
<g opacity="0.6">
<path d="M1019 684.477C1019 684.477 884.179 441.447 1135.84 433.097C1387.5 424.747 1875.66 475.95 1663.67 669.668C1451.67 863.386 902.448 964.798 1166.71 1021.02C1430.96 1077.25 2285.81 1088.7 2284.77 790.774" stroke="url(#paint1_linear_0_1)" stroke-width="1.07187" stroke-miterlimit="10"/>
<path d="M1029.58 677.97C1029.58 677.97 885.531 434.115 1139.91 425.202C1392.31 416.415 1883.95 467.745 1683.46 661.084C1660.03 683.687 1631.89 705.316 1600.21 725.941C1358.16 883.497 949.352 956.164 1171.52 1010.28C1296.23 1040.65 1547.36 1069.81 1794.65 1046.28C2054.52 1021.48 2287.88 943.169 2287.43 797.372" stroke="url(#paint2_linear_0_1)" stroke-width="1.07187" stroke-miterlimit="10"/>
<path d="M1040.16 671.442C1040.16 671.442 886.886 426.757 1144 417.279C1397.16 408.054 1892.29 459.589 1703.23 652.467C1680.86 675.284 1653.63 697.356 1622.05 718.592C1380.79 880.701 965.665 941.145 1176.35 999.467C1297.19 1032.93 1530.95 1074.41 1783.88 1051.72C2048.75 1027.82 2290.46 942.592 2290.1 803.942" stroke="url(#paint3_linear_0_1)" stroke-width="1.07187" stroke-miterlimit="10"/>
<path d="M1050.74 664.915C1050.74 664.915 888.288 419.411 1148.12 409.37C1402 399.711 1900.71 451.532 1722.95 643.855C1701.66 666.894 1675.31 689.401 1643.81 711.261C1403.35 877.939 981.879 926.293 1181.18 988.666C1298.19 1025.28 1514.54 1079.07 1773.1 1057.21C2042.95 1034.21 2293.02 942.068 2292.76 810.574" stroke="url(#paint4_linear_0_1)" stroke-width="1.07187" stroke-miterlimit="10"/>
<path d="M1061.33 658.37C1061.33 658.37 889.713 412.05 1152.26 401.445C1406.87 391.362 1909.23 443.513 1742.67 635.233C1722.46 658.505 1696.98 681.438 1665.57 703.922C1425.88 875.175 998.014 911.609 1186.02 977.83C1299.2 1017.7 1498.2 1083.72 1762.36 1062.7C2037.16 1040.6 2295.57 941.527 2295.39 817.214" stroke="url(#paint5_linear_0_1)" stroke-width="1.07187" stroke-miterlimit="10"/>
<path d="M1071.89 651.82C1071.89 651.82 891.158 404.675 1156.4 393.509C1411.76 382.989 1917.81 435.555 1762.35 626.596C1743.22 650.1 1718.61 673.47 1687.28 696.557C1448.37 872.387 1014.03 897.067 1190.88 966.948C1300.21 1010.15 1481.89 1088.35 1751.64 1068.16C2031.4 1046.96 2298.12 940.953 2298.02 823.851" stroke="url(#paint6_linear_0_1)" stroke-width="1.07187" stroke-miterlimit="10"/>
<path d="M1082.45 645.258C1082.45 645.258 892.611 397.301 1160.55 385.572C1416.63 374.618 1926.52 427.646 1781.99 617.947C1763.95 641.692 1740.2 665.479 1708.95 689.193C1470.81 869.604 1029.87 882.702 1195.72 956.062C1301.17 1002.71 1465.6 1092.98 1740.92 1073.65C2025.62 1053.36 2300.66 940.406 2300.6 830.523" stroke="url(#paint7_linear_0_1)" stroke-width="1.07187" stroke-miterlimit="10"/>
<path d="M1093.02 638.691C1093.02 638.691 894.126 389.911 1164.74 377.632C1421.54 366.245 1935.34 419.774 1801.61 609.308C1784.68 633.301 1761.76 657.498 1730.57 681.839C1493.18 866.838 1045.55 868.523 1200.57 945.159C1302.11 995.347 1449.34 1097.63 1730.21 1079.16C2019.82 1059.78 2303.16 939.868 2303.17 837.216" stroke="url(#paint8_linear_0_1)" stroke-width="1.07187" stroke-miterlimit="10"/>
<path d="M1103.57 632.111C1103.57 632.111 895.637 382.521 1168.92 369.672C1426.46 357.849 1944.29 411.926 1821.19 600.642C1805.37 624.894 1783.27 649.494 1752.17 674.449C1515.53 864.037 1061.02 854.481 1205.44 934.21C1302.97 988.055 1433.14 1102.26 1719.55 1084.63C2014.07 1066.17 2305.7 939.303 2305.77 843.888" stroke="url(#paint9_linear_0_1)" stroke-width="1.07187" stroke-miterlimit="10"/>
<path d="M1114.11 625.531C1114.11 625.531 897.154 375.134 1173.12 361.723C1431.37 349.468 1953.36 404.107 1840.74 591.977C1826.06 616.484 1804.75 641.489 1773.73 667.071C1537.82 861.255 1076.28 840.607 1210.3 923.25C1303.73 980.862 1416.96 1106.9 1708.89 1090.12C2008.3 1072.59 2308.19 938.749 2308.32 850.596" stroke="url(#paint10_linear_0_1)" stroke-width="1.07187" stroke-miterlimit="10"/>
<path d="M1124.65 618.937C1124.65 618.937 898.714 367.721 1177.33 353.763C1436.29 341.075 1962.56 396.292 1860.27 583.31C1846.72 608.071 1826.2 633.482 1795.24 659.682C1560.08 858.462 1091.32 826.877 1215.2 912.26C1304.38 973.735 1400.82 1111.51 1698.26 1095.61C2002.54 1079 2310.7 938.185 2310.87 857.308" stroke="url(#paint11_linear_0_1)" stroke-width="1.07187" stroke-miterlimit="10"/>
<path d="M1135.19 612.343C1135.19 612.343 900.287 360.323 1181.56 345.793C1441.25 332.681 1971.93 388.479 1879.77 574.633C1867.39 599.654 1847.61 625.478 1816.76 652.292C1582.32 855.672 1106.15 813.285 1220.11 901.265C1304.9 966.723 1384.74 1116.15 1687.68 1101.11C1996.82 1085.43 2313.23 937.623 2313.41 864.038" stroke="url(#paint12_linear_0_1)" stroke-width="1.07187" stroke-miterlimit="10"/>
<path d="M1145.72 605.737C1145.72 605.737 901.883 352.91 1185.8 337.822C1446.18 324.278 1981.42 380.661 1899.21 565.946C1888 591.226 1868.96 617.452 1838.18 644.895C1604.45 852.882 1120.67 799.799 1224.98 890.239C1305.22 959.792 1368.65 1120.78 1677.06 1106.6C1991.05 1091.86 2315.68 937.061 2315.89 870.791" stroke="url(#paint13_linear_0_1)" stroke-width="1.07187" stroke-miterlimit="10"/>
<path d="M1156.23 599.133C1156.23 599.133 903.484 345.492 1190.04 329.856C1451.13 315.88 1991.03 372.819 1918.64 557.271C1908.62 582.797 1890.3 609.438 1859.58 637.501C1626.58 850.095 1134.96 786.426 1229.9 879.197C1305.38 952.94 1352.64 1125.41 1666.5 1112.11C1985.31 1098.3 2318.19 936.509 2318.4 877.547" stroke="url(#paint14_linear_0_1)" stroke-width="1.07187" stroke-miterlimit="10"/>
<path d="M1166.76 592.522C1166.76 592.522 905.139 338.076 1194.32 321.884C1456.13 307.473 2000.82 364.953 1938.05 548.59C1929.24 574.371 1911.61 601.42 1880.97 630.112C1648.67 847.317 1149 773.141 1234.82 868.159C1305.33 946.189 1336.66 1130.06 1655.96 1117.62C1979.59 1104.75 2320.67 935.96 2320.9 884.325" stroke="url(#paint15_linear_0_1)" stroke-width="1.07187" stroke-miterlimit="10"/>
<path d="M1177.25 585.897C1177.25 585.897 906.789 330.647 1198.59 313.887C1461.09 299.045 2010.69 357.038 1957.42 539.875C1949.82 565.908 1932.86 593.369 1902.29 622.69C1670.68 844.5 1162.78 759.88 1239.76 857.059C1305.04 939.477 1320.72 1134.65 1645.44 1123.1C1973.88 1111.17 2323.16 935.374 2323.38 891.083" stroke="url(#paint16_linear_0_1)" stroke-width="1.07187" stroke-miterlimit="10"/>
<path d="M1187.74 579.275C1187.74 579.275 908.445 323.212 1202.87 305.906C1466.06 290.632 2020.69 349.092 1976.73 531.187C1970.39 557.457 1954.06 585.355 1923.56 615.286C1692.64 841.714 1176.28 746.677 1244.67 845.966C1304.5 932.838 1304.78 1139.27 1634.91 1128.61C1968.13 1117.62 2325.59 934.812 2325.8 897.875" stroke="url(#paint17_linear_0_1)" stroke-width="1.07187" stroke-miterlimit="10"/>
<path d="M1198.23 572.643C1198.23 572.643 910.135 315.776 1207.16 297.914C1471.06 282.207 2030.8 341.089 1996.05 522.474C1990.97 548.979 1975.26 577.305 1944.83 607.868C1714.58 838.919 1189.6 733.478 1249.62 834.857C1303.74 926.245 1288.91 1143.89 1624.44 1134.11C1962.42 1124.07 2328.06 934.239 2328.25 904.667" stroke="url(#paint18_linear_0_1)" stroke-width="1.07187" stroke-miterlimit="10"/>
<path d="M1208.72 566.01C1208.72 566.01 911.847 308.341 1211.48 289.912C1476.07 273.785 2041.04 333.031 2015.32 513.766C2011.51 540.496 1996.42 569.262 1966.04 600.457C1736.47 836.131 1202.68 720.279 1254.59 823.726C1302.76 919.689 1273.09 1148.51 1613.99 1139.61C1956.73 1130.53 2330.54 933.669 2330.68 911.486" stroke="url(#paint19_linear_0_1)" stroke-width="1.07187" stroke-miterlimit="10"/>
<path d="M1219.19 559.369C1219.19 559.369 913.576 300.886 1215.79 281.914C1481.07 265.356 2051.34 324.913 2034.55 505.06C2032.04 532.01 2017.51 561.223 1987.21 593.037C1758.31 833.338 1215.55 707.043 1259.55 812.576C1301.49 913.146 1257.29 1153.1 1603.55 1145.11C1951.03 1136.98 2332.97 933.106 2333.1 918.298" stroke="url(#paint20_linear_0_1)" stroke-width="1.07187" stroke-miterlimit="10"/>
<path d="M1229.65 552.733C1229.65 552.733 915.303 293.449 1220.12 273.921C1486.09 256.93 2061.74 316.747 2053.76 496.359C2052.56 523.517 2038.59 553.188 2008.37 585.632C1780.1 830.565 1228.24 693.771 1264.55 801.436C1300.03 906.638 1241.56 1157.73 1593.16 1150.62C1945.36 1143.46 2335.46 932.544 2335.52 925.136" stroke="url(#paint21_linear_0_1)" stroke-width="1.07187" stroke-miterlimit="10"/>
<path d="M1240.11 546.076C1240.11 546.076 917.083 285.978 1224.47 265.897C1531.85 245.816 2257.07 328.627 2029.46 578.193C1801.85 827.758 1240.75 680.402 1269.53 790.241C1298.31 900.079 1225.85 1162.32 1582.76 1156.11C1939.68 1149.9 2337.9 931.952 2337.9 931.952" stroke="url(#paint22_linear_0_1)" stroke-width="1.07187" stroke-miterlimit="10"/>
<path d="M1220.43 548.915C1221.1 548.646 917.041 296.251 1217.4 272.427C1323.7 263.998 1479.65 267.587 1628.35 288.242C1901.66 326.102 2150.26 416.873 2011.7 575.069C1799.65 817.149 1264.55 682.021 1291.35 790.031C1294.94 804.687 1296.7 821.933 1297.88 840.771C1305.54 961.537 1300.5 1149.88 1603 1146.31C1952.46 1142.18 2342.3 935.75 2342.3 935.75" stroke="url(#paint23_linear_0_1)" stroke-width="1.07187" stroke-miterlimit="10"/>
<path d="M1200.71 551.763C1202.04 551.216 917.177 306.443 1210.36 278.955C1315.33 269.116 1468.37 270.746 1614.52 291.127C1880.36 327.994 2122.99 417.753 1993.81 571.977C1797.36 806.53 1288.47 683.635 1313.27 789.82C1316.56 804.333 1318.03 821.265 1318.89 839.645C1324.56 957.214 1327.15 1138.3 1623.27 1136.55C1965.26 1134.47 2346.69 939.55 2346.69 939.55" stroke="url(#paint24_linear_0_1)" stroke-width="1.07187" stroke-miterlimit="10"/>
<path d="M1180.95 554.589C1182.96 553.774 917.496 316.512 1203.37 285.447C1307.05 274.187 1457.1 273.87 1600.69 293.99C1859 329.871 2095.59 418.575 1975.84 568.894C1795.02 795.858 1313.01 685.086 1335.3 789.592C1338.36 803.942 1339.49 820.577 1339.99 838.502C1343.66 952.884 1353.88 1126.74 1643.58 1126.79C1978 1126.77 2351.02 943.33 2351.02 943.33" stroke="url(#paint25_linear_0_1)" stroke-width="1.07187" stroke-miterlimit="10"/>
<path d="M1161.18 557.406C1163.87 556.312 916.521 333.268 1196.44 291.916C1299.38 276.711 1445.84 276.994 1586.83 296.846C1837.56 331.75 2068.06 419.364 1957.78 565.811C1792.59 785.141 1337.35 686.603 1357.47 789.321C1360.25 803.527 1361.09 819.839 1361.24 837.32C1362.86 948.526 1380.73 1115.16 1663.97 1117.01C1990.79 1119.06 2355.34 947.087 2355.34 947.087" stroke="url(#paint26_linear_0_1)" stroke-width="1.07187" stroke-miterlimit="10"/>
<path d="M1141.36 560.217C1144.71 558.858 917.316 344.376 1189.53 298.357C1291.18 281.172 1434.56 280.092 1572.91 299.691C1815.97 333.63 2040.34 420.123 1939.55 562.76C1790 774.416 1361.75 688.135 1379.7 789.072C1382.2 803.134 1382.66 819.155 1382.54 836.153C1381.74 944.272 1407.59 1103.62 1684.31 1107.3C2003.46 1111.42 2359.5 950.871 2359.5 950.871" stroke="url(#paint27_linear_0_1)" stroke-width="1.07187" stroke-miterlimit="10"/>
<path d="M1121.54 563.035C1125.57 561.409 919.564 346.015 1182.66 304.813C1282.56 289.166 1423.29 283.227 1559.02 302.55C1794.4 335.535 2012.57 420.838 1921.33 559.711C1787.4 763.617 1386.3 689.633 1402.05 788.79C1404.26 802.719 1404.41 818.419 1403.95 834.963C1401.04 939.934 1434.59 1092.06 1704.77 1097.55C2016.24 1103.74 2363.77 954.62 2363.77 954.62" stroke="url(#paint28_linear_0_1)" stroke-width="1.07187" stroke-miterlimit="10"/>
<path d="M1101.71 565.816C1106.42 563.912 920.615 355.559 1175.86 311.2C1274.52 294.052 1412.03 286.305 1545.09 305.371C1772.73 337.402 1984.58 421.504 1902.98 556.66C1784.6 752.779 1410.94 691.106 1424.51 788.49C1426.43 802.276 1426.25 817.668 1425.45 833.76C1420.38 935.589 1461.64 1080.53 1725.21 1087.84C2028.92 1096.1 2367.9 958.373 2367.9 958.373" stroke="url(#paint29_linear_0_1)" stroke-width="1.07187" stroke-miterlimit="10"/>
<path d="M1081.84 568.584C1087.22 566.416 921.817 364.959 1169.08 317.559C1266.53 298.877 1400.78 289.352 1531.12 308.176C1750.96 339.261 1956.39 422.117 1884.51 553.629C1781.6 741.912 1435.63 692.587 1447.01 788.192C1448.64 801.836 1448.16 816.909 1447 832.563C1439.77 931.258 1488.73 1069.04 1745.64 1078.16C2041.52 1088.48 2371.93 962.129 2371.93 962.129" stroke="url(#paint30_linear_0_1)" stroke-width="1.07187" stroke-miterlimit="10"/>
<path d="M1061.97 571.348C1068.04 568.914 923.188 374.214 1162.37 323.895C1258.59 303.652 1389.36 292.589 1517.17 310.971C1728.89 341.425 1928.03 422.684 1865.96 550.603C1778.42 731.013 1460.4 694.054 1469.61 787.884C1470.92 801.389 1470.13 816.154 1468.65 831.357C1459.26 926.925 1515.89 1057.57 1766.12 1068.5C2054.13 1080.9 2375.9 965.904 2375.9 965.904" stroke="url(#paint31_linear_0_1)" stroke-width="1.07187" stroke-miterlimit="10"/>
<path d="M1042.13 574.076C1048.88 571.366 924.716 383.286 1155.7 330.179C1250.73 308.331 1378.1 295.598 1503.18 313.73C1707 343.274 1899.46 423.213 1847.32 547.577C1775.01 720.082 1485.24 695.501 1492.24 787.565C1493.26 800.93 1492.15 815.391 1490.31 830.146C1478.75 922.599 1543.04 1046.11 1786.55 1058.87C2066.65 1073.34 2379.75 969.663 2379.75 969.663" stroke="url(#paint32_linear_0_1)" stroke-width="1.07187" stroke-miterlimit="10"/>
<path d="M1022.33 576.787C1029.75 573.814 926.429 392.193 1149.14 336.426C1242.96 312.936 1366.93 298.575 1489.25 316.463C1685.12 345.085 1870.72 423.687 1828.67 544.539C1771.41 709.135 1510.2 696.933 1515.03 787.212C1515.73 800.45 1514.32 814.594 1512.12 828.894C1498.37 918.231 1570.34 1034.65 1807.06 1049.23C2079.2 1065.77 2383.61 973.409 2383.61 973.409" stroke="url(#paint33_linear_0_1)" stroke-width="1.07187" stroke-miterlimit="10"/>
<path d="M1002.59 579.491C1010.71 576.242 928.28 400.933 1142.68 342.646C1235.3 317.462 1355.82 301.534 1475.38 319.167C1663.26 346.882 1841.78 424.152 1810 541.513C1767.58 698.199 1535.26 698.354 1537.91 786.875C1538.3 799.977 1536.57 813.817 1534.02 827.673C1518.08 913.913 1597.71 1023.26 1827.61 1039.64C2091.75 1058.26 2387.42 977.174 2387.42 977.174" stroke="url(#paint34_linear_0_1)" stroke-width="1.07187" stroke-miterlimit="10"/>
<path d="M982.973 582.199C991.779 578.686 930.34 409.534 1136.36 348.851C1227.75 321.938 1344.81 304.486 1461.57 321.88C1641.43 348.674 1812.66 424.633 1791.34 538.511C1763.49 687.314 1560.42 699.803 1560.93 786.56C1561 799.527 1558.97 813.063 1556.04 826.478C1537.93 909.62 1625.18 1011.91 1848.24 1030.11C2104.3 1050.8 2391.22 980.989 2391.22 980.989" stroke="url(#paint35_linear_0_1)" stroke-width="1.07187" stroke-miterlimit="10"/>
<path d="M963.547 584.892C973.025 581.118 932.62 417.965 1130.28 355.016C1220.42 326.304 1334.01 307.392 1447.94 324.562C1619.74 350.452 1783.4 425.144 1772.8 535.508C1759.26 676.487 1585.81 701.257 1584.14 786.252C1583.89 799.095 1581.56 812.306 1578.26 825.294C1557.98 905.356 1652.84 1000.61 1868.97 1020.64C2116.93 1043.42 2395.05 984.829 2395.05 984.829" stroke="url(#paint36_linear_0_1)" stroke-width="1.07187" stroke-miterlimit="10"/>
<path d="M944.354 587.592C954.525 583.543 935.132 426.27 1124.45 361.163C1213.31 330.616 1323.44 310.285 1434.54 327.232C1598.25 352.201 1754.03 425.702 1754.39 532.536C1754.86 665.786 1611.41 702.733 1607.6 785.979C1607.02 798.69 1604.39 811.599 1600.72 824.15C1578.25 901.134 1680.69 989.376 1889.91 1011.22C2129.73 1036.08 2399 988.713 2399 988.713" stroke="url(#paint37_linear_0_1)" stroke-width="1.07187" stroke-miterlimit="10"/>
<path d="M925.168 590.261C936.03 585.948 937.581 434.436 1118.67 367.302C1206.18 334.859 1312.92 313.166 1421.16 329.905C1576.78 353.955 1724.41 426.357 1736.05 529.544C1750.22 655.181 1637.1 704.166 1631.19 785.655C1630.27 798.245 1627.36 810.84 1623.31 822.943C1598.67 896.856 1708.71 978.084 1911 1001.75C2142.68 1028.69 2403.12 992.532 2403.12 992.532" stroke="url(#paint38_linear_0_1)" stroke-width="1.07187" stroke-miterlimit="10"/>
<path d="M906.13 592.917C917.667 588.342 940.116 442.469 1113.03 373.4C1199.13 339.001 1302.54 316.01 1407.91 332.53C1555.42 355.653 1694.55 427.111 1717.78 526.541C1745.38 644.724 1662.94 705.598 1654.93 785.314C1653.67 797.774 1650.47 810.066 1646.06 821.73C1619.27 892.57 1736.89 966.814 1932.21 992.294C2155.71 1021.3 2407.29 996.335 2407.29 996.335" stroke="url(#paint39_linear_0_1)" stroke-width="1.07187" stroke-miterlimit="10"/>
<path d="M887.11 595.558C899.342 590.71 942.558 450.41 1107.46 379.468C1192.05 343.073 1292.3 318.691 1394.67 335.145C1534.22 357.157 1664.38 428.015 1699.46 523.537C1740.2 634.466 1688.79 707.016 1678.68 784.985C1677.07 797.316 1673.59 809.305 1668.8 820.535C1639.87 888.315 1765.03 955.582 1953.37 982.885C2168.65 1013.97 2411.36 1000.18 2411.36 1000.18" stroke="url(#paint40_linear_0_1)" stroke-width="1.07187" stroke-miterlimit="10"/>
<path d="M868.076 598.2C881 593.09 944.798 458.286 1101.89 385.528C1184.87 347.092 1281.92 321.521 1381.41 337.759C1512.78 358.886 1633.88 429.115 1681.11 520.553C1734.78 624.444 1714.65 708.449 1702.47 784.67C1700.52 796.882 1696.77 808.547 1691.59 819.356C1660.52 884.091 1793.22 944.382 1974.55 973.496C2181.61 1006.66 2415.43 1004.02 2415.43 1004.02" stroke="url(#paint41_linear_0_1)" stroke-width="1.07187" stroke-miterlimit="10"/>
<path d="M849.042 600.849C862.645 595.468 946.858 466.143 1096.33 391.585C1177.55 351.068 1271.55 324.363 1368.16 340.373C1491.33 360.618 1603.13 430.438 1662.75 517.573C1729.17 614.669 1740.29 709.914 1726.31 784.356C1723.97 796.446 1720.01 807.809 1714.41 818.179C1681.39 879.872 1821.43 933.195 1995.76 964.138C2194.57 999.37 2419.49 1007.89 2419.49 1007.89" stroke="url(#paint42_linear_0_1)" stroke-width="1.07187" stroke-miterlimit="10"/>
<path d="M830.017 603.478C852.298 594.681 1093.25 298.876 1354.89 342.957C1616.53 387.039 1812.65 691.512 1737.22 816.989C1661.79 942.467 2423.44 1011.72 2423.44 1011.72" stroke="url(#paint43_linear_0_1)" stroke-width="1.07187" stroke-miterlimit="10"/>
</g>
<g filter="url(#filter0_f_0_1)">
<path fill-rule="evenodd" clip-rule="evenodd" d="M543.847 597.833C592.607 602.033 646.919 582.023 688.139 604.706C729.329 627.372 734.853 676.033 755.215 714.146C773.664 748.677 791.375 781.799 802.401 818.577C816.439 865.397 863.707 921.376 828.723 959.325C791.472 999.731 708.56 960.598 653.106 980.522C607.87 996.775 590.737 1049.33 543.847 1061.68C492.952 1075.09 436.852 1067.34 387.356 1050.53C333.863 1032.36 267.423 1010.15 252.241 962.649C236.223 912.527 311.259 870.513 313.227 818.577C315.093 769.332 249.308 727.664 262.959 679.799C276.454 632.478 327.873 594.035 381.748 578.314C434.288 562.982 488.615 593.075 543.847 597.833Z" fill="url(#paint44_linear_0_1)" fill-opacity="0.4"/>
</g>
<defs>
<filter id="filter0_f_0_1" x="34.398" y="358.398" width="1022.56" height="925.704" filterUnits="userSpaceOnUse" color-interpolation-filters="sRGB">
<feFlood flood-opacity="0" result="BackgroundImageFix"/>
<feBlend mode="normal" in="SourceGraphic" in2="BackgroundImageFix" result="shape"/>
<feGaussianBlur stdDeviation="107.801" result="effect1_foregroundBlur_0_1"/>
</filter>
<linearGradient id="paint0_linear_0_1" x1="66.4901" y1="76" x2="66.4901" y2="156" gradientUnits="userSpaceOnUse">
<stop stop-color="#FA8256"/>
<stop offset="0.463542" stop-color="#F0366B"/>
<stop offset="1" stop-color="#5D469E"/>
</linearGradient>
<linearGradient id="paint1_linear_0_1" x1="1704.54" y1="356.427" x2="1795.1" y2="1043.09" gradientUnits="userSpaceOnUse">
<stop stop-color="#F68358"/>
<stop offset="0.223958" stop-color="#E98668"/>
<stop offset="0.479167" stop-color="#EA3B6E"/>
<stop offset="0.729167" stop-color="#DE3B6C"/>
<stop offset="1" stop-color="#5C4999"/>
</linearGradient>
<linearGradient id="paint2_linear_0_1" x1="1709.96" y1="348.268" x2="1802.19" y2="1046.45" gradientUnits="userSpaceOnUse">
<stop stop-color="#F68358"/>
<stop offset="0.223958" stop-color="#E98668"/>
<stop offset="0.479167" stop-color="#EA3B6E"/>
<stop offset="0.729167" stop-color="#DE3B6C"/>
<stop offset="1" stop-color="#5C4999"/>
</linearGradient>
<linearGradient id="paint3_linear_0_1" x1="1715.37" y1="340.089" x2="1809.26" y2="1049.79" gradientUnits="userSpaceOnUse">
<stop stop-color="#F68358"/>
<stop offset="0.223958" stop-color="#E98668"/>
<stop offset="0.479167" stop-color="#EA3B6E"/>
<stop offset="0.729167" stop-color="#DE3B6C"/>
<stop offset="1" stop-color="#5C4999"/>
</linearGradient>
<linearGradient id="paint4_linear_0_1" x1="1720.77" y1="331.93" x2="1816.32" y2="1053.18" gradientUnits="userSpaceOnUse">
<stop stop-color="#F68358"/>
<stop offset="0.223958" stop-color="#E98668"/>
<stop offset="0.479167" stop-color="#EA3B6E"/>
<stop offset="0.729167" stop-color="#DE3B6C"/>
<stop offset="1" stop-color="#5C4999"/>
</linearGradient>
<linearGradient id="paint5_linear_0_1" x1="1726.15" y1="323.762" x2="1823.37" y2="1056.57" gradientUnits="userSpaceOnUse">
<stop stop-color="#F68358"/>
<stop offset="0.223958" stop-color="#E98668"/>
<stop offset="0.479167" stop-color="#EA3B6E"/>
<stop offset="0.729167" stop-color="#DE3B6C"/>
<stop offset="1" stop-color="#5C4999"/>
</linearGradient>
<linearGradient id="paint6_linear_0_1" x1="1731.52" y1="315.588" x2="1830.41" y2="1059.94" gradientUnits="userSpaceOnUse">
<stop stop-color="#F68358"/>
<stop offset="0.223958" stop-color="#E98668"/>
<stop offset="0.479167" stop-color="#EA3B6E"/>
<stop offset="0.729167" stop-color="#DE3B6C"/>
<stop offset="1" stop-color="#5C4999"/>
</linearGradient>
<linearGradient id="paint7_linear_0_1" x1="1736.86" y1="307.419" x2="1837.42" y2="1063.33" gradientUnits="userSpaceOnUse">
<stop stop-color="#F68358"/>
<stop offset="0.223958" stop-color="#E98668"/>
<stop offset="0.479167" stop-color="#EA3B6E"/>
<stop offset="0.729167" stop-color="#DE3B6C"/>
<stop offset="1" stop-color="#5C4999"/>
</linearGradient>
<linearGradient id="paint8_linear_0_1" x1="1742.2" y1="299.254" x2="1844.44" y2="1066.74" gradientUnits="userSpaceOnUse">
<stop stop-color="#F68358"/>
<stop offset="0.223958" stop-color="#E98668"/>
<stop offset="0.479167" stop-color="#EA3B6E"/>
<stop offset="0.729167" stop-color="#DE3B6C"/>
<stop offset="1" stop-color="#5C4999"/>
</linearGradient>
<linearGradient id="paint9_linear_0_1" x1="1747.55" y1="291.07" x2="1851.45" y2="1070.12" gradientUnits="userSpaceOnUse">
<stop stop-color="#F68358"/>
<stop offset="0.223958" stop-color="#E98668"/>
<stop offset="0.479167" stop-color="#EA3B6E"/>
<stop offset="0.729167" stop-color="#DE3B6C"/>
<stop offset="1" stop-color="#5C4999"/>
</linearGradient>
<linearGradient id="paint10_linear_0_1" x1="1752.86" y1="282.905" x2="1858.44" y2="1073.52" gradientUnits="userSpaceOnUse">
<stop stop-color="#F68358"/>
<stop offset="0.223958" stop-color="#E98668"/>
<stop offset="0.479167" stop-color="#EA3B6E"/>
<stop offset="0.729167" stop-color="#DE3B6C"/>
<stop offset="1" stop-color="#5C4999"/>
</linearGradient>
<linearGradient id="paint11_linear_0_1" x1="1758.18" y1="274.729" x2="1865.44" y2="1076.92" gradientUnits="userSpaceOnUse">
<stop stop-color="#F68358"/>
<stop offset="0.223958" stop-color="#E98668"/>
<stop offset="0.479167" stop-color="#EA3B6E"/>
<stop offset="0.729167" stop-color="#DE3B6C"/>
<stop offset="1" stop-color="#5C4999"/>
</linearGradient>
<linearGradient id="paint12_linear_0_1" x1="1763.51" y1="266.55" x2="1872.44" y2="1080.32" gradientUnits="userSpaceOnUse">
<stop stop-color="#F68358"/>
<stop offset="0.223958" stop-color="#E98668"/>
<stop offset="0.479167" stop-color="#EA3B6E"/>
<stop offset="0.729167" stop-color="#DE3B6C"/>
<stop offset="1" stop-color="#5C4999"/>
</linearGradient>
<linearGradient id="paint13_linear_0_1" x1="1768.8" y1="258.375" x2="1879.41" y2="1083.72" gradientUnits="userSpaceOnUse">
<stop stop-color="#F68358"/>
<stop offset="0.223958" stop-color="#E98668"/>
<stop offset="0.479167" stop-color="#EA3B6E"/>
<stop offset="0.729167" stop-color="#DE3B6C"/>
<stop offset="1" stop-color="#5C4999"/>
</linearGradient>
<linearGradient id="paint14_linear_0_1" x1="1774.1" y1="250.205" x2="1886.39" y2="1087.13" gradientUnits="userSpaceOnUse">
<stop stop-color="#F68358"/>
<stop offset="0.223958" stop-color="#E98668"/>
<stop offset="0.479167" stop-color="#EA3B6E"/>
<stop offset="0.729167" stop-color="#DE3B6C"/>
<stop offset="1" stop-color="#5C4999"/>
</linearGradient>
<linearGradient id="paint15_linear_0_1" x1="1779.42" y1="242.032" x2="1893.39" y2="1090.55" gradientUnits="userSpaceOnUse">
<stop stop-color="#F68358"/>
<stop offset="0.223958" stop-color="#E98668"/>
<stop offset="0.479167" stop-color="#EA3B6E"/>
<stop offset="0.729167" stop-color="#DE3B6C"/>
<stop offset="1" stop-color="#5C4999"/>
</linearGradient>
<linearGradient id="paint16_linear_0_1" x1="1784.72" y1="233.84" x2="1900.37" y2="1093.94" gradientUnits="userSpaceOnUse">
<stop stop-color="#F68358"/>
<stop offset="0.223958" stop-color="#E98668"/>
<stop offset="0.479167" stop-color="#EA3B6E"/>
<stop offset="0.729167" stop-color="#DE3B6C"/>
<stop offset="1" stop-color="#5C4999"/>
</linearGradient>
<linearGradient id="paint17_linear_0_1" x1="1789.99" y1="225.666" x2="1907.32" y2="1097.35" gradientUnits="userSpaceOnUse">
<stop stop-color="#F68358"/>
<stop offset="0.223958" stop-color="#E98668"/>
<stop offset="0.479167" stop-color="#EA3B6E"/>
<stop offset="0.729167" stop-color="#DE3B6C"/>
<stop offset="1" stop-color="#5C4999"/>
</linearGradient>
<linearGradient id="paint18_linear_0_1" x1="1795.28" y1="217.484" x2="1914.29" y2="1100.76" gradientUnits="userSpaceOnUse">
<stop stop-color="#F68358"/>
<stop offset="0.223958" stop-color="#E98668"/>
<stop offset="0.479167" stop-color="#EA3B6E"/>
<stop offset="0.729167" stop-color="#DE3B6C"/>
<stop offset="1" stop-color="#5C4999"/>
</linearGradient>
<linearGradient id="paint19_linear_0_1" x1="1800.58" y1="209.296" x2="1921.28" y2="1104.17" gradientUnits="userSpaceOnUse">
<stop stop-color="#F68358"/>
<stop offset="0.223958" stop-color="#E98668"/>
<stop offset="0.479167" stop-color="#EA3B6E"/>
<stop offset="0.729167" stop-color="#DE3B6C"/>
<stop offset="1" stop-color="#5C4999"/>
</linearGradient>
<linearGradient id="paint20_linear_0_1" x1="1805.87" y1="201.11" x2="1928.25" y2="1107.57" gradientUnits="userSpaceOnUse">
<stop stop-color="#F68358"/>
<stop offset="0.223958" stop-color="#E98668"/>
<stop offset="0.479167" stop-color="#EA3B6E"/>
<stop offset="0.729167" stop-color="#DE3B6C"/>
<stop offset="1" stop-color="#5C4999"/>
</linearGradient>
<linearGradient id="paint21_linear_0_1" x1="1811.17" y1="192.933" x2="1935.24" y2="1111" gradientUnits="userSpaceOnUse">
<stop stop-color="#F68358"/>
<stop offset="0.223958" stop-color="#E98668"/>
<stop offset="0.479167" stop-color="#EA3B6E"/>
<stop offset="0.729167" stop-color="#DE3B6C"/>
<stop offset="1" stop-color="#5C4999"/>
</linearGradient>
<linearGradient id="paint22_linear_0_1" x1="1816.46" y1="184.729" x2="1942.21" y2="1114.39" gradientUnits="userSpaceOnUse">
<stop stop-color="#F68358"/>
<stop offset="0.223958" stop-color="#E98668"/>
<stop offset="0.479167" stop-color="#EA3B6E"/>
<stop offset="0.729167" stop-color="#DE3B6C"/>
<stop offset="1" stop-color="#5C4999"/>
</linearGradient>
<linearGradient id="paint23_linear_0_1" x1="1815.11" y1="191.018" x2="1939.02" y2="1108.54" gradientUnits="userSpaceOnUse">
<stop stop-color="#F68358"/>
<stop offset="0.223958" stop-color="#E98668"/>
<stop offset="0.479167" stop-color="#EA3B6E"/>
<stop offset="0.729167" stop-color="#DE3B6C"/>
<stop offset="1" stop-color="#5C4999"/>
</linearGradient>
<linearGradient id="paint24_linear_0_1" x1="1813.78" y1="197.227" x2="1935.87" y2="1102.8" gradientUnits="userSpaceOnUse">
<stop stop-color="#F68358"/>
<stop offset="0.223958" stop-color="#E98668"/>
<stop offset="0.479167" stop-color="#EA3B6E"/>
<stop offset="0.729167" stop-color="#DE3B6C"/>
<stop offset="1" stop-color="#5C4999"/>
</linearGradient>
<linearGradient id="paint25_linear_0_1" x1="1812.45" y1="203.319" x2="1932.75" y2="1097.15" gradientUnits="userSpaceOnUse">
<stop stop-color="#F68358"/>
<stop offset="0.223958" stop-color="#E98668"/>
<stop offset="0.479167" stop-color="#EA3B6E"/>
<stop offset="0.729167" stop-color="#DE3B6C"/>
<stop offset="1" stop-color="#5C4999"/>
</linearGradient>
<linearGradient id="paint26_linear_0_1" x1="1811.15" y1="209.25" x2="1929.71" y2="1091.59" gradientUnits="userSpaceOnUse">
<stop stop-color="#F68358"/>
<stop offset="0.223958" stop-color="#E98668"/>
<stop offset="0.479167" stop-color="#EA3B6E"/>
<stop offset="0.729167" stop-color="#DE3B6C"/>
<stop offset="1" stop-color="#5C4999"/>
</linearGradient>
<linearGradient id="paint27_linear_0_1" x1="1809.93" y1="214.691" x2="1926.85" y2="1086.19" gradientUnits="userSpaceOnUse">
<stop stop-color="#F68358"/>
<stop offset="0.223958" stop-color="#E98668"/>
<stop offset="0.479167" stop-color="#EA3B6E"/>
<stop offset="0.729167" stop-color="#DE3B6C"/>
<stop offset="1" stop-color="#5C4999"/>
</linearGradient>
<linearGradient id="paint28_linear_0_1" x1="1808.41" y1="220.76" x2="1923.61" y2="1080.98" gradientUnits="userSpaceOnUse">
<stop stop-color="#F68358"/>
<stop offset="0.223958" stop-color="#E98668"/>
<stop offset="0.479167" stop-color="#EA3B6E"/>
<stop offset="0.729167" stop-color="#DE3B6C"/>
<stop offset="1" stop-color="#5C4999"/>
</linearGradient>
<linearGradient id="paint29_linear_0_1" x1="1807.04" y1="226.032" x2="1920.68" y2="1075.96" gradientUnits="userSpaceOnUse">
<stop stop-color="#F68358"/>
<stop offset="0.223958" stop-color="#E98668"/>
<stop offset="0.479167" stop-color="#EA3B6E"/>
<stop offset="0.729167" stop-color="#DE3B6C"/>
<stop offset="1" stop-color="#5C4999"/>
</linearGradient>
<linearGradient id="paint30_linear_0_1" x1="1805.6" y1="230.974" x2="1917.76" y2="1071.21" gradientUnits="userSpaceOnUse">
<stop stop-color="#F68358"/>
<stop offset="0.223958" stop-color="#E98668"/>
<stop offset="0.479167" stop-color="#EA3B6E"/>
<stop offset="0.729167" stop-color="#DE3B6C"/>
<stop offset="1" stop-color="#5C4999"/>
</linearGradient>
<linearGradient id="paint31_linear_0_1" x1="1804.09" y1="235.619" x2="1914.87" y2="1066.79" gradientUnits="userSpaceOnUse">
<stop stop-color="#F68358"/>
<stop offset="0.223958" stop-color="#E98668"/>
<stop offset="0.479167" stop-color="#EA3B6E"/>
<stop offset="0.729167" stop-color="#DE3B6C"/>
<stop offset="1" stop-color="#5C4999"/>
</linearGradient>
<linearGradient id="paint32_linear_0_1" x1="1802.44" y1="239.913" x2="1911.94" y2="1062.79" gradientUnits="userSpaceOnUse">
<stop stop-color="#F68358"/>
<stop offset="0.223958" stop-color="#E98668"/>
<stop offset="0.479167" stop-color="#EA3B6E"/>
<stop offset="0.729167" stop-color="#DE3B6C"/>
<stop offset="1" stop-color="#5C4999"/>
</linearGradient>
<linearGradient id="paint33_linear_0_1" x1="1800.65" y1="243.91" x2="1908.99" y2="1059.31" gradientUnits="userSpaceOnUse">
<stop stop-color="#F68358"/>
<stop offset="0.223958" stop-color="#E98668"/>
<stop offset="0.479167" stop-color="#EA3B6E"/>
<stop offset="0.729167" stop-color="#DE3B6C"/>
<stop offset="1" stop-color="#5C4999"/>
</linearGradient>
<linearGradient id="paint34_linear_0_1" x1="1798.59" y1="247.653" x2="1905.93" y2="1056.6" gradientUnits="userSpaceOnUse">
<stop stop-color="#F68358"/>
<stop offset="0.223958" stop-color="#E98668"/>
<stop offset="0.479167" stop-color="#EA3B6E"/>
<stop offset="0.729167" stop-color="#DE3B6C"/>
<stop offset="1" stop-color="#5C4999"/>
</linearGradient>
<linearGradient id="paint35_linear_0_1" x1="1796.17" y1="251.202" x2="1902.67" y2="1054.93" gradientUnits="userSpaceOnUse">
<stop stop-color="#F68358"/>
<stop offset="0.223958" stop-color="#E98668"/>
<stop offset="0.479167" stop-color="#EA3B6E"/>
<stop offset="0.729167" stop-color="#DE3B6C"/>
<stop offset="1" stop-color="#5C4999"/>
</linearGradient>
<linearGradient id="paint36_linear_0_1" x1="1793.21" y1="254.575" x2="1899.09" y2="1054.67" gradientUnits="userSpaceOnUse">
<stop stop-color="#F68358"/>
<stop offset="0.223958" stop-color="#E98668"/>
<stop offset="0.479167" stop-color="#EA3B6E"/>
<stop offset="0.729167" stop-color="#DE3B6C"/>
<stop offset="1" stop-color="#5C4999"/>
</linearGradient>
<linearGradient id="paint37_linear_0_1" x1="1789.39" y1="257.879" x2="1894.94" y2="1056.36" gradientUnits="userSpaceOnUse">
<stop stop-color="#F68358"/>
<stop offset="0.223958" stop-color="#E98668"/>
<stop offset="0.479167" stop-color="#EA3B6E"/>
<stop offset="0.729167" stop-color="#DE3B6C"/>
<stop offset="1" stop-color="#5C4999"/>
</linearGradient>
<linearGradient id="paint38_linear_0_1" x1="1782.36" y1="261.436" x2="1887.86" y2="1060.56" gradientUnits="userSpaceOnUse">
<stop stop-color="#F68358"/>
<stop offset="0.223958" stop-color="#E98668"/>
<stop offset="0.479167" stop-color="#EA3B6E"/>
<stop offset="0.729167" stop-color="#DE3B6C"/>
<stop offset="1" stop-color="#5C4999"/>
</linearGradient>
<linearGradient id="paint39_linear_0_1" x1="1774.9" y1="264.863" x2="1880.51" y2="1065.8" gradientUnits="userSpaceOnUse">
<stop stop-color="#F68358"/>
<stop offset="0.223958" stop-color="#E98668"/>
<stop offset="0.479167" stop-color="#EA3B6E"/>
<stop offset="0.729167" stop-color="#DE3B6C"/>
<stop offset="1" stop-color="#5C4999"/>
</linearGradient>
<linearGradient id="paint40_linear_0_1" x1="1767.45" y1="268.08" x2="1873.21" y2="1071.06" gradientUnits="userSpaceOnUse">
<stop stop-color="#F68358"/>
<stop offset="0.223958" stop-color="#E98668"/>
<stop offset="0.479167" stop-color="#EA3B6E"/>
<stop offset="0.729167" stop-color="#DE3B6C"/>
<stop offset="1" stop-color="#5C4999"/>
</linearGradient>
<linearGradient id="paint41_linear_0_1" x1="1760.01" y1="271.226" x2="1865.93" y2="1076.31" gradientUnits="userSpaceOnUse">
<stop stop-color="#F68358"/>
<stop offset="0.223958" stop-color="#E98668"/>
<stop offset="0.479167" stop-color="#EA3B6E"/>
<stop offset="0.729167" stop-color="#DE3B6C"/>
<stop offset="1" stop-color="#5C4999"/>
</linearGradient>
<linearGradient id="paint42_linear_0_1" x1="1752.61" y1="274.266" x2="1858.7" y2="1081.58" gradientUnits="userSpaceOnUse">
<stop stop-color="#F68358"/>
<stop offset="0.223958" stop-color="#E98668"/>
<stop offset="0.479167" stop-color="#EA3B6E"/>
<stop offset="0.729167" stop-color="#DE3B6C"/>
<stop offset="1" stop-color="#5C4999"/>
</linearGradient>
<linearGradient id="paint43_linear_0_1" x1="1745.18" y1="277.185" x2="1851.46" y2="1086.81" gradientUnits="userSpaceOnUse">
<stop stop-color="#F68358"/>
<stop offset="0.223958" stop-color="#E98668"/>
<stop offset="0.479167" stop-color="#EA3B6E"/>
<stop offset="0.729167" stop-color="#DE3B6C"/>
<stop offset="1" stop-color="#5C4999"/>
</linearGradient>
<linearGradient id="paint44_linear_0_1" x1="-14.6374" y1="823.787" x2="449.004" y2="1378.24" gradientUnits="userSpaceOnUse">
<stop offset="0.0999997" stop-color="#F3875C"/>
<stop offset="0.876041" stop-color="#4F1FC9"/>
</linearGradient>
</defs>
</svg>
    