<svg width="1920" height="1062" viewBox="0 0 1920 1062" fill="none" xmlns="http://www.w3.org/2000/svg">
<path d="M-218.942 1061.01C-84.5925 1054.18 61.0779 1027.98 188.432 987.553C339.896 939.522 459.965 874.484 567.215 809.676C674.465 744.868 774.629 677.856 903.205 618.528C1032.04 559.154 1197.21 506.778 1359.94 492.298C1462.02 483.235 1556.36 489.549 1659.15 478.431C1984.33 443.23 2250.21 255.609 2574.04 224.91C2712.38 211.79 2828.95 231.75 2965.22 223.664C3143.39 213.165 3343.89 149.989 3438.04 74.6965" stroke="url(#paint0_linear_0_1)" stroke-width="2" stroke-miterlimit="10"/>
<path d="M-231.452 1053.87C-117.959 1045.74 4.91754 1025.49 118.471 996.435C140.78 990.775 162.742 984.669 184.133 978.358C272.223 952.265 349.884 921.715 419.524 889.737C472.814 865.312 521.67 840.044 569.088 814.218C596.953 799.049 624.766 783.584 653.307 767.687C718.389 731.13 783.868 692.269 852.917 655.419C872.746 644.815 892.888 634.46 913.341 624.354C964.605 599.069 1020.91 575.026 1080.46 554.169C1164.73 524.686 1255.74 501.431 1348.7 490.827C1447.71 479.562 1541.57 483.119 1645.01 471.174C1660.5 469.358 1675.67 467.292 1690.81 465.028C1788.9 450.068 1881.37 424.522 1972.75 394.295C2118.55 346.044 2260.62 285.758 2410.01 248.754C2461.35 236.046 2513.45 226.149 2567.34 220.302C2674.59 208.701 2769.37 215.954 2870.36 215.917C2900.08 215.854 2930.52 215.26 2961.77 213.203C3141.67 201.89 3342.31 142.549 3436.53 73.7418" stroke="url(#paint1_linear_0_1)" stroke-width="2" stroke-miterlimit="10"/>
<path d="M-243.945 1046.83C-128.998 1036.31 -3.64457 1014.92 112.456 986.631C135.319 981.077 157.61 975.318 179.573 969.212C269.483 944.321 349.136 915.958 419.592 887.085C473.282 864.925 522.104 842.507 570.978 818.861C599.606 804.979 628.424 790.657 658.662 775.272C727.469 740.09 796.222 700.042 864.543 662.102C884.061 651.248 903.613 640.591 923.72 630.039C973.251 604.043 1026.21 579.27 1082.14 557.63C1161.67 527.055 1247.01 502.057 1337.2 489.403C1432.86 475.885 1526.79 476.79 1630.63 464.064C1646.1 462.149 1661.53 460.037 1676.91 457.629C1775.78 442.531 1868.62 419.054 1961.02 390.068C2108.54 343.951 2253.29 283.7 2403.29 245.574C2454.57 232.571 2507.11 222.089 2560.88 215.553C2668.15 202.528 2764.12 207.437 2866.47 206.042C2896.67 205.592 2927.31 204.657 2958.82 202.554C3140.18 190.376 3341.25 135.019 3435.79 72.5537" stroke="url(#paint2_linear_0_1)" stroke-width="2" stroke-miterlimit="10"/>
<path d="M-256.437 1039.8C-140.053 1026.79 -12.1882 1004.44 106.718 976.878C130.136 971.429 152.999 965.874 175.291 960.116C267.263 936.283 348.927 910.206 419.92 884.386C474.027 864.59 523.058 844.876 572.851 823.403C601.982 810.854 632.325 797.584 664.002 782.758C736.274 748.995 808.82 707.67 875.893 668.731C895.098 657.627 914.304 646.523 933.579 635.814C981.361 609.009 1031 583.604 1083.56 561.135C1158.07 529.415 1237.79 501.447 1325.42 487.925C1417.74 473.677 1511.47 470.452 1615.97 456.899C1631.42 454.886 1647.1 452.629 1662.5 450.32C1762.15 435.085 1855.35 413.675 1948.53 386.075C2097.76 342.093 2244.96 282.02 2396.08 242.68C2447.58 229.336 2500.02 218.361 2553.93 211.091C2661.48 196.595 2758.38 199.207 2861.85 196.5C2892.25 195.709 2923.37 194.485 2955.12 192.237C3138.22 179.246 3339.43 127.723 3434.3 71.6983" stroke="url(#paint3_linear_0_1)" stroke-width="2" stroke-miterlimit="10"/>
<path d="M-268.948 1032.66C-151.388 1017.21 -20.7519 993.873 100.684 966.977C124.414 961.777 147.831 956.328 170.712 950.872C264.763 928.196 348.177 904.45 419.952 881.539C474.475 864.106 523.698 846.999 574.445 827.896C604.338 816.634 635.687 804.506 669.061 790.194C745.041 757.706 820.877 715.293 887.24 675.363C906.376 663.865 924.75 652.603 943.419 641.493C989.468 613.979 1036.02 587.797 1084.96 564.545C1154.46 531.779 1228.76 503.446 1313.9 486.404C1402.65 468.622 1496.66 463.927 1601.57 449.692C1617.27 447.534 1632.94 445.278 1648.32 442.87C1748.75 427.497 1842.32 408.156 1936.52 381.797C2087.45 339.851 2237.09 279.956 2389.08 239.448C2440.78 225.763 2493.14 214.296 2546.93 206.336C2654.77 190.468 2752.59 190.685 2857.18 186.763C2888.05 185.585 2919.4 184.119 2951.39 181.727C3136.22 167.923 3337.85 120.286 3432.51 70.6948" stroke="url(#paint4_linear_0_1)" stroke-width="2" stroke-miterlimit="10"/>
<path d="M-281.44 1025.62C-162.443 1007.69 -29.0532 983.251 94.6871 957.269C118.971 952.175 142.96 946.93 166.43 941.776C262.56 920.256 347.968 898.698 420.28 878.839C475.221 863.77 524.393 849.413 576.595 832.491C607.252 822.516 639.588 811.433 674.678 797.731C754.122 766.664 833.509 723.117 899.126 681.998C917.951 670.251 935.996 658.641 953.816 647.274C997.872 619.095 1041.34 592.138 1086.66 568.102C1151.14 534.191 1219.81 504.312 1302.39 484.978C1387.82 465.041 1481.62 457.641 1587.19 442.579C1602.87 440.323 1618.79 437.922 1634.44 435.567C1735.65 420.057 1829.57 402.685 1924.83 377.764C2077.44 337.756 2229.8 278.092 2382.41 236.561C2434.32 222.534 2486.59 210.575 2540.52 201.88C2648.63 184.542 2747.39 182.461 2853.35 177.182C2884.68 175.616 2916.26 173.907 2948.76 171.325C3135.05 156.753 3337.08 112.905 3432.08 69.754" stroke="url(#paint5_linear_0_1)" stroke-width="2" stroke-miterlimit="10"/>
<path d="M-293.933 1018.59C-173.741 998.307 -37.5977 972.778 88.9318 947.421C113.77 942.432 138.348 937.489 162.113 932.487C260.062 912.169 347.463 892.798 420.574 875.946C476.173 863.097 525.572 851.543 578.451 836.939C609.87 828.251 643.212 818.31 679.999 805.122C763.151 775.33 845.829 730.695 910.735 688.584C929.231 676.489 946.964 664.629 963.917 652.907C1006.22 623.921 1046.35 596.232 1088.33 571.467C1148.06 536.463 1210.56 505.032 1291.13 483.412C1372.99 461.464 1467.08 451.169 1573.05 435.326C1588.97 432.926 1604.63 430.571 1620.53 428.072C1722.78 412.378 1816.8 397.12 1912.82 373.486C2067.15 335.613 2221.95 276.128 2375.41 233.33C2427.25 218.909 2479.98 206.464 2533.77 197.079C2642.17 178.271 2741.86 173.894 2848.93 167.302C2880.47 165.395 2912.52 163.299 2945.27 160.671C3133.3 145.286 3335.49 105.37 3430.78 68.4624" stroke="url(#paint6_linear_0_1)" stroke-width="2" stroke-miterlimit="10"/>
<path d="M-306.441 1011.45C-184.813 988.683 -46.1581 962.204 82.9181 937.616C108.311 932.733 133.201 928.039 157.554 923.339C257.583 904.178 346.717 887.04 420.626 873.195C476.642 862.709 526.267 853.959 580.065 841.528C612.247 834.127 646.594 825.329 685.096 812.752C771.713 784.38 857.925 738.513 922.103 695.312C940.546 682.921 957.413 670.707 973.795 658.781C1014.37 629.084 1051.15 600.666 1089.51 575.117C1143.95 539.014 1201.09 505.991 1279.13 482.177C1357.42 458.219 1451.53 444.976 1558.17 428.405C1574.07 425.906 1589.97 423.407 1606.15 420.96C1709.2 405.228 1803.56 391.939 1900.63 369.645C2056.65 333.807 2214.16 274.455 2368.24 230.634C2420.29 215.871 2472.92 202.935 2526.86 192.815C2635.53 172.536 2736.16 165.861 2844.33 157.957C2876.34 155.663 2908.61 153.324 2941.61 150.552C3131.37 134.354 3333.7 98.2723 3429.07 67.8503" stroke="url(#paint7_linear_0_1)" stroke-width="2" stroke-miterlimit="10"/>
<path d="M-318.935 1004.41C-195.87 979.157 -54.7213 951.629 76.9016 927.811C102.866 923.131 128.311 918.543 152.993 914.191C255.101 896.186 346.228 881.235 420.416 870.489C476.831 862.268 526.683 856.321 581.659 846.018C614.604 839.904 649.939 832.151 690.156 820.185C780.481 793.089 869.983 746.133 933.433 701.843C951.547 689.104 968.102 676.639 983.618 664.359C1022.44 633.854 1055.9 604.803 1090.89 578.425C1140.32 541.177 1191.57 506.753 1267.57 480.456C1342.05 454.631 1436.69 438.349 1544 420.952C1559.88 418.354 1576.04 415.809 1592.22 413.363C1696.04 397.493 1790.78 386.272 1888.6 365.266C2046.34 331.562 2206.29 272.389 2361.22 227.3C2413.48 212.197 2466.03 198.768 2520.1 187.912C2628.79 166.209 2730.33 157.139 2840.17 148.028C2872.39 145.393 2905.14 142.765 2938.37 139.75C3129.58 122.687 3332.34 90.5896 3428.02 66.5093" stroke="url(#paint8_linear_0_1)" stroke-width="2" stroke-miterlimit="10"/>
<path d="M-331.427 997.374C-207.185 969.679 -63.2651 941.154 71.1643 918.06C97.4232 913.531 123.457 909.245 148.971 905.051C253.141 888.105 346.018 875.485 421.004 867.746C477.836 861.888 527.897 858.646 583.81 850.615C617.517 845.788 653.857 839.178 695.772 827.725C789.562 802.049 882.875 753.914 945.078 708.624C962.879 695.636 979.105 682.824 993.772 670.286C1030.6 639.117 1060.97 609.29 1092.61 582.083C1137.29 543.743 1182.67 507.917 1256.11 479.23C1327.03 451.493 1421.69 432.263 1529.63 413.94C1545.76 411.198 1561.9 408.555 1578.34 406.063C1682.95 390.055 1778.02 380.804 1876.91 361.236C2036.35 329.568 2198.74 270.573 2354.55 224.416C2406.75 209.017 2459.74 195.003 2513.43 183.505C2622.4 160.331 2724.87 148.964 2835.82 138.54C2868.49 135.42 2901.49 132.647 2935.21 129.442C3128.16 111.566 3331.06 83.3028 3427.07 65.6627" stroke="url(#paint9_linear_0_1)" stroke-width="2" stroke-miterlimit="10"/>
<path d="M-343.937 990.237C-218.259 960.055 -71.8276 930.579 65.1312 908.156C91.9445 903.733 118.55 899.651 144.393 895.805C250.642 880.015 345.253 869.628 421.037 864.897C478.286 861.402 528.573 860.963 585.405 855.106C620.135 851.52 657.22 846.098 700.833 835.159C798.071 810.803 894.934 761.535 956.409 715.155C974.159 701.871 989.535 688.803 1003.61 675.963C1038.71 644.084 1065.74 613.526 1093.75 585.536C1133.41 546.051 1172.92 508.824 1244.05 477.699C1311.7 448.103 1406.34 425.729 1514.7 406.723C1530.81 403.883 1547.21 401.194 1563.65 398.701C1669.03 382.557 1764.48 375.374 1864.4 357.145C2025.56 327.612 2190.63 268.651 2347.05 221.371C2399.46 205.631 2452.36 191.125 2506.19 178.892C2615.43 154.247 2718.84 140.583 2830.89 128.847C2863.77 125.385 2897.24 122.226 2931.22 118.975C3125.9 100.286 3328.96 75.955 3425.03 64.7025" stroke="url(#paint10_linear_0_1)" stroke-width="2" stroke-miterlimit="10"/>
<path d="M-356.43 983.2C-229.557 950.675 -80.3893 920.006 59.1337 898.451C86.5187 894.232 113.419 890.301 139.851 886.757C247.92 872.169 344.783 863.924 421.105 862.245C478.754 861.016 529.527 863.335 587.295 859.749C622.788 857.451 661.121 853.027 706.189 842.745C807.135 819.665 907.289 769.309 968.035 721.839C985.456 708.207 1000.5 694.79 1013.99 681.648C1047.34 648.96 1071.04 617.771 1095.7 588.952C1130.34 548.42 1164.26 509.844 1233.07 476.185C1297.18 444.774 1391.82 419.354 1500.84 399.522C1517.19 396.537 1533.58 393.749 1550.27 391.211C1656.7 374.883 1752.24 369.814 1852.93 352.873C2015.8 325.474 2183.32 266.692 2340.6 218.244C2393.22 202.163 2446.02 187.066 2500 174.195C2609.52 148.081 2713.87 132.119 2827.3 119.123C2860.65 115.275 2894.34 111.873 2928.57 108.478C3124.72 89.0209 3328.18 68.4783 3424.58 63.666" stroke="url(#paint11_linear_0_1)" stroke-width="2" stroke-miterlimit="10"/>
<path d="M-368.922 976.162C-240.612 941.15 -88.9334 909.53 53.3787 888.6C81.318 884.486 108.79 880.759 135.552 877.563C245.699 864.132 344.296 858.12 421.416 859.448C479.464 860.484 530.481 865.704 589.168 864.292C625.441 863.379 664.762 860 711.528 850.231C815.921 828.473 919.626 776.982 979.662 728.521C996.77 714.639 1011.49 700.874 1024.13 687.476C1055.48 654.124 1076.36 622.112 1097.4 592.51C1127.29 550.886 1155.6 510.863 1221.56 474.76C1282.4 441.49 1377.04 413.023 1486.46 392.41C1502.79 389.327 1519.44 386.494 1536.14 383.955C1643.34 367.49 1739.25 364.489 1840.98 348.887C2005.81 323.479 2175.51 264.921 2333.66 215.305C2386.22 198.928 2439.19 183.293 2493.32 169.688C2603.11 142.103 2708.39 123.844 2822.94 109.536C2856.75 105.3 2890.66 101.655 2925.13 98.116C3123.02 77.8461 3326.89 61.19 3423.35 62.7652" stroke="url(#paint12_linear_0_1)" stroke-width="2" stroke-miterlimit="10"/>
<path d="M-381.431 969.027C-251.945 931.572 -97.4946 898.957 47.3643 878.796C75.858 874.787 103.919 871.363 131.252 868.371C243.479 856.096 344.051 852.173 421.745 856.751C480.209 860.15 531.452 868.174 591.042 868.836C628.077 869.211 668.386 866.876 716.867 857.718C824.725 837.38 931.963 784.657 991.271 735.105C1008.31 720.83 1022.2 706.907 1034.23 693.108C1063.84 658.948 1081.39 626.304 1098.8 595.919C1123.67 553.15 1146.66 511.83 1210.04 473.238C1267.63 438.206 1361.97 406.543 1472.06 385.201C1488.38 382.02 1505.27 379.042 1521.96 376.504C1629.96 359.999 1726.22 358.968 1828.97 344.608C1995.52 321.334 2167.9 262.81 2326.68 212.17C2379.43 195.354 2432.59 179.279 2486.33 165.03C2596.4 135.975 2702.62 115.419 2818.27 99.7984C2852.29 95.2214 2886.69 91.288 2921.66 87.5585C3121.28 66.4754 3325.3 53.6533 3422.08 61.6687" stroke="url(#paint13_linear_0_1)" stroke-width="2" stroke-miterlimit="10"/>
<path d="M-393.926 961.989C-263.003 922.048 -106.059 888.383 41.347 868.992C70.4124 865.187 98.7679 861.914 126.69 859.224C240.979 848.008 343.302 846.415 421.793 854.001C480.657 859.665 532.144 870.59 592.913 873.38C630.468 875.186 672.024 873.85 722.204 865.205C833.769 846.142 944.315 792.43 1002.64 741.834C1019.36 727.309 1032.92 713.038 1044.1 698.982C1071.98 664.112 1086.19 630.738 1100.24 599.524C1120.11 555.708 1137.76 512.994 1198.3 471.958C1252.86 435.021 1346.95 400.358 1457.44 378.235C1473.99 374.909 1490.62 371.977 1507.84 369.348C1616.62 352.706 1713.24 353.743 1816.77 340.768C1985.03 319.628 2159.86 261.284 2319.48 209.377C2372.45 192.219 2425.52 175.652 2479.4 160.668C2589.73 130.044 2696.9 107.289 2813.94 90.4088C2848.42 85.4448 2883.29 81.1243 2918.26 77.3948C3119.33 55.446 3323.79 46.6089 3420.62 61.0119" stroke="url(#paint14_linear_0_1)" stroke-width="2" stroke-miterlimit="10"/>
<path d="M-406.416 954.952C-274.039 912.622 -114.341 877.863 35.611 859.241C64.9709 855.587 94.1579 852.471 122.41 850.13C238.518 840.116 343.076 840.566 422.123 851.303C481.646 859.187 532.857 873.106 594.805 878.023C633.123 881.116 675.667 880.824 727.579 872.889C842.592 855.148 956.949 800.256 1014.28 748.616C1030.7 733.841 1043.65 719.169 1054.24 704.811C1080.37 669.133 1091.25 635.127 1101.94 603.083C1117.04 558.077 1129.1 514.014 1186.8 470.534C1238.09 431.738 1331.91 394.074 1443.06 371.125C1459.6 367.7 1476.47 364.624 1493.69 361.994C1603.5 345.169 1700.23 348.32 1804.79 336.586C1974.75 317.483 2152.28 259.271 2312.52 206.341C2365.69 188.842 2418.67 171.782 2472.7 156.062C2583.04 124.014 2691.4 98.9165 2809.55 80.7238C2844.25 75.4186 2879.6 70.8096 2914.8 66.8373C3117.6 44.0754 3322.19 39.0722 3419.34 59.8168" stroke="url(#paint15_linear_0_1)" stroke-width="2" stroke-miterlimit="10"/>
<path d="M-418.927 947.815C-285.373 903.043 -122.904 867.288 29.5778 849.337C59.4922 845.788 89.0084 843.021 117.832 840.883C236.019 832.026 342.311 834.709 421.896 848.499C481.836 858.746 533.273 875.468 596.14 882.559C635.221 886.939 678.77 887.79 732.38 880.368C850.841 863.948 968.748 807.922 1025.35 755.192C1041.7 740.023 1054.08 725.148 1063.82 710.533C1087.96 674.191 1096.01 639.362 1102.82 606.582C1112.92 560.529 1119.9 515.026 1174.76 469.102C1223.05 428.499 1316.57 387.638 1428.4 363.96C1445.18 360.391 1462.05 357.315 1479.53 354.64C1590.13 337.677 1687.24 342.994 1792.55 332.548C1964.25 315.677 2144.2 257.545 2305.29 203.349C2358.41 185.554 2411.83 167.911 2465.73 151.502C2576.35 117.983 2685.65 90.588 2804.9 71.083C2840.07 65.3907 2875.64 60.539 2911.08 56.4223C3115.62 32.8474 3320.37 31.7765 3417.83 58.863" stroke="url(#paint16_linear_0_1)" stroke-width="2" stroke-miterlimit="10"/>
<path d="M-431.419 940.778C-296.429 893.519 -131.466 856.714 23.8401 839.586C54.3261 836.241 84.3967 833.579 113.792 831.645C234.058 823.944 342.343 828.815 422.467 845.657C482.806 858.169 534.47 877.695 598.515 886.913C638.376 892.679 682.896 894.476 738.221 887.665C860.389 872.521 981.587 815.407 1037.48 761.685C1053.51 746.267 1065.56 731.043 1074.44 716.074C1096.84 679.021 1101.56 643.462 1105.01 609.853C1110.08 562.655 1112 515.81 1163.74 467.39C1209.28 424.835 1302.02 381.066 1414.49 356.463C1431.25 352.796 1448.37 349.575 1465.84 346.9C1577.22 329.8 1674.69 337.185 1781.03 327.98C1954.44 313.244 2136.82 255.192 2298.8 199.926C2352.13 181.79 2405.44 163.555 2459.23 146.556C2570.12 111.468 2680.36 81.8745 2800.98 61.0114C2836.34 54.8793 2872.42 49.8374 2908.1 45.5765C3114.11 21.2342 3319.27 24.05 3416.8 57.5239" stroke="url(#paint17_linear_0_1)" stroke-width="2" stroke-miterlimit="10"/>
<path d="M-443.652 933.694C-307.484 883.994 -139.75 846.193 18.0853 829.735C49.1257 826.496 79.5081 824.083 109.493 822.452C231.838 815.907 341.856 823.011 422.778 842.86C483.794 857.69 535.424 880.065 600.388 891.457C641.012 898.51 686.52 901.351 743.56 895.152C869.159 881.23 993.942 823.18 1049.09 768.269C1064.79 752.502 1076.27 737.075 1084.56 721.803C1105.21 683.942 1106.6 647.752 1106.43 613.359C1106.5 565.114 1103.58 516.685 1152.24 465.965C1194.76 421.505 1287.23 374.637 1400.1 349.352C1416.85 345.586 1434.23 342.32 1451.96 339.598C1564.12 322.361 1661.96 331.815 1769.34 323.949C1944.46 311.348 2129.53 253.33 2292.37 196.895C2345.91 178.418 2399.13 159.692 2453.06 141.957C2563.96 105.444 2675.39 73.4094 2797.15 51.4309C2832.97 44.9118 2869.26 39.5286 2905.46 35.1761C3113.2 10.0207 3318.51 16.6704 3416.36 56.5845" stroke="url(#paint18_linear_0_1)" stroke-width="2" stroke-miterlimit="10"/>
<path d="M-456.163 926.557C-318.542 874.468 -148.313 835.618 12.0683 819.93C43.6631 816.796 74.6348 814.686 104.931 813.304C229.096 807.962 341.367 817.206 422.827 840.109C484.259 857.303 535.856 882.526 601.999 896.046C643.126 904.432 689.899 908.369 748.637 902.683C877.96 890.136 1006.02 830.899 1060.45 774.997C1076.11 758.935 1086.98 743.106 1094.42 727.578C1113.34 689.007 1111.36 651.988 1107.85 616.864C1102.89 567.475 1094.92 517.703 1140.45 464.488C1180.22 418.077 1271.91 368.3 1385.45 342.187C1402.44 338.278 1419.79 334.913 1437.53 332.191C1550.48 314.915 1648.67 326.338 1756.83 319.858C1933.65 309.293 2121.18 251.552 2284.88 193.95C2338.37 175.177 2391.76 155.912 2445.84 137.442C2557.01 99.4593 2669.37 65.1273 2792.24 41.8364C2828.53 34.9302 2865.04 29.3043 2901.49 24.8075C3110.96 -1.16096 3316.68 9.3752 3414.59 55.6769" stroke="url(#paint19_linear_0_1)" stroke-width="2" stroke-miterlimit="10"/>
<path d="M-468.653 919.519C-329.854 864.989 -156.855 825.142 6.31575 810.079C38.2224 807.195 70.0083 805.144 100.634 804.11C226.861 799.826 340.882 811.402 423.14 837.312C484.972 856.771 536.813 884.896 604.135 900.543C646.042 910.315 694.062 915.251 754.238 910.124C887.009 898.898 1018.62 838.527 1072.07 781.58C1087.41 765.269 1097.95 749.092 1104.8 733.262C1121.71 693.928 1116.67 656.231 1109.79 620.278C1100.09 569.797 1087.02 518.486 1129.21 463.017C1166.23 414.655 1257.39 361.923 1371.33 335.03C1388.3 331.022 1405.92 327.611 1423.91 324.844C1537.91 307.384 1636.2 320.921 1745.38 315.683C1923.92 307.252 2114.13 249.545 2278.46 190.919C2332.15 171.805 2385.46 152.048 2439.67 132.843C2551.12 93.3897 2664.41 56.7606 2788.66 32.1115C2825.15 24.864 2862.15 18.9496 2898.84 14.3084C3109.76 -12.5258 3315.9 1.89692 3413.89 54.6846" stroke="url(#paint20_linear_0_1)" stroke-width="2" stroke-miterlimit="10"/>
<path d="M-482.084 907.164C-343.2 850.08 -169.37 808.868 -4.36268 793.583C58.9137 787.807 120.702 785.747 178.871 787.472C272.05 790.234 355.411 802.647 419.963 823.86C499.848 849.985 563.508 890.445 661.611 902.899C690.108 906.505 721.392 907.691 756.903 905.491C890.749 897.325 1022.38 840.099 1079.76 784.185C1123.17 741.701 1133.32 698.99 1130.68 658.228C1129.95 644.954 1127.9 631.81 1125.63 618.909C1116.35 566.32 1104.17 512.417 1146.91 454.007C1188.77 396.667 1301.53 332.715 1439.39 310.844C1553.26 292.695 1652.42 306.587 1762.09 302.582C1941.51 296.128 2130.62 242.78 2292.35 187.658C2310.55 181.503 2328.46 175.198 2346.39 168.991C2489.48 119.084 2631.66 67.004 2793.59 35.8106C2834.52 27.8828 2876.3 21.7346 2917.55 17.1025C3121.47 -5.35026 3321.17 12.0362 3419.83 64.0957" stroke="url(#paint21_linear_0_1)" stroke-width="2" stroke-miterlimit="10"/>
<path d="M-483.039 901.749C-345.506 844.599 -173.357 802.973 -9.04287 786.794C53.9042 780.671 115.623 778.216 173.706 779.449C266.763 781.521 350.747 792.91 416.459 813.106C497.73 837.972 563.017 877.028 660.392 889.915C688.37 893.613 719.17 895.087 753.97 893.418C885.444 886.99 1013.8 833.997 1075.3 780.199C1122.7 739.044 1138.62 695.62 1140.4 654.08C1140.97 640.576 1140.47 627.157 1139.5 614.027C1135.92 560.332 1129.46 505.421 1175.6 446.514C1219.97 389.747 1331.83 326.766 1468.23 304.237C1581.2 285.536 1680.58 297.663 1789.97 293.606C1968.31 287.039 2154.14 237.923 2312.67 187.428C2330.42 181.759 2348.17 176.09 2365.65 170.368C2505.49 124.793 2644.19 77.2864 2802.89 48.9994C2843.14 41.8 2883.95 36.2289 2924.5 32.2266C3125.36 12.1421 3325.63 28.2094 3427.02 74.5064" stroke="url(#paint22_linear_0_1)" stroke-width="2" stroke-miterlimit="10"/>
<path d="M-483.716 896.386C-347.777 839.313 -177.048 797.227 -13.445 780.057C49.4152 773.441 110.805 770.638 168.818 771.477C261.996 772.715 346.361 783.225 413.233 802.404C495.889 826.01 563.064 863.616 659.452 876.982C687.187 880.824 717.484 882.488 751.557 881.253C880.642 876.465 1005.46 827.75 1071.65 776.173C1122.75 736.294 1144.95 692.066 1150.93 649.989C1153.06 636.211 1153.86 622.563 1154.19 609.204C1156.05 554.448 1155.56 498.483 1205.08 438.981C1251.96 382.786 1362.9 320.678 1498.15 297.643C1610.47 278.344 1710.1 288.803 1818.95 284.739C1996.21 278.159 2178.75 233.178 2333.84 187.453C2351.16 182.368 2368.46 177.184 2385.75 171.902C2522.57 130.514 2657.55 87.7253 2812.77 62.489C2852.08 56.0637 2892.2 51.1225 2932.02 47.5531C3129.56 29.8826 3330.66 44.5849 3434.79 85.1196" stroke="url(#paint23_linear_0_1)" stroke-width="2" stroke-miterlimit="10"/>
<path d="M-484.655 891.067C-350.067 833.927 -181.018 791.427 -18.091 773.462C44.44 766.498 105.76 763.301 163.929 763.503C257.228 763.908 341.973 773.539 410.006 791.701C494.047 814.047 563.11 850.203 658.51 864.048C685.726 867.981 715.538 869.934 748.884 869.132C875.336 866.128 997.388 821.455 1067.45 772.139C1122.76 733.345 1150.77 688.602 1160.91 645.792C1164.33 631.784 1166.45 618.006 1168.32 604.274C1175.9 548.51 1180.85 491.485 1234.02 431.439C1283.42 375.817 1393.46 314.68 1527.24 290.987C1638.69 271.235 1738.54 279.929 1847.1 275.714C2023.52 268.975 2202.53 228.272 2354.41 187.174C2371.28 182.574 2388.15 177.975 2405.01 173.277C2538.58 136.219 2670.08 98.0046 2822.06 75.6747C2860.7 69.9778 2899.86 65.7122 2939.24 62.6283C3133.45 47.3719 3335.38 60.7092 3441.98 95.5273" stroke="url(#paint24_linear_0_1)" stroke-width="2" stroke-miterlimit="10"/>
<path d="M-485.592 885.749C-352.355 828.543 -184.97 785.727 -22.7532 766.77C39.4485 759.458 100.682 755.769 158.781 755.577C252.218 755.247 337.587 763.853 406.52 781.044C492.224 802.183 562.897 836.838 657.31 851.16C684.283 855.239 713.611 857.48 745.969 857.156C870.031 855.792 989.071 815.306 1063.3 768.303C1122.57 730.739 1156.35 685.283 1171.18 641.747C1175.9 627.511 1179.58 613.457 1183.01 599.45C1196.03 542.626 1206.69 484.593 1263.76 423.86C1315.39 368.757 1424.79 308.545 1557.42 284.347C1668.22 263.997 1768.29 270.925 1876.33 266.802C2051.69 260.049 2227.39 223.382 2375.83 187.054C2392.52 182.993 2408.94 178.879 2425.36 174.765C2555.93 141.894 2683.7 108.398 2832.44 88.9742C2870.15 84.0513 2908.6 80.3171 2947.26 77.7646C3138.15 64.9222 3340.92 76.8945 3450.25 105.95" stroke="url(#paint25_linear_0_1)" stroke-width="2" stroke-miterlimit="10"/>
<path d="M-486.53 880.43C-354.644 823.158 -188.679 779.881 -27.6754 760.123C34.197 752.462 95.3434 748.281 153.633 747.649C246.931 746.531 332.958 754.311 403.034 770.387C490.122 790.266 562.683 823.471 656.109 838.272C682.822 842.396 711.406 844.972 743.296 845.035C864.986 845.409 980.996 809.012 1059.36 764.223C1123.11 727.699 1162.43 681.773 1181.41 637.504C1187.71 623.091 1192.68 608.711 1197.4 594.474C1216.14 536.642 1232.24 477.548 1292.96 416.273C1347.1 361.743 1455.6 302.502 1586.79 277.745C1696.7 256.843 1797.01 262.103 1904.76 257.829C2079.02 250.965 2251.45 218.529 2396.68 186.828C2412.93 183.252 2428.92 179.723 2445.15 176.049C2572.45 147.508 2696.75 118.586 2841.99 102.114C2878.76 97.9657 2916.52 94.8613 2954.46 92.7417C3142.02 82.3133 3345.6 92.8221 3457.43 116.26" stroke="url(#paint26_linear_0_1)" stroke-width="2" stroke-miterlimit="10"/>
<path d="M-487.226 874.967C-356.951 817.675 -192.39 774.036 -32.0967 753.286C29.4465 745.278 90.5235 740.702 148.709 739.48C242.128 737.528 328.535 744.429 400.032 759.442C488.505 778.061 562.694 809.862 655.392 825.096C681.603 829.41 709.944 832.13 740.847 832.672C859.905 834.831 973.683 802.482 1055.41 760.046C1123.64 724.659 1168.49 678.166 1191.65 633.262C1199.25 618.62 1205.77 603.965 1211.79 589.499C1236.23 530.561 1257.52 470.551 1322.14 408.588C1378.52 354.578 1486.4 296.361 1616.39 270.901C1725.41 249.545 1825.95 253.04 1933.4 248.614C2106.83 241.592 2275.73 213.435 2417.5 186.406C2433.32 183.414 2449.11 180.324 2464.65 177.28C2588.69 152.972 2709.5 128.623 2851.52 115.157C2887.62 111.737 2924.43 109.308 2961.65 107.72C3146.15 99.6594 3350.3 108.849 3464.86 126.524" stroke="url(#paint27_linear_0_1)" stroke-width="2" stroke-miterlimit="10"/>
<path d="M-488.163 869.651C-359.222 812.391 -196.358 768.239 -36.7585 746.596C24.7152 738.194 85.4455 733.172 143.562 731.555C237.119 728.869 323.889 734.791 396.546 748.787C486.405 766.147 562.481 796.498 654.192 812.211C680.143 816.571 707.739 819.625 738.192 820.652C854.878 824.549 966.162 796.296 1051.49 756.067C1124.21 721.819 1174.31 674.704 1201.9 629.121C1211.06 614.204 1218.88 599.319 1226.2 584.625C1256.09 524.724 1282.83 463.654 1351.36 401.102C1409.74 347.756 1517.23 290.418 1646.05 264.354C1754.42 242.401 1855.19 244.129 1962.12 239.795C2134.47 232.759 2300.08 208.737 2438.67 186.432C2454.03 183.926 2469.4 181.42 2484.76 178.914C2605.8 158.892 2722.88 139.162 2861.42 128.747C2896.58 126.101 2932.7 124.302 2969.46 123.1C3150.63 117.454 3355.61 125.279 3472.64 137.237" stroke="url(#paint28_linear_0_1)" stroke-width="2" stroke-miterlimit="10"/>
<path d="M-489.101 864.333C-361.511 807.007 -200.31 762.539 -41.421 739.904C19.7234 731.154 80.3842 725.738 138.673 723.583C232.092 720.109 319.503 725.106 393.319 738.085C484.563 754.185 562.267 783.132 653.251 799.278C678.7 803.828 706.054 807.026 735.52 808.533C849.833 814.168 958.885 789.964 1047.32 752.133C1124.79 718.977 1180.14 671.34 1211.89 625.023C1222.35 609.877 1231.49 594.862 1240.35 579.794C1275.94 518.787 1307.86 456.702 1380.31 393.562C1440.91 340.735 1547.79 284.422 1675.15 257.7C1782.62 235.195 1883.63 235.256 1990.26 230.771C2161.53 223.623 2323.87 203.832 2459.25 186.155C2474.44 184.187 2489.35 182.166 2504.27 180.146C2622.04 164.356 2735.65 149.299 2870.95 141.79C2905.18 139.917 2940.59 138.65 2976.63 137.98C3154.48 134.748 3360.03 141.253 3480.06 147.404" stroke="url(#paint29_linear_0_1)" stroke-width="2" stroke-miterlimit="10"/>
<path d="M-490.039 859.013C-363.801 801.62 -204.281 756.738 -46.085 733.21C14.7302 724.111 75.0444 718.249 133.507 715.556C227.046 711.248 314.838 715.365 389.832 727.426C482.721 742.221 562.052 769.763 652.05 786.388C677.238 790.984 703.864 794.615 732.846 796.41C844.509 803.731 951.622 783.727 1043.38 748.051C1125.61 716.086 1186.21 667.73 1222.15 620.877C1233.9 605.502 1244.6 590.212 1254.76 574.915C1295.81 512.946 1333.16 449.801 1409.53 386.072C1472.11 333.811 1578.6 278.377 1704.8 251.149C1811.39 228.19 1912.88 226.44 2018.96 221.849C2189.41 214.642 2347.92 198.979 2480.12 186.026C2494.86 184.543 2509.34 183.107 2523.82 181.671C2638.6 170.166 2748.47 159.728 2880.53 155.125C2914.09 153.982 2948.54 153.39 2983.88 153.251C3158.4 152.433 3364.77 157.475 3487.29 158.007" stroke="url(#paint30_linear_0_1)" stroke-width="2" stroke-miterlimit="10"/>
<path d="M-490.717 853.651C-366.089 796.237 -207.972 750.993 -50.4871 726.474C9.99877 717.027 70.2261 710.672 128.619 707.585C222.296 702.542 310.729 705.734 386.606 716.725C480.88 730.26 562.099 756.353 651.092 773.358C675.778 778.144 702.162 781.92 730.173 784.292C839.464 793.351 944.622 777.449 1039.21 744.118C1126.48 713.397 1191.78 664.413 1232.14 616.781C1245.47 601.23 1257.45 585.612 1268.91 570.086C1315.66 507.011 1358.19 442.851 1438.73 378.487C1503.28 326.792 1609.41 272.336 1734.17 244.549C1840.13 220.993 1941.58 217.522 2047.4 212.978C2216.76 205.658 2372 194.227 2501 185.901C2515.3 185.002 2529.59 184.006 2543.64 183.153C2655.14 175.881 2761.55 170.115 2890.12 168.465C2922.74 168.095 2956.5 168.133 2991.37 168.382C3162.83 169.932 3369.76 173.655 3495 168.326" stroke="url(#paint31_linear_0_1)" stroke-width="2" stroke-miterlimit="10"/>
<path d="M-491.655 848.332C-368.362 790.951 -211.943 745.194 -55.1509 719.781C5.0057 709.986 65.1637 703.237 123.712 699.514C217.51 693.637 306.324 695.95 383.361 705.924C479.02 718.199 562.127 742.842 650.132 760.326C674.559 765.158 700.198 769.268 727.482 772.073C834.418 782.969 937.637 771.267 1035.25 739.941C1127.57 710.462 1197.82 660.707 1242.62 612.395C1257.25 596.614 1270.79 580.722 1283.55 564.967C1335.75 500.929 1383.46 435.754 1468.17 370.756C1534.7 319.627 1640.45 266.05 1764.03 237.658C1869.08 213.55 1970.78 208.413 2076.31 203.717C2244.59 196.383 2396.54 189.087 2522.08 185.432C2536.19 184.974 2549.79 184.607 2563.65 184.194C2671.9 181.253 2774.83 180.061 2900.17 181.416C2932.11 181.774 2964.92 182.488 2999.08 183.268C3167.22 187.232 3374.98 189.59 3502.96 178.499" stroke="url(#paint32_linear_0_1)" stroke-width="2" stroke-miterlimit="10"/>
<path d="M-492.61 842.917C-370.668 785.469 -215.912 739.396 -59.8304 712.992C-0.00309648 702.849 60.068 695.608 118.547 691.49C212.206 684.825 301.66 686.213 379.857 695.17C476.92 706.284 561.896 729.379 648.914 747.342C673.099 752.318 698.235 756.618 724.792 759.856C829.096 772.536 930.637 764.989 1031.06 735.909C1128.42 707.674 1203.64 657.245 1252.61 608.298C1268.8 592.243 1283.64 576.122 1297.7 560.137C1355.6 494.994 1408.23 428.85 1497.12 363.217C1565.62 312.653 1671.01 260.054 1793.15 231.104C1897.56 206.398 1999.5 199.593 2104.23 194.936C2271.68 187.445 2420.1 184.427 2542.45 185.497C2556.13 185.623 2569.54 185.696 2582.71 185.913C2687.94 187.158 2786.89 190.73 2908.99 194.991C2940 196.124 2972.1 197.369 3005.55 198.68C3170.36 205.059 3378.96 206.051 3509.4 189.244" stroke="url(#paint33_linear_0_1)" stroke-width="2" stroke-miterlimit="10"/>
<path d="M-493.288 837.552C-372.697 780.037 -219.621 733.55 -64.2334 706.252C-4.4755 695.715 55.2664 688.126 113.658 683.516C207.456 676.116 297.273 676.526 376.631 684.466C475.338 694.275 561.942 715.966 647.973 734.407C671.638 739.474 696.307 744.162 722.137 747.832C824.068 762.251 923.705 759.101 1027.14 731.927C1129.32 705.178 1209.46 653.78 1262.86 604.153C1280.35 587.869 1296.51 571.617 1312.37 555.213C1375.72 489.108 1433.5 421.752 1526.59 355.682C1597.08 305.683 1702.08 253.964 1823.05 224.409C1926.55 199.152 2028.74 190.679 2133.17 185.871C2299.53 178.267 2444.66 179.383 2563.56 185.224C2576.8 185.836 2589.79 186.591 2602.77 187.248C2704.74 192.824 2800.21 200.97 2919.08 208.137C2949.15 210.044 2980.56 211.919 3013.28 213.664C3174.77 222.456 3384.18 221.985 3517.38 199.513" stroke="url(#paint34_linear_0_1)" stroke-width="2" stroke-miterlimit="10"/>
<path d="M-494.226 832.234C-375.245 774.699 -223.573 727.85 -68.8958 699.561C-9.46722 688.675 50.1878 680.594 108.753 675.446C202.671 667.212 292.869 666.742 373.387 673.666C473.479 682.214 561.971 702.456 647.015 721.375C670.437 726.587 694.604 731.465 719.706 735.568C819.005 751.771 916.739 753.019 1023.47 727.802C1130.72 702.494 1215.8 650.226 1273.36 599.866C1292.15 583.352 1309.86 566.825 1327.02 550.193C1396.07 482.981 1458.77 414.656 1556.04 347.952C1628.22 298.466 1733.12 247.679 1852.93 217.618C1955.53 191.808 2058.2 181.524 2162.1 176.71C2327.64 169.046 2469.22 174.342 2584.92 184.81C2597.72 186.005 2610.53 187.2 2622.79 188.388C2721.78 198.25 2813.5 211.015 2929.14 221.089C2958.53 223.724 2988.99 226.275 3021.26 228.504C3179.68 239.665 3389.66 237.875 3525.33 209.687" stroke="url(#paint35_linear_0_1)" stroke-width="2" stroke-miterlimit="10"/>
<path d="M-495.163 826.916C-377.534 769.315 -227.542 722.051 -73.558 692.868C-14.4587 681.635 45.1268 673.159 103.605 667.519C197.644 658.452 288.483 657.057 369.901 663.009C471.379 670.298 561.758 689.089 645.815 708.488C668.977 713.746 692.399 718.958 716.774 723.494C813.441 741.481 909.288 747.225 1019.02 723.815C1131.08 699.993 1221.36 646.808 1283.08 595.715C1303.44 579.026 1322.44 562.171 1340.89 545.31C1415.39 477.037 1482.98 407.645 1584.72 340.457C1658.62 291.583 1763.4 241.629 1881.78 211.108C1983.49 184.747 2086.39 172.795 2190.02 167.928C2354.47 160.152 2492.78 169.68 2605.02 184.82C2617.63 186.455 2629.74 188.28 2641.83 190.007C2737.54 204.101 2825.79 221.44 2937.96 234.663C2966.4 237.974 2996.16 241.154 3027.73 243.915C3182.8 257.391 3393.63 254.335 3532.04 220.384" stroke="url(#paint36_linear_0_1)" stroke-width="2" stroke-miterlimit="10"/>
<path d="M-496.101 821.599C-379.806 764.03 -231.494 716.352 -78.2209 686.178C-19.4509 674.596 40.0478 665.628 98.7162 659.548C192.634 649.791 284.113 647.471 366.674 652.308C469.537 658.337 561.804 675.679 644.873 695.556C667.534 701.004 690.471 706.504 714.378 711.428C808.672 731.153 902.357 741.34 1015.38 719.889C1132.54 697.605 1227.46 643.399 1293.62 591.724C1315.29 574.806 1335.84 557.676 1355.6 540.586C1435.81 471.305 1508.3 400.845 1614.22 333.023C1690.07 284.616 1794.49 235.641 1911.69 204.515C2012.76 177.556 2115.65 163.983 2218.97 158.964C2382.36 151.175 2517.37 164.837 2626.41 184.603C2638.59 186.822 2650.51 189.087 2662.17 191.398C2754.62 209.822 2839.39 231.735 2948.32 247.865C2976.09 251.904 3005.16 255.714 3035.75 259.053C3187.5 274.943 3399.17 270.521 3540.05 230.854" stroke="url(#paint37_linear_0_1)" stroke-width="2" stroke-miterlimit="10"/>
<path d="M-496.779 816.234C-381.834 758.598 -235.203 710.505 -82.8831 679.484C-24.4423 667.555 34.9694 658.094 93.5511 651.522C187.59 640.931 279.45 637.731 363.171 641.551C467.419 646.321 561.296 662.16 643.656 682.569C666.056 688.062 688.508 693.852 711.428 699.254C803.108 720.862 894.801 733.431 1010.92 715.9C1132.78 697.46 1233.02 639.98 1303.34 587.573C1326.56 570.379 1348.16 553.066 1369.47 535.701C1455.12 465.36 1532.5 393.734 1643.16 325.481C1720.71 277.587 1825.04 229.642 1940.81 197.958C2040.97 170.447 2144.35 155.062 2247.16 150.135C2409.71 142.188 2541.19 160.128 2646.76 184.567C2658.49 187.271 2669.98 190.12 2681.19 192.916C2770.63 215.528 2851.68 242.159 2957.11 261.241C2983.95 266.054 3012.32 270.494 3042.45 274.219C3190.87 292.523 3403.37 286.737 3546.98 241.308" stroke="url(#paint38_linear_0_1)" stroke-width="2" stroke-miterlimit="10"/>
<path d="M-497.734 810.818C-384.401 753.162 -239.173 704.707 -87.5633 672.694C-29.4518 660.416 29.8907 650.562 88.3855 643.497C182.563 632.171 274.786 627.994 359.667 630.797C465.56 634.261 561.065 648.696 642.437 669.583C664.335 675.267 686.286 681.246 708.478 687.081C797.526 710.474 887.177 729.698 1006.71 711.769C1133.3 692.799 1238.8 636.321 1313.56 583.233C1338.08 565.81 1361.23 548.222 1383.85 530.628C1475.21 459.279 1557.22 386.533 1672.35 317.797C1751.59 270.416 1855.84 223.502 1970.41 191.114C2069.93 163.005 2173.29 145.999 2275.8 140.921C2437.28 132.96 2565.46 154.936 2667.86 184.198C2679.16 187.486 2690.45 190.775 2701.23 194.155C2787.42 221.097 2864.99 252.302 2967.18 274.29C2993.08 279.878 3020.76 284.948 3050.16 289.106C3195.26 309.824 3408.31 302.62 3554.68 251.527" stroke="url(#paint39_linear_0_1)" stroke-width="2" stroke-miterlimit="10"/>
<path d="M-498.671 805.5C-386.689 747.778 -243.142 698.909 -92.2254 666.003C-34.1834 653.331 24.8125 643.03 83.4803 635.427C177.519 623.313 270.382 618.21 356.423 619.997C463.702 622.201 561.094 635.187 641.48 656.552C663.118 662.282 684.341 668.694 706.066 674.916C792.498 700.191 879.987 723.859 1002.8 707.789C1133.97 690.549 1244.64 632.957 1323.83 579.188C1349.65 561.537 1374.38 543.773 1398.28 525.851C1495.08 453.441 1581.97 379.53 1701.57 310.31C1782.51 263.442 1886.65 217.46 1999.81 184.612C2098.43 155.951 2202.28 137.232 2304.24 132.048C2464.63 123.975 2589.53 150.184 2688.48 184.118C2699.58 187.846 2710.18 191.764 2720.79 195.683C2803.97 226.812 2877.81 262.735 2976.77 287.629C3001.99 293.945 3028.7 299.592 3057.41 304.38C3199.45 327.467 3413.06 318.943 3562.17 262.088" stroke="url(#paint40_linear_0_1)" stroke-width="2" stroke-miterlimit="10"/>
<path d="M-499.349 800.137C-346.27 720.241 -133.024 656.442 78.5918 627.455C290.19 598.37 497.525 604.357 640.539 643.62C747.535 673.088 841.045 721.79 998.862 703.711C1134.37 688.245 1250.7 629.35 1334.06 574.947C1471.95 484.835 1575.98 389.624 1730.77 302.724C1885.82 215.779 2114.68 134.198 2332.92 123.031C2510.27 113.897 2640.32 152.601 2740.59 197.066C2840.85 241.531 2926.17 293.911 3064.9 319.51C3203.63 345.109 3418.06 335.122 3569.9 272.504" stroke="url(#paint41_linear_0_1)" stroke-width="2" stroke-miterlimit="10"/>
<defs>
<linearGradient id="paint0_linear_0_1" x1="1579.42" y1="396.976" x2="1640.84" y2="745.339" gradientUnits="userSpaceOnUse">
<stop stop-color="#71ACBD"/>
<stop offset="1" stop-color="#71ACBD" stop-opacity="0"/>
</linearGradient>
<linearGradient id="paint1_linear_0_1" x1="1572.48" y1="393.311" x2="1632.78" y2="735.279" gradientUnits="userSpaceOnUse">
<stop stop-color="#71ACBD"/>
<stop offset="1" stop-color="#71ACBD" stop-opacity="0"/>
</linearGradient>
<linearGradient id="paint2_linear_0_1" x1="1565.89" y1="389.365" x2="1625.11" y2="725.237" gradientUnits="userSpaceOnUse">
<stop stop-color="#71ACBD"/>
<stop offset="1" stop-color="#71ACBD" stop-opacity="0"/>
</linearGradient>
<linearGradient id="paint3_linear_0_1" x1="1558.92" y1="385.557" x2="1617.07" y2="715.309" gradientUnits="userSpaceOnUse">
<stop stop-color="#71ACBD"/>
<stop offset="1" stop-color="#71ACBD" stop-opacity="0"/>
</linearGradient>
<linearGradient id="paint4_linear_0_1" x1="1551.75" y1="381.337" x2="1608.88" y2="705.338" gradientUnits="userSpaceOnUse">
<stop stop-color="#71ACBD"/>
<stop offset="1" stop-color="#71ACBD" stop-opacity="0"/>
</linearGradient>
<linearGradient id="paint5_linear_0_1" x1="1545.26" y1="377.228" x2="1601.37" y2="695.431" gradientUnits="userSpaceOnUse">
<stop stop-color="#71ACBD"/>
<stop offset="1" stop-color="#71ACBD" stop-opacity="0"/>
</linearGradient>
<linearGradient id="paint6_linear_0_1" x1="1538.29" y1="372.609" x2="1593.55" y2="686.035" gradientUnits="userSpaceOnUse">
<stop stop-color="#71ACBD"/>
<stop offset="1" stop-color="#71ACBD" stop-opacity="0"/>
</linearGradient>
<linearGradient id="paint7_linear_0_1" x1="1531.1" y1="368.316" x2="1585.67" y2="677.818" gradientUnits="userSpaceOnUse">
<stop stop-color="#71ACBD"/>
<stop offset="1" stop-color="#71ACBD" stop-opacity="0"/>
</linearGradient>
<linearGradient id="paint8_linear_0_1" x1="1524.15" y1="363.086" x2="1578.33" y2="670.362" gradientUnits="userSpaceOnUse">
<stop stop-color="#71ACBD"/>
<stop offset="1" stop-color="#71ACBD" stop-opacity="0"/>
</linearGradient>
<linearGradient id="paint9_linear_0_1" x1="1517.23" y1="358" x2="1573.42" y2="676.703" gradientUnits="userSpaceOnUse">
<stop stop-color="#71ACBD"/>
<stop offset="1" stop-color="#71ACBD" stop-opacity="0"/>
</linearGradient>
<linearGradient id="paint10_linear_0_1" x1="1509.65" y1="352.276" x2="1568.18" y2="684.225" gradientUnits="userSpaceOnUse">
<stop stop-color="#71ACBD"/>
<stop offset="1" stop-color="#71ACBD" stop-opacity="0"/>
</linearGradient>
<linearGradient id="paint11_linear_0_1" x1="1502.79" y1="346.002" x2="1563.87" y2="692.442" gradientUnits="userSpaceOnUse">
<stop stop-color="#71ACBD"/>
<stop offset="1" stop-color="#71ACBD" stop-opacity="0"/>
</linearGradient>
<linearGradient id="paint12_linear_0_1" x1="1495.45" y1="339.311" x2="1559.24" y2="701.11" gradientUnits="userSpaceOnUse">
<stop stop-color="#71ACBD"/>
<stop offset="1" stop-color="#71ACBD" stop-opacity="0"/>
</linearGradient>
<linearGradient id="paint13_linear_0_1" x1="1487.97" y1="331.834" x2="1554.66" y2="710.046" gradientUnits="userSpaceOnUse">
<stop stop-color="#71ACBD"/>
<stop offset="1" stop-color="#71ACBD" stop-opacity="0"/>
</linearGradient>
<linearGradient id="paint14_linear_0_1" x1="1480.32" y1="324.167" x2="1549.98" y2="719.254" gradientUnits="userSpaceOnUse">
<stop stop-color="#71ACBD"/>
<stop offset="1" stop-color="#71ACBD" stop-opacity="0"/>
</linearGradient>
<linearGradient id="paint15_linear_0_1" x1="1472.69" y1="315.836" x2="1545.5" y2="728.798" gradientUnits="userSpaceOnUse">
<stop stop-color="#71ACBD"/>
<stop offset="1" stop-color="#71ACBD" stop-opacity="0"/>
</linearGradient>
<linearGradient id="paint16_linear_0_1" x1="1464.87" y1="307.185" x2="1540.87" y2="738.193" gradientUnits="userSpaceOnUse">
<stop stop-color="#71ACBD"/>
<stop offset="1" stop-color="#71ACBD" stop-opacity="0"/>
</linearGradient>
<linearGradient id="paint17_linear_0_1" x1="1457.21" y1="297.943" x2="1536.51" y2="747.65" gradientUnits="userSpaceOnUse">
<stop stop-color="#71ACBD"/>
<stop offset="1" stop-color="#71ACBD" stop-opacity="0"/>
</linearGradient>
<linearGradient id="paint18_linear_0_1" x1="1450" y1="288.945" x2="1532.56" y2="757.205" gradientUnits="userSpaceOnUse">
<stop stop-color="#71ACBD"/>
<stop offset="1" stop-color="#71ACBD" stop-opacity="0"/>
</linearGradient>
<linearGradient id="paint19_linear_0_1" x1="1441.95" y1="279.782" x2="1527.86" y2="767.018" gradientUnits="userSpaceOnUse">
<stop stop-color="#71ACBD"/>
<stop offset="1" stop-color="#71ACBD" stop-opacity="0"/>
</linearGradient>
<linearGradient id="paint20_linear_0_1" x1="1434.43" y1="270.545" x2="1523.7" y2="776.783" gradientUnits="userSpaceOnUse">
<stop stop-color="#71ACBD"/>
<stop offset="1" stop-color="#71ACBD" stop-opacity="0"/>
</linearGradient>
<linearGradient id="paint21_linear_0_1" x1="1431.86" y1="275.721" x2="1519.85" y2="774.733" gradientUnits="userSpaceOnUse">
<stop stop-color="#71ACBD"/>
<stop offset="1" stop-color="#71ACBD" stop-opacity="0"/>
</linearGradient>
<linearGradient id="paint22_linear_0_1" x1="1437.03" y1="289.833" x2="1520.45" y2="762.952" gradientUnits="userSpaceOnUse">
<stop stop-color="#71ACBD"/>
<stop offset="1" stop-color="#71ACBD" stop-opacity="0"/>
</linearGradient>
<linearGradient id="paint23_linear_0_1" x1="1442.59" y1="303.923" x2="1521.46" y2="751.209" gradientUnits="userSpaceOnUse">
<stop stop-color="#71ACBD"/>
<stop offset="1" stop-color="#71ACBD" stop-opacity="0"/>
</linearGradient>
<linearGradient id="paint24_linear_0_1" x1="1445.53" y1="305.395" x2="1522.12" y2="739.749" gradientUnits="userSpaceOnUse">
<stop stop-color="#71ACBD"/>
<stop offset="1" stop-color="#71ACBD" stop-opacity="0"/>
</linearGradient>
<linearGradient id="paint25_linear_0_1" x1="1448.42" y1="303.547" x2="1523.35" y2="728.466" gradientUnits="userSpaceOnUse">
<stop stop-color="#71ACBD"/>
<stop offset="1" stop-color="#71ACBD" stop-opacity="0"/>
</linearGradient>
<linearGradient id="paint26_linear_0_1" x1="1450.77" y1="301.658" x2="1524.08" y2="717.461" gradientUnits="userSpaceOnUse">
<stop stop-color="#71ACBD"/>
<stop offset="1" stop-color="#71ACBD" stop-opacity="0"/>
</linearGradient>
<linearGradient id="paint27_linear_0_1" x1="1453.33" y1="299.504" x2="1525.1" y2="706.532" gradientUnits="userSpaceOnUse">
<stop stop-color="#71ACBD"/>
<stop offset="1" stop-color="#71ACBD" stop-opacity="0"/>
</linearGradient>
<linearGradient id="paint28_linear_0_1" x1="1455.94" y1="297.595" x2="1526.24" y2="696.247" gradientUnits="userSpaceOnUse">
<stop stop-color="#71ACBD"/>
<stop offset="1" stop-color="#71ACBD" stop-opacity="0"/>
</linearGradient>
<linearGradient id="paint29_linear_0_1" x1="1458.38" y1="295.464" x2="1527.3" y2="686.301" gradientUnits="userSpaceOnUse">
<stop stop-color="#71ACBD"/>
<stop offset="1" stop-color="#71ACBD" stop-opacity="0"/>
</linearGradient>
<linearGradient id="paint30_linear_0_1" x1="1460.72" y1="293.52" x2="1528.31" y2="676.844" gradientUnits="userSpaceOnUse">
<stop stop-color="#71ACBD"/>
<stop offset="1" stop-color="#71ACBD" stop-opacity="0"/>
</linearGradient>
<linearGradient id="paint31_linear_0_1" x1="1463.41" y1="291.325" x2="1529.81" y2="667.926" gradientUnits="userSpaceOnUse">
<stop stop-color="#71ACBD"/>
<stop offset="1" stop-color="#71ACBD" stop-opacity="0"/>
</linearGradient>
<linearGradient id="paint32_linear_0_1" x1="1466.05" y1="288.859" x2="1531.43" y2="659.598" gradientUnits="userSpaceOnUse">
<stop stop-color="#71ACBD"/>
<stop offset="1" stop-color="#71ACBD" stop-opacity="0"/>
</linearGradient>
<linearGradient id="paint33_linear_0_1" x1="1467.94" y1="286.647" x2="1532.36" y2="651.998" gradientUnits="userSpaceOnUse">
<stop stop-color="#71ACBD"/>
<stop offset="1" stop-color="#71ACBD" stop-opacity="0"/>
</linearGradient>
<linearGradient id="paint34_linear_0_1" x1="1470.72" y1="284.174" x2="1534.36" y2="645.094" gradientUnits="userSpaceOnUse">
<stop stop-color="#71ACBD"/>
<stop offset="1" stop-color="#71ACBD" stop-opacity="0"/>
</linearGradient>
<linearGradient id="paint35_linear_0_1" x1="1473.33" y1="281.503" x2="1536.3" y2="638.631" gradientUnits="userSpaceOnUse">
<stop stop-color="#71ACBD"/>
<stop offset="1" stop-color="#71ACBD" stop-opacity="0"/>
</linearGradient>
<linearGradient id="paint36_linear_0_1" x1="1475.29" y1="278.94" x2="1537.69" y2="632.828" gradientUnits="userSpaceOnUse">
<stop stop-color="#71ACBD"/>
<stop offset="1" stop-color="#71ACBD" stop-opacity="0"/>
</linearGradient>
<linearGradient id="paint37_linear_0_1" x1="1477.89" y1="276.228" x2="1539.83" y2="627.476" gradientUnits="userSpaceOnUse">
<stop stop-color="#71ACBD"/>
<stop offset="1" stop-color="#71ACBD" stop-opacity="0"/>
</linearGradient>
<linearGradient id="paint38_linear_0_1" x1="1480.06" y1="273.324" x2="1541.63" y2="622.487" gradientUnits="userSpaceOnUse">
<stop stop-color="#71ACBD"/>
<stop offset="1" stop-color="#71ACBD" stop-opacity="0"/>
</linearGradient>
<linearGradient id="paint39_linear_0_1" x1="1482.43" y1="270.057" x2="1543.66" y2="617.297" gradientUnits="userSpaceOnUse">
<stop stop-color="#71ACBD"/>
<stop offset="1" stop-color="#71ACBD" stop-opacity="0"/>
</linearGradient>
<linearGradient id="paint40_linear_0_1" x1="1484.7" y1="266.971" x2="1548.65" y2="629.651" gradientUnits="userSpaceOnUse">
<stop stop-color="#71ACBD"/>
<stop offset="1" stop-color="#71ACBD" stop-opacity="0"/>
</linearGradient>
<linearGradient id="paint41_linear_0_1" x1="1487.18" y1="263.547" x2="1554.28" y2="644.127" gradientUnits="userSpaceOnUse">
<stop stop-color="#71ACBD"/>
<stop offset="1" stop-color="#71ACBD" stop-opacity="0"/>
</linearGradient>
</defs>
</svg>
