<svg width="1353" height="1450" viewBox="0 0 1353 1450" fill="none" xmlns="http://www.w3.org/2000/svg">
<path d="M1088.16 1411C1048.26 1401.34 1028.5 1357.67 1026.6 1318.77C1024.83 1279.74 1034.91 1240.45 1028.23 1201.93C1012.16 1109.44 914.09 1061.39 824.328 1049.54C784.147 1044.26 754.454 1043.1 714.272 1049.54C667.825 1057.01 620.969 1063.2 573.705 1064.48C506.01 1066.42 437.088 1058.17 375.522 1031.51C279.904 990.156 207.986 897.022 205.125 796.416C201.448 666.569 295.568 544.579 278.542 415.634C265.738 318.764 189.461 236.836 97.6568 192.137C5.85237 147.438 -99.709 135.2 -202.955 133.525" stroke="#F55A49" stroke-miterlimit="10"/>
<path d="M1098.38 1400.82C1059.15 1390.26 1039.4 1346.98 1036.68 1308.33C1033.95 1269.69 1042.67 1230.78 1035.04 1192.78C1020.47 1119.36 954.408 1074.14 882.217 1053.27C864.783 1048.25 846.939 1044.64 829.368 1042.33C789.323 1037.17 759.357 1036.27 719.312 1042.84C672.865 1050.44 626.145 1056.5 579.017 1058.81C507.78 1062.29 435.726 1059.07 369.801 1033.82C362.174 1030.86 354.682 1027.64 347.191 1024.03C311.368 1006.64 278.95 981.524 254.16 950.995C235.091 927.421 220.653 900.756 211.527 873.189C202.265 845.494 198.86 816.768 199.405 787.526C201.312 681.124 263.695 580.26 276.907 475.919C279.495 455.179 280.04 434.311 277.725 413.185C267.918 327.522 208.667 253.195 132.39 205.79C123.537 200.251 114.411 195.098 105.012 190.332C15.7958 144.731 -88.6759 130.819 -190.832 129.66" stroke="#F55A49" stroke-miterlimit="10"/>
<path d="M1108.46 1390.78C1070.05 1379.31 1050.16 1336.41 1046.62 1298.03C1043.08 1259.64 1050.16 1221.12 1041.72 1183.64C1025.51 1111.24 959.448 1066.42 887.258 1045.8C869.687 1040.78 851.98 1037.3 834.409 1035.11C794.5 1030.09 764.261 1029.44 724.352 1036.01C678.042 1043.61 631.322 1049.8 584.33 1053.02C509.552 1058.04 434.365 1059.72 364.218 1035.89C356.045 1033.05 348.009 1029.96 340.109 1026.48C301.834 1009.48 266.692 983.328 241.358 950.609C221.744 925.361 208.123 896.764 200.495 867.522C192.731 838.281 192.05 808.395 193.957 778.252C200.495 674.04 260.699 574.851 275.273 472.055C278.134 451.573 279.087 431.091 277.044 410.223C269.008 325.719 212.89 251.65 139.065 203.601C130.484 198.062 121.63 192.78 112.504 187.885C25.7397 141.383 -77.3699 125.796 -178.573 125.281" stroke="#F55A49" stroke-miterlimit="10"/>
<path d="M1118.68 1380.6C1081.08 1368.23 1061.06 1325.72 1056.56 1287.72C1052.07 1249.59 1057.79 1211.46 1048.39 1174.49C1030.41 1103.13 964.487 1058.69 892.161 1038.46C874.59 1033.57 856.747 1030.09 839.312 1027.9C799.539 1023 769.028 1022.62 729.256 1029.19C682.945 1036.92 636.362 1043.1 589.506 1047.09C511.186 1053.79 432.866 1060.36 358.496 1037.95C349.915 1035.37 341.334 1032.28 332.889 1028.93C292.027 1012.31 254.297 985.132 228.281 950.223C208.122 923.3 195.319 892.642 189.053 861.855C182.788 831.068 184.831 800.152 188.236 768.978C198.996 666.955 257.294 569.441 273.503 468.191C276.635 448.096 277.861 427.743 276.363 407.261C270.097 323.917 217.112 250.233 145.603 201.541C137.294 195.873 128.713 190.591 119.859 185.568C35.6827 138.034 -66.3373 120.902 -166.45 120.902" stroke="#F55A49" stroke-miterlimit="10"/>
<path d="M1128.75 1370.42C1091.98 1357.02 1071.82 1315.03 1066.51 1277.29C1061.2 1239.54 1065.42 1201.8 1055.07 1165.22C1035.45 1094.88 969.527 1050.83 897.201 1030.86C879.63 1025.97 861.787 1022.62 844.352 1020.56C804.579 1015.92 773.932 1015.53 734.432 1022.23C688.121 1030.09 641.674 1036.4 594.954 1041.17C513.093 1049.54 431.64 1061 353.048 1039.88C343.922 1037.43 334.933 1034.47 325.943 1031.12C282.629 1014.89 242.311 986.677 215.614 949.578C194.91 920.981 182.924 888.261 178.157 855.928C173.39 823.595 178.157 791.777 182.924 759.444C197.635 659.612 254.433 563.772 272.004 464.068C275.409 444.23 277.044 424.264 275.954 404.039C271.459 321.854 221.471 248.429 152.55 199.092C144.513 193.295 136.205 187.885 127.623 182.861C45.8984 134.426 -54.8957 115.619 -153.919 116.134" stroke="#F55A49" stroke-miterlimit="10"/>
<path d="M1138.97 1360.37C1102.88 1346.07 1082.72 1304.47 1076.45 1267.11C1070.18 1229.62 1072.91 1192.27 1061.74 1156.2C1040.36 1087.02 974.567 1043.23 902.104 1023.65C884.533 1018.88 866.69 1015.53 849.119 1013.6C809.482 1009.09 778.563 1008.96 739.199 1015.66C693.024 1023.52 646.441 1030.09 599.994 1035.63C514.455 1045.8 430.006 1062.03 347.055 1042.32C337.52 1040.01 327.85 1037.3 318.451 1033.95C272.685 1018.11 229.643 988.866 202.265 949.706C181.153 919.434 169.848 884.782 166.579 850.774C163.31 816.896 170.665 784.176 176.931 750.684C195.183 653.17 250.892 558.876 269.825 460.718C273.502 441.266 275.545 421.557 274.728 401.591C271.868 320.565 225.148 247.526 158.679 197.545C150.915 191.748 142.879 186.209 134.57 181.057C55.2967 131.72 -44.1355 111.367 -142.206 112.397" stroke="#F55A49" stroke-miterlimit="10"/>
<path d="M1149.05 1350.2C1113.77 1335 1093.48 1293.78 1086.39 1256.68C1079.17 1219.45 1080.54 1182.61 1068.41 1147.06C1045.26 1078.91 979.607 1035.63 907.008 1016.18C889.437 1011.41 871.593 1008.19 854.023 1006.26C814.522 1001.88 783.33 1002.01 744.102 1008.71C697.928 1016.69 651.481 1023.39 605.034 1029.7C515.953 1041.68 428.371 1062.55 341.198 1044.26C331.119 1042.07 321.039 1039.49 311.096 1036.27C262.742 1020.69 217.112 990.543 189.19 949.193C167.533 917.246 157.044 880.534 155.274 844.98C153.503 809.427 163.446 775.935 171.346 741.283C192.867 646.216 247.623 553.339 268.191 456.727C272.277 437.533 274.456 418.211 274.184 398.502C273.094 318.507 229.371 245.854 165.489 195.358C157.998 189.432 150.234 183.893 142.198 178.612C65.5125 128.373 -32.8299 106.346 -129.674 107.891" stroke="#F55A49" stroke-miterlimit="10"/>
<path d="M1159.27 1340.15C1124.8 1324.05 1104.37 1283.34 1096.34 1246.5C1088.3 1209.66 1088.16 1173.08 1075.09 1138.04C1050.3 1070.92 984.646 1028.03 912.047 1008.83C894.34 1004.2 876.633 1000.98 859.062 999.173C819.698 994.922 788.234 995.308 749.142 1002.01C703.103 1010.12 656.656 1017.08 610.346 1023.91C517.724 1037.69 427.009 1063.32 335.613 1046.45C324.989 1044.52 314.501 1041.94 304.013 1038.85C253.207 1023.65 204.99 992.474 176.25 948.934C154.048 915.313 144.377 876.539 144.104 839.569C143.696 802.47 156.227 768.076 165.761 732.265C190.279 639.517 244.49 548.186 266.419 453.248C270.778 434.441 273.366 415.376 273.502 396.053C274.183 317.217 233.593 244.951 172.163 193.682C164.944 187.757 157.453 182.089 149.825 176.678C75.5916 125.538 -21.5249 101.836 -117.279 103.897" stroke="#F55A49" stroke-miterlimit="10"/>
<path d="M1169.34 1329.97C1135.7 1312.97 1115.13 1272.65 1106.28 1236.07C1097.29 1199.48 1095.66 1163.28 1081.9 1128.76C1055.47 1062.68 989.822 1020.17 917.086 1001.36C899.379 996.724 881.536 993.632 864.101 991.829C824.873 987.707 793.137 988.222 754.317 995.178C708.279 1003.29 661.968 1010.64 615.793 1018.11C519.494 1033.82 425.783 1064.1 330.165 1048.51C319.132 1046.7 308.099 1044.26 296.93 1041.29C243.672 1026.48 192.73 994.276 163.309 948.675C140.563 913.38 131.709 872.545 132.935 834.029C134.024 795.384 149.007 760.088 160.176 723.117C187.418 632.688 241.357 542.903 264.648 449.511C269.279 430.961 272.14 412.283 272.685 393.218C275.136 315.542 237.679 243.533 178.565 191.749C171.618 185.694 164.535 179.898 157.044 174.487C85.3982 122.316 -10.4926 97.0684 -105.294 99.7735" stroke="#F55A49" stroke-miterlimit="10"/>
<path d="M1179.56 1319.79C1146.73 1301.89 1126.03 1261.96 1116.22 1225.76C1106.42 1189.43 1103.28 1153.75 1088.57 1119.61C1060.38 1054.56 994.862 1012.44 922.126 993.889C904.419 989.38 886.576 986.289 869.005 984.614C829.777 980.621 797.904 981.394 759.221 988.35C713.319 996.594 667.008 1004.19 620.97 1012.31C521.129 1029.96 424.285 1064.74 324.308 1050.57C312.73 1048.89 301.152 1046.57 289.575 1043.61C233.865 1029.18 180.336 995.95 150.234 948.159C127.078 911.317 118.906 868.421 121.63 828.231C124.218 788.04 141.652 751.842 154.592 713.713C184.422 625.602 238.088 537.362 263.014 445.516C267.918 427.353 271.187 408.803 272.14 390.125C276.226 313.608 241.902 241.986 185.375 189.429C178.837 183.246 171.891 177.449 164.672 171.91C95.4778 118.837 0.813021 91.9145 -92.8983 95.1349" stroke="#F55A49" stroke-miterlimit="10"/>
<path d="M1189.64 1309.75C1157.49 1290.94 1136.79 1251.4 1126.17 1215.46C1115.41 1179.52 1110.91 1144.09 1095.25 1110.47C1065.42 1046.45 999.901 1004.71 927.029 986.42C909.322 982.04 891.479 978.949 873.908 977.274C834.816 973.538 802.535 974.44 764.124 981.396C718.222 989.641 672.047 997.627 626.145 1006.39C522.763 1025.97 422.922 1065.38 318.587 1052.63C306.6 1051.09 294.478 1049.03 282.355 1046.06C224.058 1032.02 167.94 997.756 137.157 947.775C113.457 909.259 106.102 864.302 110.188 822.565C114.274 780.829 134.024 743.73 148.735 704.44C180.88 618.52 234.682 531.955 260.971 441.654C266.146 423.749 269.688 405.586 271.05 387.165C276.907 311.807 245.715 240.443 191.64 187.37C185.375 181.187 178.701 175.262 171.754 169.594C105.012 115.62 11.5731 87.0222 -81.0486 90.7578" stroke="#F55A49" stroke-miterlimit="10"/>
<path d="M1199.85 1299.57C1168.53 1279.86 1147.69 1240.7 1136.25 1205.02C1124.67 1169.34 1118.54 1134.3 1102.06 1101.19C1070.59 1038.2 1005.08 996.853 932.206 978.948C914.499 974.568 896.655 971.605 879.084 970.059C840.129 966.452 807.575 967.612 769.3 974.568C723.398 982.941 677.36 991.185 631.457 1000.46C524.398 1022.1 421.561 1066.03 313.002 1054.56C300.471 1053.27 287.94 1051.21 275.273 1048.38C214.524 1034.73 155.682 999.429 124.354 947.388C100.109 907.197 93.5708 860.179 99.1554 816.896C104.74 773.614 126.669 735.613 143.287 695.165C177.611 611.563 231.686 526.544 259.336 437.789C264.785 420.27 268.735 402.364 270.505 384.201C278.133 309.874 249.938 239.025 198.451 185.308C192.458 178.996 186.056 173.071 179.382 167.274C115.228 112.398 23.0148 82.255 -68.6534 86.5059" stroke="#F55A49" stroke-miterlimit="10"/>
<path d="M1209.94 1289.4C1179.42 1268.79 1158.58 1230.01 1146.05 1194.72C1133.52 1159.29 1126.03 1124.77 1108.6 1092.18C1075.5 1030.22 1009.98 989.254 936.974 971.606C919.13 967.355 901.423 964.521 883.852 962.975C845.033 959.497 812.207 960.914 774.068 967.87C728.302 976.372 682.264 985.003 636.498 994.793C525.897 1018.5 419.927 1066.8 307.01 1056.88C293.934 1055.72 280.858 1053.79 267.782 1051.09C204.581 1037.82 143.151 1001.49 111.006 947.259C86.2162 905.394 80.6318 856.444 87.5784 811.487C94.6612 766.659 118.77 727.627 137.294 686.148C173.662 604.736 228.009 521.392 257.294 434.183C263.015 416.921 267.237 399.402 269.553 381.497C278.951 308.329 253.889 237.866 204.718 183.377C198.997 177.065 192.867 170.882 186.466 165.085C124.763 109.307 33.7761 77.4894 -56.8025 82.2556" stroke="#F55A49" stroke-miterlimit="10"/>
<path d="M1220.15 1279.35C1190.46 1257.71 1169.48 1219.45 1156.13 1184.41C1142.78 1149.37 1133.79 1115.11 1115.41 1083.03C1080.54 1022.23 1015.16 981.526 942.013 964.135C924.17 959.884 906.326 957.179 888.755 955.633C850.072 952.284 816.974 953.83 779.108 960.915C733.342 969.417 687.44 978.563 641.81 988.868C527.667 1014.63 418.564 1067.45 301.425 1058.82C287.94 1057.78 274.32 1055.98 260.699 1053.28C195.046 1040.27 130.892 1003.04 98.2022 946.616C73.0036 903.076 68.1001 852.065 76.545 805.562C85.1261 759.059 111.414 719.255 131.982 676.617C170.256 597.265 225.148 515.724 255.795 430.061C261.788 413.186 266.42 395.925 269.007 378.277C280.177 306.269 258.247 236.064 211.528 181.059C206.079 174.618 200.222 168.435 194.093 162.509C134.978 105.701 45.081 72.3375 -44.4079 77.7478" stroke="#F55A49" stroke-miterlimit="10"/>
<path d="M1230.23 1269.17C1201.22 1246.63 1180.24 1208.76 1165.94 1174.11C1151.64 1139.32 1141.29 1105.57 1121.94 1073.89C1085.58 1014.11 1020.2 973.795 947.053 956.791C929.209 952.669 911.366 949.964 893.795 948.547C855.112 945.327 821.877 947.13 784.148 954.215C738.518 962.846 692.616 972.378 647.122 983.199C529.438 1011.15 417.202 1068.35 295.841 1061.13C281.811 1060.23 267.782 1058.56 253.616 1055.98C185.376 1043.36 118.634 1005.1 85.2625 946.615C59.5191 901.4 55.4329 848.328 65.3761 800.279C75.3193 752.231 103.787 711.396 126.398 667.598C166.579 590.308 222.016 510.571 254.025 426.582C260.29 409.965 265.194 393.09 268.327 375.7C281.13 304.85 262.333 235.032 218.202 179.254C213.026 172.813 207.441 166.501 201.584 160.447C144.922 102.737 56.3864 67.6989 -32.149 73.6244" stroke="#F55A49" stroke-miterlimit="10"/>
<path d="M1240.45 1259C1212.25 1235.55 1191.14 1198.07 1176.02 1163.67C1160.76 1129.15 1149.05 1095.79 1128.75 1064.61C1090.62 1005.87 1025.24 965.938 951.956 949.192C934.113 945.07 916.269 942.494 898.699 941.077C860.152 938.114 826.644 940.046 789.051 947.131C743.421 955.891 697.655 965.681 652.298 977.016C531.208 1007.16 415.704 1068.61 290.12 1062.81C275.682 1062.16 261.107 1060.62 246.397 1058.04C175.705 1045.8 106.375 1006.52 72.1863 945.843C45.8981 898.954 42.6291 843.82 54.0706 794.354C65.5121 744.76 95.8866 702.895 120.676 658.066C162.492 582.709 218.61 504.903 252.254 422.461C258.792 406.23 264.104 389.613 267.645 372.609C282.22 302.919 266.556 233.358 224.876 177.065C219.972 170.495 214.796 164.183 209.076 158C154.865 99.3887 67.5553 62.6759 -19.8905 69.1167" stroke="#F55A49" stroke-miterlimit="10"/>
<path d="M1250.52 1248.95C1223.15 1224.6 1201.9 1187.5 1185.83 1153.49C1169.75 1119.36 1156.4 1086.25 1135.29 1055.59C1095.52 997.884 1030.14 958.337 956.86 941.848C939.016 937.855 921.173 935.279 903.602 933.991C865.192 931.157 831.412 933.346 793.955 940.56C748.325 949.32 702.831 959.625 657.338 971.476C532.707 1003.94 414.069 1069.63 284.127 1065.25C269.144 1064.74 254.025 1063.32 238.906 1060.87C165.762 1049.02 93.7075 1008.7 58.9744 945.842C32.1414 897.278 29.6896 840.212 42.6294 789.072C55.5692 737.932 87.8505 694.907 114.956 649.177C158.406 575.751 215.342 499.878 250.347 418.982C257.158 403.008 262.878 386.649 266.692 370.031C283.037 301.372 270.37 232.326 231.278 175.389C226.647 168.691 221.743 162.25 216.295 156.067C164.672 96.5535 78.4521 58.1662 -7.90402 65.2511" stroke="#F55A49" stroke-miterlimit="10"/>
<path d="M1260.74 1238.77C1234.18 1213.52 1212.79 1176.81 1195.91 1143.06C1178.88 1109.18 1164.17 1076.59 1142.24 1046.45C1100.83 989.769 1035.45 950.609 962.035 934.507C944.056 930.513 926.213 928.066 908.778 926.906C870.503 924.201 836.451 926.52 799.266 933.862C753.773 942.751 708.279 953.571 662.922 965.809C534.75 1000.59 412.979 1070.54 278.814 1067.45C263.423 1067.06 247.759 1065.77 231.959 1063.45C156.363 1051.99 81.5846 1010.64 46.1704 945.585C18.7925 895.475 17.1579 836.219 31.596 783.533C46.0341 730.847 80.0863 686.663 109.507 640.032C154.592 568.538 212.208 494.598 248.712 415.247C255.795 399.66 261.788 383.558 266.147 367.198C284.263 299.698 274.728 230.91 237.952 173.329C233.729 166.631 228.962 160.061 223.786 153.749C174.615 93.3337 89.757 53.4006 4.35433 60.872" stroke="#F55A49" stroke-miterlimit="10"/>
<path d="M1270.82 1228.72C1244.94 1202.57 1223.56 1166.25 1205.85 1132.88C1188.01 1099.26 1171.8 1067.06 1148.91 1037.43C1105.87 981.781 1040.49 943.136 967.075 927.163C949.096 923.298 931.252 920.851 913.682 919.692C875.407 917.115 841.219 919.691 804.17 927.034C758.676 936.051 713.319 947.258 668.098 960.011C536.521 997.11 411.481 1071.31 273.094 1069.51C257.157 1069.25 241.085 1068.09 224.74 1065.77C146.556 1054.69 69.3261 1012.31 33.2308 945.197C5.44435 893.413 4.49089 832.096 20.2911 777.864C36.2274 723.633 72.0501 678.289 103.787 630.756C150.506 561.066 208.94 489.186 246.942 411.381C254.297 396.052 260.699 380.336 265.466 364.234C285.216 297.894 278.951 229.492 244.626 171.267C240.676 164.439 236.181 157.87 231.278 151.558C184.695 90.1123 100.926 48.6333 16.6133 56.6199" stroke="#F55A49" stroke-miterlimit="10"/>
<path d="M1281.04 1218.55C1255.97 1191.5 1234.45 1155.56 1215.79 1122.45C1196.99 1089.21 1179.42 1057.27 1155.59 1028.16C1110.91 973.538 1045.53 935.279 971.978 919.563C953.999 915.699 936.156 913.38 918.585 912.35C880.446 909.902 845.986 912.736 809.073 920.079C763.716 929.096 718.358 940.818 673.273 953.957C538.291 993.375 409.983 1071.7 267.236 1071.44C250.755 1071.44 234.274 1070.28 217.384 1068.09C136.749 1057.4 56.7944 1014.11 20.0181 944.683C-8.3132 891.224 -8.44934 827.975 8.84912 772.068C26.2838 716.291 63.8773 669.659 98.0656 621.353C146.283 553.338 205.67 483.648 245.034 407.388C252.662 392.446 259.336 376.988 264.512 361.143C286.033 295.962 282.764 227.818 251.028 168.949C247.35 162.122 243.127 155.423 238.496 148.982C194.365 86.635 111.823 43.4813 28.5993 52.112" stroke="#F55A49" stroke-miterlimit="10"/>
<path d="M1291.11 1208.37C1266.87 1180.42 1245.21 1144.86 1225.73 1112.14C1206.12 1079.17 1187.05 1047.73 1162.26 1019.01C1115.95 965.421 1050.57 927.549 976.882 912.22C958.903 908.484 941.059 906.165 923.488 905.135C885.486 902.816 850.753 905.908 813.977 913.25C768.619 922.396 723.535 934.505 678.45 948.16C540.062 990.025 408.485 1072.47 261.516 1073.5C244.626 1073.63 227.464 1072.73 210.165 1070.54C127.078 1060.23 44.3996 1015.92 7.07848 944.295C-21.7977 889.161 -21.1165 823.851 -2.31976 766.399C16.6132 708.947 55.8412 661.027 92.4812 612.077C142.197 545.736 202.401 478.236 243.264 403.651C251.164 388.966 258.247 373.895 263.831 358.308C287.123 294.286 286.987 226.529 257.702 167.015C254.297 160.059 250.347 153.361 246.124 146.791C204.581 83.5421 123.264 38.714 40.9944 47.86" stroke="#F55A49" stroke-miterlimit="10"/>
<path d="M1301.33 1198.32C1277.9 1169.47 1256.11 1134.3 1235.68 1101.84C1215.11 1069.12 1194.68 1038.08 1168.94 1009.87C1120.85 957.308 1055.61 919.823 981.922 904.751C963.942 901.015 946.099 898.825 928.528 897.924C890.662 895.863 855.656 899.083 819.016 906.426C773.795 915.701 728.71 928.325 683.625 942.366C541.832 986.678 407.122 1073.24 255.795 1075.69C238.36 1075.95 220.789 1075.18 202.946 1073.11C117.271 1063.07 32.1406 1017.85 -5.99778 944.169C-35.4188 887.361 -33.9205 819.99 -13.6254 760.992C6.66963 701.994 47.6683 652.657 86.7601 603.062C137.974 538.268 199.132 473.086 241.493 400.047C249.665 385.749 257.021 370.935 263.014 355.606C288.076 292.743 290.936 225.243 264.24 165.215C261.107 158.259 257.429 151.302 253.479 144.733C214.387 80.5821 134.297 34.0793 53.1167 43.7405" stroke="#F55A49" stroke-miterlimit="10"/>
<path d="M1311.41 1188.15C1288.8 1158.26 1266.87 1123.74 1245.62 1091.41C1224.24 1059.07 1202.31 1028.29 1175.61 1000.59C1126.03 948.934 1060.65 911.964 986.826 897.15C968.71 893.543 950.867 891.353 933.296 890.451C895.566 888.519 860.288 891.868 823.921 899.34C778.699 908.614 733.887 921.754 688.802 936.31C543.604 983.199 405.625 1073.63 250.075 1077.49C232.231 1077.88 214.116 1077.24 195.727 1075.3C107.601 1065.64 19.7463 1019.4 -18.9369 943.524C-48.7665 885.041 -46.5871 815.609 -24.7937 755.194C-3.00039 694.65 39.4965 643.896 81.3124 593.658C134.025 530.28 196.136 467.546 239.859 396.053C248.44 382.012 256.068 367.584 262.47 352.513C289.166 290.681 295.296 223.696 270.915 162.895C268.054 155.81 264.785 148.854 260.971 142.155C224.331 77.1029 145.467 28.9254 65.3761 39.2307" stroke="#F55A49" stroke-miterlimit="10"/>
<path d="M1321.63 1177.97C1299.7 1147.18 1277.77 1113.05 1255.56 1081.1C1233.23 1049.02 1209.94 1018.62 1182.28 991.571C1131.07 940.946 1065.69 904.362 991.866 889.935C973.75 886.457 955.907 884.267 938.336 883.494C900.606 881.69 865.192 885.297 828.96 892.769C783.739 902.172 739.063 915.698 694.114 930.77C545.511 980.235 404.263 1074.66 244.354 1079.94C225.966 1080.58 207.305 1079.94 188.509 1078.01C97.9302 1068.73 7.35157 1021.46 -32.0126 943.394C-62.3871 883.236 -59.3905 811.872 -36.0989 749.782C-12.8073 687.693 31.188 635.264 75.592 584.639C129.803 522.807 192.731 462.392 237.952 392.445C246.806 378.79 254.706 364.492 261.653 349.806C290.12 289.134 299.382 222.407 277.453 161.09C274.865 153.876 271.868 146.92 268.327 140.093C234.275 74.01 156.636 24.4156 77.4989 35.1074" stroke="#F55A49" stroke-miterlimit="10"/>
<path d="M1331.71 1167.92C1310.59 1136.23 1288.53 1102.48 1265.51 1070.8C1242.22 1038.98 1217.56 1009.09 1188.96 982.428C1136.11 932.833 1070.73 896.636 996.769 882.466C978.653 878.988 960.81 876.927 943.239 876.283C905.645 874.608 869.959 878.473 833.864 886.073C788.779 895.605 744.239 909.646 699.29 924.976C547.417 977.018 402.764 1075.43 238.633 1082C219.7 1082.78 200.631 1082.26 181.289 1080.46C88.2591 1071.57 -4.90738 1023.26 -45.0888 943.139C-76.0081 881.307 -72.1944 807.881 -47.4045 744.246C-22.6146 680.61 22.8792 626.636 69.871 575.496C125.716 514.952 189.462 457.114 236.181 388.712C245.307 375.315 253.616 361.403 260.835 347.104C291.073 287.591 303.332 221.25 283.99 159.161C281.675 151.947 278.951 144.862 275.682 137.906C244.081 70.9212 167.669 19.6521 89.6212 30.8591" stroke="#F55A49" stroke-miterlimit="10"/>
<path d="M1341.92 1157.75C1321.63 1125.16 1299.42 1091.79 1275.45 1060.49C1251.34 1028.93 1225.05 999.43 1195.63 973.281C1141.15 924.717 1075.77 888.906 1001.81 874.994C983.693 871.644 965.85 869.712 948.279 868.939C910.821 867.393 874.863 871.516 838.904 879.116C793.819 888.648 749.415 903.204 704.602 919.049C549.461 973.667 401.402 1075.95 233.049 1083.93C213.707 1084.84 194.093 1084.58 174.207 1082.77C78.5885 1074.27 -17.1659 1024.94 -57.8922 942.622C-89.3563 879.244 -84.7252 803.629 -58.5732 738.448C-32.285 673.267 14.5706 617.618 64.4229 566.091C121.767 506.836 186.465 451.573 234.547 384.717C243.945 371.707 252.527 358.052 260.29 344.011C292.299 285.657 307.691 219.574 290.801 156.969C288.894 149.627 286.306 142.413 283.31 135.457C254.297 67.5708 178.974 14.6272 102.016 26.4783" stroke="#F55A49" stroke-miterlimit="10"/>
<path d="M1352 1147.57C1276.4 1017.85 1160.63 895.732 1006.85 867.521C901.559 848.198 807.03 877.955 709.914 913.122C533.252 977.015 365.307 1101.58 166.987 1085.22C68.9173 1077.11 -29.5613 1026.74 -70.9686 942.235C-102.841 877.182 -97.5294 799.635 -69.8791 732.779C-42.0926 665.923 6.12524 608.599 58.7017 556.815C117.544 498.848 183.06 446.162 232.64 380.852C282.22 315.542 315.182 233.357 297.202 154.778C279.359 76.2003 197.77 8.31398 114.002 21.9685" stroke="#F55A49" stroke-miterlimit="10"/>
<path d="M1326.39 1159.16C1249.71 1032.54 1135.57 911.448 986.689 880.403C924.987 867.65 867.507 872.03 811.117 884.396C774.341 892.512 737.973 903.976 701.333 916.343C660.743 929.997 620.698 946.872 580.38 964.52C505.738 997.111 430.278 1031.89 350.052 1052.63C293.661 1067.19 235.092 1075.04 173.662 1069.76C166.851 1069.12 159.905 1068.35 153.094 1067.44C63.1968 1054.43 -23.7041 1007.16 -63.3408 931.543C-76.553 906.424 -83.9083 879.244 -86.4963 851.677C-90.3101 810.455 -83.3635 767.946 -68.5168 729.043C-43.8631 664.249 0.813366 608.213 49.7122 556.815C104.332 499.234 165.898 445.003 214.66 379.564C218.61 374.153 222.561 368.743 226.374 363.204C255.932 319.922 278.542 271.1 284.944 221.377C287.668 199.607 287.396 177.579 283.037 155.68C277.589 127.598 263.968 100.804 244.899 78.3904C210.847 38.4572 158.406 12.5652 104.877 21.3247" stroke="#F55A49" stroke-miterlimit="10"/>
<path d="M1300.92 1170.76C1223.28 1047.22 1110.78 927.292 966.667 893.156C907.007 879.244 851.571 881.82 797.768 891.997C762.49 898.695 727.893 908.614 693.024 919.306C654.341 931.157 616.203 946.228 577.656 961.815C506.282 990.799 433.547 1021.46 354.683 1039.75C299.382 1052.5 241.357 1059.59 180.744 1054.18C173.934 1053.53 167.124 1052.76 160.45 1051.86C71.5055 1038.98 -14.5783 993.504 -55.1684 920.594C-68.653 896.376 -76.6892 870.227 -79.9582 843.562C-84.8617 803.757 -79.5497 762.665 -66.6099 725.05C-45.089 662.188 -3.81788 607.698 41.1309 556.687C91.6642 499.492 149.144 443.843 197.089 378.018C201.039 372.608 204.853 367.198 208.667 361.658C237.952 318.247 261.38 270.199 269.007 221.248C272.276 199.736 272.685 177.966 269.007 156.325C264.513 128.5 251.981 101.835 233.73 79.1635C201.176 38.8439 149.144 11.9212 95.7506 20.5519" stroke="#F55A49" stroke-miterlimit="10"/>
<path d="M1275.31 1182.35C1196.72 1061.91 1085.85 942.751 946.508 906.038C888.892 890.837 835.634 891.61 784.148 899.726C750.504 905.007 717.542 913.38 684.307 922.526C647.531 932.574 611.299 945.713 574.523 959.368C506.419 984.616 436.271 1011.41 358.905 1027.13C304.558 1038.2 247.214 1044.26 187.283 1038.85C180.608 1038.2 173.934 1037.43 167.124 1036.53C79.1331 1023.78 -6.13322 980.107 -47.813 910.031C-61.7062 886.715 -70.1512 861.596 -74.2374 835.962C-80.3668 797.574 -76.5529 758.028 -65.5201 721.444C-47.1319 660.513 -9.26601 607.441 31.8689 556.816C78.1798 499.879 131.71 442.813 178.838 376.859C182.652 371.449 186.465 365.91 190.143 360.371C219.155 316.959 243.537 269.684 252.39 221.249C256.204 199.994 257.294 178.61 254.433 157.098C250.892 129.531 239.45 102.866 222.152 79.9368C191.233 39.3595 139.61 11.1486 86.2161 19.9081" stroke="#F55A49" stroke-miterlimit="10"/>
<path d="M1249.71 1193.94C1170.16 1076.46 1060.92 958.467 926.349 918.92C870.776 902.56 819.698 901.53 770.663 907.326C738.654 911.191 707.462 918.018 675.862 925.618C640.992 933.863 606.668 945.07 571.662 956.792C506.827 978.433 439.404 1001.1 363.4 1014.24C310.142 1023.52 253.343 1028.8 194.093 1023.26C187.419 1022.62 180.881 1021.84 174.206 1020.81C87.1692 1008.19 2.71999 966.324 -40.0494 898.953C-54.2151 876.539 -63.341 852.45 -68.2445 827.718C-75.4635 790.876 -73.2842 752.617 -64.0221 717.322C-48.7667 658.324 -14.4422 606.668 22.8789 556.559C64.9673 500.008 114.547 441.397 160.722 375.185C164.536 369.774 168.213 364.235 171.891 358.696C200.767 315.285 225.829 268.653 236.045 220.991C240.54 200.123 242.038 178.868 239.995 157.613C237.271 130.304 227.055 103.639 210.574 80.5811C181.153 39.6174 129.939 10.2472 76.6812 19.0067" stroke="#F55A49" stroke-miterlimit="10"/>
<path d="M1224.24 1205.54C1143.74 1091.15 1036.13 974.054 906.327 931.673C852.797 914.154 803.898 911.32 757.178 914.927C726.668 917.245 697.247 922.656 667.417 928.581C634.455 935.151 602.037 944.297 568.802 954.087C507.236 971.992 442.401 990.671 367.895 1001.36C315.591 1008.96 259.473 1013.34 200.903 1007.67C194.365 1007.03 187.827 1006.26 181.289 1005.23C95.342 992.732 11.5739 952.541 -32.149 888.004C-46.7233 866.492 -56.3941 843.433 -61.9787 819.731C-70.4236 784.307 -69.7426 747.594 -62.3874 713.329C-50.1286 656.263 -19.3454 606.024 14.1618 556.301C52.164 500.008 97.6575 439.98 143.015 373.51C146.693 368.1 150.37 362.561 154.048 357.022C182.652 313.611 208.531 267.752 220.109 220.734C225.149 200.123 227.328 179.255 225.966 158.258C224.195 131.077 215.069 104.541 199.541 81.2254C171.755 39.8752 120.813 9.34566 67.5554 18.1052" stroke="#F55A49" stroke-miterlimit="10"/>
<path d="M1198.63 1217.13C1117.04 1105.83 1011.21 989.769 886.167 944.555C834.681 925.876 787.825 921.11 743.694 922.656C714.817 923.558 687.031 927.422 658.972 931.802C628.053 936.568 597.406 943.782 565.942 951.64C507.644 965.938 445.533 980.623 372.39 988.739C321.039 994.536 265.602 998.143 207.714 992.217C201.176 991.573 194.774 990.8 188.236 989.769C103.242 977.274 20.4272 939.016 -24.5215 877.312C-39.3682 856.831 -49.72 834.545 -56.1218 811.874C-65.6564 777.866 -66.6099 742.57 -61.1616 709.593C-52.0356 654.46 -24.6578 605.509 5.03561 556.301C38.8153 500.266 80.3588 438.949 124.899 372.222C128.577 366.812 132.118 361.273 135.796 355.605C164.127 312.194 190.96 266.979 203.764 220.734C209.348 200.51 212.209 179.77 211.664 159.031C210.847 132.108 202.81 105.701 188.1 82.1273C161.948 40.3907 111.278 8.70183 58.1569 17.4614" stroke="#F55A49" stroke-miterlimit="10"/>
<path d="M1173.02 1228.72C1090.48 1120.52 986.281 1005.48 866.145 957.435C816.838 937.726 772.025 931.027 730.209 930.383C702.967 929.868 676.815 932.316 650.527 935.021C621.515 937.983 592.911 943.394 563.218 949.191C508.189 959.753 448.666 970.445 377.021 976.113C326.76 980.107 271.868 982.812 214.66 976.886C208.259 976.242 201.857 975.469 195.455 974.439C111.415 962.072 29.4171 925.617 -16.4851 866.619C-31.7404 847.039 -42.6371 825.784 -49.72 804.014C-60.4804 771.552 -62.9322 737.674 -59.2545 705.727C-53.2614 652.526 -29.4249 604.992 -3.5453 556.3C26.1481 500.393 63.6053 437.788 107.192 370.804C110.733 365.265 114.411 359.725 117.952 354.186C146.011 310.775 173.798 266.333 187.827 220.732C193.957 200.766 197.498 180.413 197.634 159.802C197.771 133.137 190.824 106.73 177.067 82.8985C152.413 40.7755 102.152 7.92734 49.1673 16.8157" stroke="#F55A49" stroke-miterlimit="10"/>
<path d="M1147.55 1240.32C1064.06 1135.2 961.354 1021.2 846.122 970.188C798.858 949.32 756.225 940.818 716.86 937.984C691.117 936.051 666.736 936.953 642.082 937.984C614.977 939.272 588.28 942.621 560.357 946.486C508.598 953.442 451.799 960.011 381.515 963.232C332.208 965.55 277.997 967.354 221.471 961.3C215.069 960.655 208.803 959.754 202.538 958.852C119.451 946.614 38.2704 911.834 -8.72149 855.67C-24.2492 836.991 -35.6907 816.767 -43.727 796.028C-55.5771 764.983 -59.6634 732.521 -57.8927 701.863C-55.0323 650.594 -34.601 604.349 -12.5352 556.171C13.0719 500.394 46.4429 436.501 89.2123 369.387C92.7538 363.848 96.2952 358.309 99.8367 352.77C127.759 309.23 156.227 265.561 171.618 220.604C178.293 201.024 182.515 180.8 183.332 160.447C184.422 133.91 178.565 107.632 165.761 83.6717C142.742 41.291 92.7538 7.15456 39.905 16.0429" stroke="#F55A49" stroke-miterlimit="10"/>
<path d="M1121.94 1251.91C1037.5 1149.89 936.429 1036.92 825.964 983.07C780.742 961.042 740.152 950.608 703.376 945.584C679.267 942.235 656.52 941.591 633.637 941.076C608.439 940.56 583.649 942.106 557.497 943.91C509.007 947.259 454.796 949.835 386.011 950.35C337.793 950.866 283.99 951.896 228.417 945.713C222.152 945.069 215.886 944.167 209.621 943.265C127.487 931.157 47.1243 898.18 -0.957296 844.721C-16.8937 826.944 -28.88 807.75 -37.5974 787.913C-50.6734 758.285 -56.3942 727.24 -56.3942 697.741C-56.6666 648.404 -39.6406 603.318 -21.5249 555.785C-0.140179 500.007 29.281 434.955 71.2331 367.584C74.6383 362.045 78.1797 356.506 81.7211 350.838C109.371 307.298 138.792 264.402 155.41 220.089C162.629 200.766 167.532 180.929 169.167 160.704C171.21 134.426 166.443 108.147 154.456 83.9296C132.935 41.1625 83.3556 5.86665 30.643 14.755" stroke="#F55A49" stroke-miterlimit="10"/>
<path d="M1096.34 1263.5C1010.93 1164.57 911.502 1052.63 805.804 995.823C762.626 972.636 724.215 960.398 689.754 953.185C667.28 948.418 646.168 946.228 625.056 944.167C601.764 941.849 578.881 941.462 554.5 941.333C509.278 941.076 457.792 939.53 390.368 937.598C343.104 936.31 289.983 936.438 235.091 930.255C228.962 929.611 222.696 928.709 216.567 927.808C135.386 915.828 55.8408 884.654 6.80576 834.029C-9.53925 817.154 -22.0704 798.991 -31.4688 780.184C-45.6344 752.102 -52.9898 722.474 -54.8967 694.134C-58.1657 646.73 -44.8173 602.803 -30.3792 556.043C-13.2169 500.394 12.2541 434.053 53.2528 366.425C56.658 360.886 60.0632 355.346 63.6046 349.678C90.9825 306.138 121.221 263.887 139.2 220.347C146.964 201.411 152.549 181.702 154.864 161.735C157.861 135.714 154.183 109.564 143.15 85.0892C123.264 41.9356 73.9564 5.48043 21.2438 14.3688" stroke="#F55A49" stroke-miterlimit="10"/>
<path d="M1070.87 1275.1C984.374 1179.26 886.713 1068.35 785.782 1008.7C744.647 984.358 708.416 970.317 676.407 960.914C655.431 954.731 636.089 950.995 616.748 947.259C595.227 943.266 574.387 940.818 551.776 938.757C509.824 934.764 460.925 929.225 395 924.845C348.826 921.882 296.249 921.11 242.038 914.798C235.909 914.025 229.78 913.252 223.786 912.35C143.696 900.499 64.8313 871 14.7067 823.209C-1.91075 807.364 -15.123 790.103 -25.3386 772.197C-40.594 745.532 -49.5837 717.322 -53.2613 690.141C-59.6631 644.669 -49.8561 601.902 -39.0956 555.785C-26.1558 500.008 -4.63501 432.766 35.5465 364.879C38.8155 359.34 42.2207 353.672 45.7621 348.133C73.0037 304.593 104.059 263.114 123.265 220.218C131.573 201.54 137.839 182.217 140.836 162.38C144.786 136.616 142.334 110.466 131.982 85.7336C113.73 42.1936 64.6951 4.57911 12.1187 13.5963" stroke="#F55A49" stroke-miterlimit="10"/>
<path d="M1045.26 1286.69C957.813 1193.81 861.786 1084.06 765.623 1021.59C726.531 996.081 692.342 980.237 662.785 968.643C643.444 961.043 625.737 955.761 608.166 950.48C588.552 944.683 569.619 940.303 548.779 936.31C510.096 928.71 463.785 919.178 399.358 912.221C354.137 907.455 302.242 905.909 248.712 899.469C242.719 898.696 236.589 897.923 230.596 897.021C151.459 885.17 73.548 857.603 22.3336 812.517C5.3076 797.575 -8.44941 781.344 -19.3461 764.469C-35.8273 739.221 -46.3154 712.556 -51.8999 686.535C-61.4345 642.995 -55.3052 601.387 -48.2223 556.043C-39.505 500.266 -21.934 431.864 17.4302 363.72C20.6992 358.181 23.968 352.513 27.5095 346.974C54.4787 303.434 86.3515 262.599 106.919 220.347C115.909 202.055 122.719 182.862 126.533 163.281C131.437 137.647 130.074 111.626 120.676 86.7643C104.059 42.8378 55.296 4.19288 2.85578 13.0812" stroke="#F55A49" stroke-miterlimit="10"/>
<path d="M1019.65 1298.29C931.252 1208.5 836.86 1099.91 745.6 1034.34C708.552 1007.8 676.543 989.898 649.437 976.115C631.73 967.098 615.657 960.27 599.721 953.443C582.014 945.843 564.988 939.66 545.919 933.476C510.505 922.141 466.918 908.615 403.853 899.211C359.586 892.641 308.371 890.323 255.522 883.624C249.529 882.851 243.536 882.079 237.679 881.177C159.496 869.454 82.4017 843.691 30.0977 801.439C12.7992 787.398 -1.50271 772.198 -13.3528 756.225C-30.9237 732.522 -43.0462 707.146 -50.5376 682.284C-63.205 640.805 -60.7533 600.099 -57.2119 555.528C-52.8532 499.622 -39.0962 430.19 -0.549215 361.917C2.58358 356.249 5.85264 350.71 9.39406 345.042C36.0909 301.502 68.7808 261.44 90.7104 219.832C100.245 201.798 107.736 182.991 112.231 163.668C118.088 138.291 117.816 112.27 109.235 87.2798C94.1156 42.9669 45.8978 3.16253 -6.54242 12.0509" stroke="#F55A49" stroke-miterlimit="10"/>
<path d="M994.18 1309.88C904.828 1223.19 812.07 1115.62 725.577 1047.22C690.572 1019.53 660.742 999.817 635.952 983.844C619.743 973.41 605.441 964.908 591.276 956.535C575.476 947.131 560.357 939.016 543.058 930.9C510.913 915.958 469.914 898.31 408.348 886.33C365.17 878.085 314.5 874.736 262.333 868.038C256.476 867.265 250.619 866.492 244.626 865.59C167.395 853.997 91.1188 829.908 37.7251 790.49C20.018 777.351 5.17133 763.181 -7.35984 748.238C-26.1566 725.953 -39.7774 701.993 -49.0396 678.42C-64.8397 638.873 -66.0656 599.197 -66.2018 555.4C-66.338 499.365 -56.2585 428.902 -18.665 360.371C-15.5322 354.703 -12.2633 349.164 -8.8581 343.496C17.5663 299.828 51.2097 260.539 74.3652 219.704C84.4446 202.056 92.6172 183.377 97.7931 164.313C104.604 139.193 105.421 113.301 97.7931 87.9242C84.3085 43.2248 36.3631 2.26113 -15.9409 11.1495" stroke="#F55A49" stroke-miterlimit="10"/>
<path d="M968.573 1321.47C878.267 1237.87 787.144 1131.47 705.419 1059.97C672.456 1031.12 644.67 1009.61 622.468 991.442C607.894 979.591 595.226 969.544 582.831 959.625C568.938 948.418 555.726 938.37 540.334 928.322C511.458 909.644 473.183 888.003 412.979 873.575C370.755 863.527 320.766 859.405 269.416 852.578C263.559 851.805 257.838 851.032 251.981 850.131C175.704 838.666 100.245 816.381 45.8978 779.668C27.9183 767.43 12.3907 754.162 -0.957732 740.25C-20.8442 719.382 -36.0995 696.967 -47.2686 674.425C-66.0653 636.681 -71.2413 598.294 -74.7828 555.269C-79.4138 499.105 -73.012 427.741 -36.2357 358.824C-33.2391 353.156 -29.9701 347.488 -26.7011 341.949C-0.412933 298.28 33.9116 259.764 58.4291 219.573C69.0533 202.183 77.9068 183.891 83.9 164.955C91.6638 139.964 93.5707 114.201 86.7603 88.6952C74.9102 43.7382 27.2373 1.48641 -25.0667 10.5036" stroke="#F55A49" stroke-miterlimit="10"/>
<path d="M942.967 1333.06C851.571 1252.55 762.218 1147.18 685.261 1072.85C654.341 1042.97 628.734 1019.4 608.848 999.172C595.908 985.775 584.875 974.31 574.251 962.845C562.264 949.835 550.959 937.855 537.338 925.875C511.731 903.59 476.045 877.955 417.203 860.951C376.068 849.229 326.624 844.205 275.954 837.249C270.234 836.476 264.513 835.703 258.792 834.802C183.605 823.466 108.827 802.984 53.39 769.105C35.0018 757.898 18.9293 745.532 4.89984 732.65C-16.2125 713.327 -32.9661 692.202 -46.0421 670.947C-67.9717 635.265 -76.9613 597.779 -83.9079 555.527C-93.1701 499.234 -90.3098 426.839 -54.3508 357.794C-51.3542 352.126 -48.2214 346.458 -44.9524 340.79C-18.9366 297.121 16.2052 259.249 42.0848 219.831C53.2539 202.698 62.7884 184.664 69.4626 165.985C78.18 141.253 81.1766 115.489 75.3197 89.7261C64.8316 44.3826 17.7034 0.97136 -34.4644 9.98853" stroke="#F55A49" stroke-miterlimit="10"/>
<path d="M917.495 1344.66C825.146 1267.24 737.292 1163.03 665.237 1085.74C636.361 1054.69 612.933 1029.32 595.499 1006.9C584.193 992.087 574.795 978.948 565.941 965.937C555.862 951.123 546.6 937.211 534.613 923.299C512.275 897.278 479.313 867.65 421.833 848.199C381.651 834.673 332.753 828.748 282.9 821.791C277.18 821.019 271.595 820.117 265.874 819.344C191.641 808.008 117.816 789.458 61.2894 758.285C42.4927 747.979 25.8752 736.644 11.1647 724.664C-11.0373 706.758 -29.4253 687.178 -44.272 666.954C-69.3344 633.204 -82.2742 596.749 -92.626 555.399C-106.655 498.977 -107.2 425.551 -72.1948 356.248C-69.3344 350.58 -66.2015 344.912 -62.9325 339.244C-37.1891 295.575 -1.09403 258.476 26.0114 219.574C37.7254 202.827 47.941 185.051 55.2962 166.501C64.967 142.026 69.0533 116.391 64.0136 90.3705C55.1601 44.6406 8.30441 0.0700808 -43.7272 9.08725" stroke="#F55A49" stroke-miterlimit="10"/>
<path d="M891.889 1356.25C798.586 1281.92 712.366 1178.87 645.079 1098.49C618.246 1066.41 596.998 1039.11 582.015 1014.37C572.208 998.142 564.58 983.457 557.497 968.9C549.325 952.154 541.969 936.438 531.754 920.594C512.685 890.837 482.31 857.216 426.329 835.317C387.237 819.988 338.883 813.29 289.711 806.205C284.127 805.432 278.542 804.53 272.958 803.757C199.678 792.55 126.67 775.675 69.0539 747.336C49.9848 737.932 32.8226 727.627 17.1586 716.677C-6.13303 700.189 -26.1556 682.026 -42.9093 663.09C-71.1044 631.272 -88.1304 595.976 -101.615 555.27C-120.412 498.848 -124.362 424.263 -90.1735 354.702C-87.3131 349.035 -84.3166 343.238 -81.0476 337.699C-55.5766 294.03 -18.6642 257.575 9.80331 219.445C22.0621 202.956 32.9587 185.437 41.1312 167.145C51.7555 142.928 56.9315 117.293 52.8453 91.0149C45.6262 44.8985 -0.95715 -0.831479 -52.8525 8.18569" stroke="#F55A49" stroke-miterlimit="10"/>
<path d="M866.281 1367.85C772.025 1296.48 687.303 1194.72 624.92 1111.37C600.13 1078.14 580.924 1049.02 568.393 1022.1C560.221 1004.45 554.227 988.223 548.779 971.992C542.514 953.443 537.065 935.923 528.62 918.018C512.82 884.654 485.17 847.04 430.55 822.436C392.412 805.432 344.739 797.832 296.249 790.618C290.664 789.845 285.216 788.944 279.768 788.171C207.441 777.092 135.25 762.021 76.5447 736.515C57.0669 728.013 39.3599 718.739 23.0149 708.691C-1.50264 693.748 -23.1598 677.002 -41.6841 659.097C-73.012 629.211 -93.9882 595.075 -110.878 555.013C-134.578 498.591 -141.797 422.847 -108.426 353.157C-105.702 347.36 -102.705 341.692 -99.4365 336.024C-74.1017 292.355 -36.5083 256.673 -6.67862 219.188C6.12496 203.086 17.7027 185.824 26.5563 167.661C38.2702 143.572 44.3996 118.067 41.2668 91.6592C35.5461 45.1564 -10.6287 -1.73291 -62.3879 7.41307" stroke="#F55A49" stroke-miterlimit="10"/>
<path d="M840.811 1379.44C745.601 1311.17 662.514 1210.56 605.034 1124.25C582.151 1089.99 565.261 1058.81 555.182 1029.83C548.644 1010.77 544.421 992.861 540.607 975.213C536.249 954.86 532.707 935.408 526.033 915.571C513.502 878.471 488.44 836.864 435.318 809.812C398.133 791.005 351.141 782.632 303.332 775.289C297.884 774.388 292.436 773.615 286.987 772.842C215.614 761.892 144.241 748.624 84.5817 725.824C64.8315 718.224 46.4434 709.979 29.2812 700.962C3.67401 687.436 -19.6177 672.107 -39.9127 655.49C-74.2372 627.537 -99.4356 594.688 -119.458 555.27C-148.062 498.978 -158.55 422.074 -126.133 351.998C-123.408 346.201 -120.548 340.533 -117.279 334.865C-92.2166 291.068 -53.8059 256.158 -22.6142 219.445C-9.26575 203.601 2.9929 186.726 12.5275 168.692C25.1949 144.861 32.4139 119.355 30.0984 92.6899C26.0121 45.9294 -19.89 -2.24796 -71.6492 6.89802" stroke="#F55A49" stroke-miterlimit="10"/>
<path d="M815.203 1391.03C718.903 1325.85 637.451 1226.28 584.874 1137.01C564.034 1101.58 549.324 1068.61 541.56 1037.43C536.52 1016.95 534.069 997.498 532.025 978.305C529.71 956.148 528.075 934.765 523.036 912.995C513.91 872.16 491.435 826.559 439.676 797.06C403.581 776.449 357.134 767.174 310.006 759.703C304.694 758.801 299.245 758.028 293.933 757.255C223.65 746.435 152.958 734.841 92.2087 714.875C72.0498 708.305 53.117 700.962 35.2737 692.847C8.44065 680.738 -16.3494 666.826 -38.5513 651.368C-76.0086 625.347 -105.293 593.787 -128.449 554.884C-161.956 498.849 -175.713 420.529 -144.113 350.323C-141.525 344.527 -138.664 338.859 -135.395 333.191C-110.606 289.393 -71.3775 255.128 -38.8237 219.059C-24.9304 203.473 -11.8544 186.855 -1.63873 169.078C11.9821 145.505 20.2908 120.128 18.9287 93.2054C16.3407 46.0585 -29.1529 -3.14933 -80.7759 5.86784" stroke="#F55A49" stroke-miterlimit="10"/>
<path d="M789.596 1402.63C692.343 1340.54 612.389 1242.25 564.716 1149.89C545.919 1113.43 533.251 1078.52 528.076 1045.16C524.67 1023.26 523.853 1002.26 523.581 981.397C523.172 957.437 523.445 934.121 520.176 910.419C514.319 865.977 494.432 816.382 444.171 784.307C409.03 762.022 363.263 751.845 316.953 744.245C311.641 743.343 306.328 742.57 301.152 741.669C231.822 730.977 161.948 721.187 100.245 704.054C79.8139 698.386 60.1999 692.074 41.5394 684.989C13.6167 674.426 -12.8077 661.931 -36.9166 647.633C-77.5067 623.544 -110.878 593.401 -137.302 555.013C-175.713 499.236 -192.739 419.498 -161.956 349.036C-159.368 343.239 -156.508 337.442 -153.375 331.774C-128.721 287.976 -88.6759 254.484 -54.8962 219.06C-40.4581 203.859 -26.701 187.499 -15.8043 169.98C-1.22999 146.665 8.16832 121.288 7.62348 94.1075C6.67003 46.5741 -38.5511 -3.79316 -90.0378 5.224" stroke="#F55A49" stroke-miterlimit="10"/>
<path d="M764.125 1414.22C665.918 1355.22 587.462 1257.96 544.693 1162.64C527.803 1125.03 517.451 1088.18 514.591 1052.63C512.82 1029.31 513.773 1006.77 515.136 984.358C516.634 958.594 518.813 933.346 517.315 907.712C514.727 859.534 497.565 805.946 448.666 771.424C414.614 747.335 369.393 736.386 323.763 728.657C318.587 727.755 313.275 726.982 308.099 726.08C239.722 715.388 170.801 707.531 107.873 693.103C87.0327 688.337 67.0102 682.927 47.5324 676.872C18.3838 667.726 -9.53891 656.648 -35.5547 643.509C-79.2776 621.352 -116.735 592.497 -146.292 554.625C-189.743 499.105 -209.901 417.951 -179.936 347.23C-177.484 341.434 -174.624 335.637 -171.491 329.969C-147.109 286.171 -106.247 253.323 -71.2414 218.671C-56.2585 203.729 -41.8203 187.627 -30.2426 170.365C-14.7148 147.307 -4.22689 121.93 -3.81826 94.6208C-3.27343 46.701 -47.9497 -4.82562 -99.4365 4.32036" stroke="#F55A49" stroke-miterlimit="10"/>
<path d="M738.518 1425.81C639.358 1369.91 562.4 1273.81 524.534 1175.52C509.687 1136.88 501.515 1098.1 501.106 1060.36C500.834 1035.63 503.558 1011.54 506.555 987.578C510.096 960.14 514.046 932.96 514.455 905.264C515.136 853.48 500.561 795.77 453.161 758.671C420.062 732.779 375.522 720.928 330.573 713.199C325.398 712.297 320.222 711.524 315.182 710.623C247.759 700.06 179.655 693.876 115.637 682.283C94.5245 678.418 73.8208 674.039 53.662 669.015C23.4237 661.286 -6.13355 651.753 -33.9201 639.644C-80.7757 619.42 -122.183 592.111 -155.145 554.497C-203.499 499.363 -226.927 416.792 -197.915 345.814C-195.463 340.017 -192.739 334.22 -189.606 328.552C-165.497 284.755 -123.817 252.679 -87.4498 218.672C-71.9221 204.115 -56.803 188.271 -44.408 171.138C-27.9268 148.209 -16.3491 123.09 -15.1232 95.3942C-12.9439 47.088 -57.3479 -5.59811 -108.698 3.54787" stroke="#F55A49" stroke-miterlimit="10"/>
<path d="M712.91 1437.41C612.797 1384.59 537.065 1289.65 504.375 1188.4C491.435 1148.6 485.442 1108.02 487.485 1068.09C488.847 1041.94 493.342 1016.3 497.973 990.67C503.422 961.429 509.279 932.316 511.458 902.688C515.408 847.168 503.558 785.594 457.52 745.918C425.511 718.352 381.379 705.599 337.247 697.741C332.208 696.839 327.168 695.938 321.992 695.165C255.523 684.731 188.236 680.351 123.264 671.591C101.743 668.628 80.4947 665.279 59.5186 661.157C28.0545 654.974 -3.00093 646.73 -32.6943 635.909C-82.5466 617.746 -128.176 591.725 -164.272 554.626C-217.529 500.007 -244.226 415.761 -216.031 344.526C-213.715 338.6 -210.991 332.932 -207.858 327.264C-184.022 283.467 -141.389 252.035 -103.795 218.672C-87.7225 204.373 -71.9223 188.915 -58.8463 171.911C-41.2754 149.24 -28.7443 124.12 -26.565 96.296C-22.7511 47.7321 -66.8826 -6.24207 -118.097 2.90391" stroke="#F55A49" stroke-miterlimit="10"/>
<path d="M687.303 1449C546.464 1379.7 458.201 1225.12 474.137 1075.69C480.403 1016.43 501.515 959.239 508.734 900.112C515.953 840.985 506.691 775.289 462.151 733.166C427.554 700.446 377.565 687.307 329.211 679.707C242.038 665.924 153.094 665.924 65.7846 653.171C-21.525 640.418 -110.06 613.109 -172.989 554.497C-235.917 495.886 -265.883 400.046 -225.838 325.719C-202.137 281.792 -158.823 251.263 -119.867 218.543C-80.9119 185.953 -43.1821 146.02 -37.7338 96.9404C-32.4216 47.9901 -76.1446 -7.14334 -127.359 2.00264" stroke="#F55A49" stroke-miterlimit="10"/>
</svg>
