<svg width="807" height="202" viewBox="0 0 807 202" fill="none" xmlns="http://www.w3.org/2000/svg">
<g filter="url(#filter0_i_325_364)">
<rect x="403.371" y="0.370864" width="201.008" height="201.008" stroke="#A4B4B9" stroke-width="0.741728"/>
<path d="M476.359 82.206C474.416 82.206 472.688 81.8731 471.177 81.2074C469.675 80.5417 468.487 79.6151 467.614 78.4276C466.742 77.2401 466.278 75.8681 466.224 74.3118H471.298C471.343 75.0585 471.591 75.7107 472.041 76.2685C472.49 76.8172 473.089 77.2446 473.835 77.5504C474.582 77.8563 475.419 78.0092 476.345 78.0092C477.335 78.0092 478.212 77.8383 478.977 77.4964C479.741 77.1456 480.34 76.6598 480.771 76.0391C481.203 75.4183 481.415 74.7031 481.406 73.8935C481.415 73.0568 481.199 72.3191 480.758 71.6804C480.317 71.0417 479.678 70.5424 478.842 70.1825C478.014 69.8227 477.015 69.6428 475.846 69.6428H473.403V65.7834H475.846C476.809 65.7834 477.65 65.617 478.369 65.2841C479.098 64.9512 479.669 64.4834 480.083 63.8807C480.497 63.2689 480.699 62.5627 480.69 61.7621C480.699 60.9794 480.524 60.3002 480.164 59.7244C479.813 59.1397 479.314 58.6854 478.666 58.3615C478.028 58.0376 477.276 57.8757 476.413 57.8757C475.567 57.8757 474.784 58.0286 474.065 58.3345C473.345 58.6404 472.765 59.0767 472.324 59.6435C471.883 60.2012 471.649 60.8669 471.622 61.6406H466.805C466.841 60.0933 467.286 58.7348 468.141 57.5653C469.004 56.3868 470.156 55.4692 471.595 54.8125C473.035 54.1468 474.649 53.8139 476.44 53.8139C478.284 53.8139 479.885 54.1603 481.244 54.853C482.611 55.5367 483.668 56.4588 484.415 57.6193C485.161 58.7798 485.535 60.0618 485.535 61.4652C485.544 63.0215 485.085 64.326 484.158 65.3786C483.241 66.4311 482.035 67.1193 480.542 67.4432V67.6591C482.485 67.929 483.974 68.6487 485.009 69.8182C486.052 70.9787 486.569 72.4226 486.56 74.1499C486.56 75.6972 486.12 77.0826 485.238 78.3061C484.365 79.5206 483.16 80.4742 481.621 81.1669C480.092 81.8596 478.338 82.206 476.359 82.206ZM499.888 82.3544C497.665 82.3544 495.758 81.7921 494.166 80.6676C492.583 79.5341 491.364 77.9013 490.509 75.7692C489.663 73.6281 489.241 71.0507 489.241 68.0369C489.25 65.0232 489.677 62.4593 490.522 60.3452C491.377 58.2221 492.596 56.6027 494.179 55.4872C495.772 54.3717 497.674 53.8139 499.888 53.8139C502.101 53.8139 504.003 54.3717 505.596 55.4872C507.188 56.6027 508.407 58.2221 509.253 60.3452C510.107 62.4683 510.535 65.0322 510.535 68.0369C510.535 71.0597 510.107 73.6416 509.253 75.7827C508.407 77.9148 507.188 79.5431 505.596 80.6676C504.012 81.7921 502.11 82.3544 499.888 82.3544ZM499.888 78.1307C501.615 78.1307 502.978 77.2805 503.976 75.5803C504.984 73.871 505.488 71.3565 505.488 68.0369C505.488 65.8419 505.258 63.9976 504.799 62.5043C504.341 61.0109 503.693 59.8864 502.856 59.1307C502.02 58.366 501.03 57.9837 499.888 57.9837C498.169 57.9837 496.811 58.8383 495.812 60.5476C494.814 62.2479 494.31 64.7443 494.301 68.0369C494.292 70.241 494.512 72.0942 494.962 73.5966C495.421 75.099 496.069 76.2325 496.905 76.9972C497.742 77.7528 498.736 78.1307 499.888 78.1307ZM523.713 82.3544C521.491 82.3544 519.584 81.7921 517.992 80.6676C516.408 79.5341 515.189 77.9013 514.335 75.7692C513.489 73.6281 513.066 71.0507 513.066 68.0369C513.075 65.0232 513.503 62.4593 514.348 60.3452C515.203 58.2221 516.422 56.6027 518.005 55.4872C519.597 54.3717 521.5 53.8139 523.713 53.8139C525.926 53.8139 527.829 54.3717 529.421 55.4872C531.014 56.6027 532.233 58.2221 533.078 60.3452C533.933 62.4683 534.36 65.0322 534.36 68.0369C534.36 71.0597 533.933 73.6416 533.078 75.7827C532.233 77.9148 531.014 79.5431 529.421 80.6676C527.838 81.7921 525.935 82.3544 523.713 82.3544ZM523.713 78.1307C525.441 78.1307 526.803 77.2805 527.802 75.5803C528.81 73.871 529.313 71.3565 529.313 68.0369C529.313 65.8419 529.084 63.9976 528.625 62.5043C528.166 61.0109 527.519 59.8864 526.682 59.1307C525.845 58.366 524.856 57.9837 523.713 57.9837C521.995 57.9837 520.637 58.8383 519.638 60.5476C518.639 62.2479 518.136 64.7443 518.127 68.0369C518.118 70.241 518.338 72.0942 518.788 73.5966C519.247 75.099 519.894 76.2325 520.731 76.9972C521.568 77.7528 522.562 78.1307 523.713 78.1307ZM546.459 79.8395V61.0895H549.641V79.8395H546.459ZM538.675 72.0554V68.8736H557.425V72.0554H538.675Z" fill="#2A282F"/>
<path d="M450.882 112.666V128H448.88V112.666H450.882ZM460.168 115.724C461.635 115.724 462.823 116.171 463.732 117.066C464.642 117.946 465.096 119.222 465.096 120.894V128H463.116V121.18C463.116 119.977 462.816 119.061 462.214 118.43C461.613 117.785 460.792 117.462 459.75 117.462C458.694 117.462 457.851 117.792 457.22 118.452C456.604 119.112 456.296 120.073 456.296 121.334V128H454.294V115.944H456.296V117.66C456.692 117.044 457.228 116.567 457.902 116.23C458.592 115.893 459.347 115.724 460.168 115.724ZM474.24 115.724C475.707 115.724 476.895 116.171 477.804 117.066C478.714 117.946 479.168 119.222 479.168 120.894V128H477.188V121.18C477.188 119.977 476.888 119.061 476.286 118.43C475.685 117.785 474.864 117.462 473.822 117.462C472.766 117.462 471.923 117.792 471.292 118.452C470.676 119.112 470.368 120.073 470.368 121.334V128H468.366V115.944H470.368V117.66C470.764 117.044 471.3 116.567 471.974 116.23C472.664 115.893 473.419 115.724 474.24 115.724ZM487.697 128.198C486.567 128.198 485.541 127.941 484.617 127.428C483.707 126.915 482.989 126.189 482.461 125.25C481.947 124.297 481.691 123.197 481.691 121.95C481.691 120.718 481.955 119.633 482.483 118.694C483.025 117.741 483.759 117.015 484.683 116.516C485.607 116.003 486.641 115.746 487.785 115.746C488.929 115.746 489.963 116.003 490.887 116.516C491.811 117.015 492.537 117.733 493.065 118.672C493.607 119.611 493.879 120.703 493.879 121.95C493.879 123.197 493.6 124.297 493.043 125.25C492.5 126.189 491.759 126.915 490.821 127.428C489.882 127.941 488.841 128.198 487.697 128.198ZM487.697 126.438C488.415 126.438 489.09 126.269 489.721 125.932C490.351 125.595 490.857 125.089 491.239 124.414C491.635 123.739 491.833 122.918 491.833 121.95C491.833 120.982 491.642 120.161 491.261 119.486C490.879 118.811 490.381 118.313 489.765 117.99C489.149 117.653 488.481 117.484 487.763 117.484C487.029 117.484 486.355 117.653 485.739 117.99C485.137 118.313 484.653 118.811 484.287 119.486C483.92 120.161 483.737 120.982 483.737 121.95C483.737 122.933 483.913 123.761 484.265 124.436C484.631 125.111 485.115 125.617 485.717 125.954C486.318 126.277 486.978 126.438 487.697 126.438ZM500.999 126.152L504.739 115.944H506.873L502.143 128H499.811L495.081 115.944H497.237L500.999 126.152ZM508.095 121.928C508.095 120.696 508.344 119.618 508.843 118.694C509.342 117.755 510.024 117.029 510.889 116.516C511.769 116.003 512.744 115.746 513.815 115.746C514.871 115.746 515.788 115.973 516.565 116.428C517.342 116.883 517.922 117.455 518.303 118.144V115.944H520.327V128H518.303V125.756C517.907 126.46 517.313 127.047 516.521 127.516C515.744 127.971 514.834 128.198 513.793 128.198C512.722 128.198 511.754 127.934 510.889 127.406C510.024 126.878 509.342 126.137 508.843 125.184C508.344 124.231 508.095 123.145 508.095 121.928ZM518.303 121.95C518.303 121.041 518.12 120.249 517.753 119.574C517.386 118.899 516.888 118.386 516.257 118.034C515.641 117.667 514.959 117.484 514.211 117.484C513.463 117.484 512.781 117.66 512.165 118.012C511.549 118.364 511.058 118.877 510.691 119.552C510.324 120.227 510.141 121.019 510.141 121.928C510.141 122.852 510.324 123.659 510.691 124.348C511.058 125.023 511.549 125.543 512.165 125.91C512.781 126.262 513.463 126.438 514.211 126.438C514.959 126.438 515.641 126.262 516.257 125.91C516.888 125.543 517.386 125.023 517.753 124.348C518.12 123.659 518.303 122.859 518.303 121.95ZM526.152 117.594V124.7C526.152 125.287 526.277 125.705 526.526 125.954C526.776 126.189 527.208 126.306 527.824 126.306H529.298V128H527.494C526.38 128 525.544 127.743 524.986 127.23C524.429 126.717 524.15 125.873 524.15 124.7V117.594H522.588V115.944H524.15V112.908H526.152V115.944H529.298V117.594H526.152ZM532.758 113.986C532.377 113.986 532.054 113.854 531.79 113.59C531.526 113.326 531.394 113.003 531.394 112.622C531.394 112.241 531.526 111.918 531.79 111.654C532.054 111.39 532.377 111.258 532.758 111.258C533.125 111.258 533.433 111.39 533.682 111.654C533.946 111.918 534.078 112.241 534.078 112.622C534.078 113.003 533.946 113.326 533.682 113.59C533.433 113.854 533.125 113.986 532.758 113.986ZM533.726 115.944V128H531.724V115.944H533.726ZM542.396 128.198C541.267 128.198 540.24 127.941 539.316 127.428C538.407 126.915 537.688 126.189 537.16 125.25C536.647 124.297 536.39 123.197 536.39 121.95C536.39 120.718 536.654 119.633 537.182 118.694C537.725 117.741 538.458 117.015 539.382 116.516C540.306 116.003 541.34 115.746 542.484 115.746C543.628 115.746 544.662 116.003 545.586 116.516C546.51 117.015 547.236 117.733 547.764 118.672C548.307 119.611 548.578 120.703 548.578 121.95C548.578 123.197 548.299 124.297 547.742 125.25C547.199 126.189 546.459 126.915 545.52 127.428C544.581 127.941 543.54 128.198 542.396 128.198ZM542.396 126.438C543.115 126.438 543.789 126.269 544.42 125.932C545.051 125.595 545.557 125.089 545.938 124.414C546.334 123.739 546.532 122.918 546.532 121.95C546.532 120.982 546.341 120.161 545.96 119.486C545.579 118.811 545.08 118.313 544.464 117.99C543.848 117.653 543.181 117.484 542.462 117.484C541.729 117.484 541.054 117.653 540.438 117.99C539.837 118.313 539.353 118.811 538.986 119.486C538.619 120.161 538.436 120.982 538.436 121.95C538.436 122.933 538.612 123.761 538.964 124.436C539.331 125.111 539.815 125.617 540.416 125.954C541.017 126.277 541.677 126.438 542.396 126.438ZM557.084 115.724C558.551 115.724 559.739 116.171 560.648 117.066C561.558 117.946 562.012 119.222 562.012 120.894V128H560.032V121.18C560.032 119.977 559.732 119.061 559.13 118.43C558.529 117.785 557.708 117.462 556.666 117.462C555.61 117.462 554.767 117.792 554.136 118.452C553.52 119.112 553.212 120.073 553.212 121.334V128H551.21V115.944H553.212V117.66C553.608 117.044 554.144 116.567 554.818 116.23C555.508 115.893 556.263 115.724 557.084 115.724ZM463.3 153.322C463.3 151.826 463.637 150.484 464.312 149.296C464.987 148.093 465.903 147.155 467.062 146.48C468.235 145.805 469.533 145.468 470.956 145.468C472.628 145.468 474.087 145.871 475.334 146.678C476.581 147.485 477.49 148.629 478.062 150.11H475.664C475.239 149.186 474.623 148.475 473.816 147.976C473.024 147.477 472.071 147.228 470.956 147.228C469.885 147.228 468.925 147.477 468.074 147.976C467.223 148.475 466.556 149.186 466.072 150.11C465.588 151.019 465.346 152.09 465.346 153.322C465.346 154.539 465.588 155.61 466.072 156.534C466.556 157.443 467.223 158.147 468.074 158.646C468.925 159.145 469.885 159.394 470.956 159.394C472.071 159.394 473.024 159.152 473.816 158.668C474.623 158.169 475.239 157.458 475.664 156.534H478.062C477.49 158.001 476.581 159.137 475.334 159.944C474.087 160.736 472.628 161.132 470.956 161.132C469.533 161.132 468.235 160.802 467.062 160.142C465.903 159.467 464.987 158.536 464.312 157.348C463.637 156.16 463.3 154.818 463.3 153.322ZM492.042 154.51C492.042 154.891 492.02 155.295 491.976 155.72H482.34C482.414 156.908 482.817 157.839 483.55 158.514C484.298 159.174 485.2 159.504 486.256 159.504C487.122 159.504 487.84 159.306 488.412 158.91C488.999 158.499 489.41 157.957 489.644 157.282H491.8C491.478 158.441 490.832 159.387 489.864 160.12C488.896 160.839 487.694 161.198 486.256 161.198C485.112 161.198 484.086 160.941 483.176 160.428C482.282 159.915 481.578 159.189 481.064 158.25C480.551 157.297 480.294 156.197 480.294 154.95C480.294 153.703 480.544 152.611 481.042 151.672C481.541 150.733 482.238 150.015 483.132 149.516C484.042 149.003 485.083 148.746 486.256 148.746C487.4 148.746 488.412 148.995 489.292 149.494C490.172 149.993 490.847 150.682 491.316 151.562C491.8 152.427 492.042 153.41 492.042 154.51ZM489.974 154.092C489.974 153.329 489.806 152.677 489.468 152.134C489.131 151.577 488.669 151.159 488.082 150.88C487.51 150.587 486.872 150.44 486.168 150.44C485.156 150.44 484.291 150.763 483.572 151.408C482.868 152.053 482.465 152.948 482.362 154.092H489.974ZM500.559 148.724C502.026 148.724 503.214 149.171 504.123 150.066C505.032 150.946 505.487 152.222 505.487 153.894V161H503.507V154.18C503.507 152.977 503.206 152.061 502.605 151.43C502.004 150.785 501.182 150.462 500.141 150.462C499.085 150.462 498.242 150.792 497.611 151.452C496.995 152.112 496.687 153.073 496.687 154.334V161H494.685V148.944H496.687V150.66C497.083 150.044 497.618 149.567 498.293 149.23C498.982 148.893 499.738 148.724 500.559 148.724ZM511.199 150.594V157.7C511.199 158.287 511.324 158.705 511.573 158.954C511.822 159.189 512.255 159.306 512.871 159.306H514.345V161H512.541C511.426 161 510.59 160.743 510.033 160.23C509.476 159.717 509.197 158.873 509.197 157.7V150.594H507.635V148.944H509.197V145.908H511.199V148.944H514.345V150.594H511.199ZM518.773 150.902C519.125 150.213 519.623 149.677 520.269 149.296C520.929 148.915 521.728 148.724 522.667 148.724V150.792H522.139C519.895 150.792 518.773 152.009 518.773 154.444V161H516.771V148.944H518.773V150.902ZM535.978 154.51C535.978 154.891 535.956 155.295 535.912 155.72H526.276C526.349 156.908 526.752 157.839 527.486 158.514C528.234 159.174 529.136 159.504 530.192 159.504C531.057 159.504 531.776 159.306 532.348 158.91C532.934 158.499 533.345 157.957 533.58 157.282H535.736C535.413 158.441 534.768 159.387 533.8 160.12C532.832 160.839 531.629 161.198 530.192 161.198C529.048 161.198 528.021 160.941 527.112 160.428C526.217 159.915 525.513 159.189 525 158.25C524.486 157.297 524.23 156.197 524.23 154.95C524.23 153.703 524.479 152.611 524.978 151.672C525.476 150.733 526.173 150.015 527.068 149.516C527.977 149.003 529.018 148.746 530.192 148.746C531.336 148.746 532.348 148.995 533.228 149.494C534.108 149.993 534.782 150.682 535.252 151.562C535.736 152.427 535.978 153.41 535.978 154.51ZM533.91 154.092C533.91 153.329 533.741 152.677 533.404 152.134C533.066 151.577 532.604 151.159 532.018 150.88C531.446 150.587 530.808 150.44 530.104 150.44C529.092 150.44 528.226 150.763 527.508 151.408C526.804 152.053 526.4 152.948 526.298 154.092H533.91ZM542.888 161.198C541.964 161.198 541.136 161.044 540.402 160.736C539.669 160.413 539.09 159.973 538.664 159.416C538.239 158.844 538.004 158.191 537.96 157.458H540.028C540.087 158.059 540.366 158.551 540.864 158.932C541.378 159.313 542.045 159.504 542.866 159.504C543.629 159.504 544.23 159.335 544.67 158.998C545.11 158.661 545.33 158.235 545.33 157.722C545.33 157.194 545.096 156.805 544.626 156.556C544.157 156.292 543.431 156.035 542.448 155.786C541.554 155.551 540.82 155.317 540.248 155.082C539.691 154.833 539.207 154.473 538.796 154.004C538.4 153.52 538.202 152.889 538.202 152.112C538.202 151.496 538.386 150.931 538.752 150.418C539.119 149.905 539.64 149.501 540.314 149.208C540.989 148.9 541.759 148.746 542.624 148.746C543.959 148.746 545.037 149.083 545.858 149.758C546.68 150.433 547.12 151.357 547.178 152.53H545.176C545.132 151.899 544.876 151.393 544.406 151.012C543.952 150.631 543.336 150.44 542.558 150.44C541.84 150.44 541.268 150.594 540.842 150.902C540.417 151.21 540.204 151.613 540.204 152.112C540.204 152.508 540.329 152.838 540.578 153.102C540.842 153.351 541.165 153.557 541.546 153.718C541.942 153.865 542.485 154.033 543.174 154.224C544.04 154.459 544.744 154.693 545.286 154.928C545.829 155.148 546.291 155.485 546.672 155.94C547.068 156.395 547.274 156.989 547.288 157.722C547.288 158.382 547.105 158.976 546.738 159.504C546.372 160.032 545.851 160.45 545.176 160.758C544.516 161.051 543.754 161.198 542.888 161.198Z" fill="#625F68"/>
<rect x="202.121" y="0.370864" width="201.008" height="201.008" stroke="#A4B4B9" stroke-width="0.741728"/>
<path d="M244.376 115.475V130.809H242.374V115.475H244.376ZM253.662 118.533C255.129 118.533 256.317 118.98 257.226 119.875C258.136 120.755 258.59 122.031 258.59 123.703V130.809H256.61V123.989C256.61 122.786 256.31 121.869 255.708 121.239C255.107 120.593 254.286 120.271 253.244 120.271C252.188 120.271 251.345 120.601 250.714 121.261C250.098 121.921 249.79 122.881 249.79 124.143V130.809H247.788V118.753H249.79V120.469C250.186 119.853 250.722 119.376 251.396 119.039C252.086 118.701 252.841 118.533 253.662 118.533ZM261.113 124.759C261.113 123.512 261.362 122.427 261.861 121.503C262.359 120.564 263.049 119.838 263.929 119.325C264.823 118.811 265.843 118.555 266.987 118.555C268.468 118.555 269.685 118.914 270.639 119.633C271.607 120.351 272.245 121.349 272.553 122.625H270.397C270.191 121.891 269.788 121.312 269.187 120.887C268.6 120.461 267.867 120.249 266.987 120.249C265.843 120.249 264.919 120.645 264.215 121.437C263.511 122.214 263.159 123.321 263.159 124.759C263.159 126.211 263.511 127.333 264.215 128.125C264.919 128.917 265.843 129.313 266.987 129.313C267.867 129.313 268.6 129.107 269.187 128.697C269.773 128.286 270.177 127.699 270.397 126.937H272.553C272.23 128.169 271.585 129.159 270.617 129.907C269.649 130.64 268.439 131.007 266.987 131.007C265.843 131.007 264.823 130.75 263.929 130.237C263.049 129.723 262.359 128.997 261.861 128.059C261.362 127.12 261.113 126.02 261.113 124.759ZM285.916 118.753V130.809H283.914V129.027C283.532 129.643 282.997 130.127 282.308 130.479C281.633 130.816 280.885 130.985 280.064 130.985C279.125 130.985 278.282 130.794 277.534 130.413C276.786 130.017 276.192 129.43 275.752 128.653C275.326 127.875 275.114 126.929 275.114 125.815V118.753H277.094V125.551C277.094 126.739 277.394 127.655 277.996 128.301C278.597 128.931 279.418 129.247 280.46 129.247C281.53 129.247 282.374 128.917 282.99 128.257C283.606 127.597 283.914 126.636 283.914 125.375V118.753H285.916ZM291.298 120.997C291.709 120.278 292.31 119.691 293.102 119.237C293.894 118.782 294.796 118.555 295.808 118.555C296.893 118.555 297.869 118.811 298.734 119.325C299.599 119.838 300.281 120.564 300.78 121.503C301.279 122.427 301.528 123.505 301.528 124.737C301.528 125.954 301.279 127.039 300.78 127.993C300.281 128.946 299.592 129.687 298.712 130.215C297.847 130.743 296.879 131.007 295.808 131.007C294.767 131.007 293.85 130.779 293.058 130.325C292.281 129.87 291.694 129.291 291.298 128.587V130.809H289.296V114.529H291.298V120.997ZM299.482 124.737C299.482 123.827 299.299 123.035 298.932 122.361C298.565 121.686 298.067 121.173 297.436 120.821C296.82 120.469 296.138 120.293 295.39 120.293C294.657 120.293 293.975 120.476 293.344 120.843C292.728 121.195 292.229 121.715 291.848 122.405C291.481 123.079 291.298 123.864 291.298 124.759C291.298 125.668 291.481 126.467 291.848 127.157C292.229 127.831 292.728 128.352 293.344 128.719C293.975 129.071 294.657 129.247 295.39 129.247C296.138 129.247 296.82 129.071 297.436 128.719C298.067 128.352 298.565 127.831 298.932 127.157C299.299 126.467 299.482 125.661 299.482 124.737ZM303.415 124.737C303.415 123.505 303.665 122.427 304.163 121.503C304.662 120.564 305.344 119.838 306.209 119.325C307.089 118.811 308.065 118.555 309.135 118.555C310.191 118.555 311.108 118.782 311.885 119.237C312.663 119.691 313.242 120.263 313.623 120.953V118.753H315.647V130.809H313.623V128.565C313.227 129.269 312.633 129.855 311.841 130.325C311.064 130.779 310.155 131.007 309.113 131.007C308.043 131.007 307.075 130.743 306.209 130.215C305.344 129.687 304.662 128.946 304.163 127.993C303.665 127.039 303.415 125.954 303.415 124.737ZM313.623 124.759C313.623 123.849 313.44 123.057 313.073 122.383C312.707 121.708 312.208 121.195 311.577 120.843C310.961 120.476 310.279 120.293 309.531 120.293C308.783 120.293 308.101 120.469 307.485 120.821C306.869 121.173 306.378 121.686 306.011 122.361C305.645 123.035 305.461 123.827 305.461 124.737C305.461 125.661 305.645 126.467 306.011 127.157C306.378 127.831 306.869 128.352 307.485 128.719C308.101 129.071 308.783 129.247 309.531 129.247C310.279 129.247 310.961 129.071 311.577 128.719C312.208 128.352 312.707 127.831 313.073 127.157C313.44 126.467 313.623 125.668 313.623 124.759ZM321.472 120.403V127.509C321.472 128.095 321.597 128.513 321.846 128.763C322.096 128.997 322.528 129.115 323.144 129.115H324.618V130.809H322.814C321.7 130.809 320.864 130.552 320.306 130.039C319.749 129.525 319.47 128.682 319.47 127.509V120.403H317.908V118.753H319.47V115.717H321.472V118.753H324.618V120.403H321.472ZM328.078 116.795C327.697 116.795 327.374 116.663 327.11 116.399C326.846 116.135 326.714 115.812 326.714 115.431C326.714 115.049 326.846 114.727 327.11 114.463C327.374 114.199 327.697 114.067 328.078 114.067C328.445 114.067 328.753 114.199 329.002 114.463C329.266 114.727 329.398 115.049 329.398 115.431C329.398 115.812 329.266 116.135 329.002 116.399C328.753 116.663 328.445 116.795 328.078 116.795ZM329.046 118.753V130.809H327.044V118.753H329.046ZM337.716 131.007C336.587 131.007 335.56 130.75 334.636 130.237C333.727 129.723 333.008 128.997 332.48 128.059C331.967 127.105 331.71 126.005 331.71 124.759C331.71 123.527 331.974 122.441 332.502 121.503C333.045 120.549 333.778 119.823 334.702 119.325C335.626 118.811 336.66 118.555 337.804 118.555C338.948 118.555 339.982 118.811 340.906 119.325C341.83 119.823 342.556 120.542 343.084 121.481C343.627 122.419 343.898 123.512 343.898 124.759C343.898 126.005 343.619 127.105 343.062 128.059C342.519 128.997 341.779 129.723 340.84 130.237C339.901 130.75 338.86 131.007 337.716 131.007ZM337.716 129.247C338.435 129.247 339.109 129.078 339.74 128.741C340.371 128.403 340.877 127.897 341.258 127.223C341.654 126.548 341.852 125.727 341.852 124.759C341.852 123.791 341.661 122.969 341.28 122.295C340.899 121.62 340.4 121.121 339.784 120.799C339.168 120.461 338.501 120.293 337.782 120.293C337.049 120.293 336.374 120.461 335.758 120.799C335.157 121.121 334.673 121.62 334.306 122.295C333.939 122.969 333.756 123.791 333.756 124.759C333.756 125.741 333.932 126.57 334.284 127.245C334.651 127.919 335.135 128.425 335.736 128.763C336.337 129.085 336.997 129.247 337.716 129.247ZM352.404 118.533C353.871 118.533 355.059 118.98 355.968 119.875C356.878 120.755 357.332 122.031 357.332 123.703V130.809H355.352V123.989C355.352 122.786 355.052 121.869 354.45 121.239C353.849 120.593 353.028 120.271 351.986 120.271C350.93 120.271 350.087 120.601 349.456 121.261C348.84 121.921 348.532 122.881 348.532 124.143V130.809H346.53V118.753H348.532V120.469C348.928 119.853 349.464 119.376 350.138 119.039C350.828 118.701 351.583 118.533 352.404 118.533ZM274.457 163.963C273.445 163.963 272.536 163.787 271.729 163.435C270.937 163.068 270.314 162.569 269.859 161.939C269.404 161.293 269.17 160.553 269.155 159.717H271.289C271.362 160.435 271.656 161.044 272.169 161.543C272.697 162.027 273.46 162.269 274.457 162.269C275.41 162.269 276.158 162.034 276.701 161.565C277.258 161.081 277.537 160.465 277.537 159.717C277.537 159.13 277.376 158.653 277.053 158.287C276.73 157.92 276.327 157.641 275.843 157.451C275.359 157.26 274.706 157.055 273.885 156.835C272.873 156.571 272.059 156.307 271.443 156.043C270.842 155.779 270.321 155.368 269.881 154.811C269.456 154.239 269.243 153.476 269.243 152.523C269.243 151.687 269.456 150.946 269.881 150.301C270.306 149.655 270.9 149.157 271.663 148.805C272.44 148.453 273.328 148.277 274.325 148.277C275.762 148.277 276.936 148.636 277.845 149.355C278.769 150.073 279.29 151.027 279.407 152.215H277.207C277.134 151.628 276.826 151.115 276.283 150.675C275.74 150.22 275.022 149.993 274.127 149.993C273.291 149.993 272.609 150.213 272.081 150.653C271.553 151.078 271.289 151.679 271.289 152.457C271.289 153.014 271.443 153.469 271.751 153.821C272.074 154.173 272.462 154.444 272.917 154.635C273.386 154.811 274.039 155.016 274.875 155.251C275.887 155.529 276.701 155.808 277.317 156.087C277.933 156.351 278.461 156.769 278.901 157.341C279.341 157.898 279.561 158.661 279.561 159.629C279.561 160.377 279.363 161.081 278.967 161.741C278.571 162.401 277.984 162.936 277.207 163.347C276.43 163.757 275.513 163.963 274.457 163.963ZM284.509 153.975C284.905 153.285 285.492 152.713 286.269 152.259C287.061 151.789 287.978 151.555 289.019 151.555C290.09 151.555 291.058 151.811 291.923 152.325C292.803 152.838 293.492 153.564 293.991 154.503C294.49 155.427 294.739 156.505 294.739 157.737C294.739 158.954 294.49 160.039 293.991 160.993C293.492 161.946 292.803 162.687 291.923 163.215C291.058 163.743 290.09 164.007 289.019 164.007C287.992 164.007 287.083 163.779 286.291 163.325C285.514 162.855 284.92 162.276 284.509 161.587V169.529H282.507V151.753H284.509V153.975ZM292.693 157.737C292.693 156.827 292.51 156.035 292.143 155.361C291.776 154.686 291.278 154.173 290.647 153.821C290.031 153.469 289.349 153.293 288.601 153.293C287.868 153.293 287.186 153.476 286.555 153.843C285.939 154.195 285.44 154.715 285.059 155.405C284.692 156.079 284.509 156.864 284.509 157.759C284.509 158.668 284.692 159.467 285.059 160.157C285.44 160.831 285.939 161.352 286.555 161.719C287.186 162.071 287.868 162.247 288.601 162.247C289.349 162.247 290.031 162.071 290.647 161.719C291.278 161.352 291.776 160.831 292.143 160.157C292.51 159.467 292.693 158.661 292.693 157.737ZM296.626 157.737C296.626 156.505 296.876 155.427 297.374 154.503C297.873 153.564 298.555 152.838 299.42 152.325C300.3 151.811 301.276 151.555 302.346 151.555C303.402 151.555 304.319 151.782 305.096 152.237C305.874 152.691 306.453 153.263 306.834 153.953V151.753H308.858V163.809H306.834V161.565C306.438 162.269 305.844 162.855 305.052 163.325C304.275 163.779 303.366 164.007 302.324 164.007C301.254 164.007 300.286 163.743 299.42 163.215C298.555 162.687 297.873 161.946 297.374 160.993C296.876 160.039 296.626 158.954 296.626 157.737ZM306.834 157.759C306.834 156.849 306.651 156.057 306.284 155.383C305.918 154.708 305.419 154.195 304.788 153.843C304.172 153.476 303.49 153.293 302.742 153.293C301.994 153.293 301.312 153.469 300.696 153.821C300.08 154.173 299.589 154.686 299.222 155.361C298.856 156.035 298.672 156.827 298.672 157.737C298.672 158.661 298.856 159.467 299.222 160.157C299.589 160.831 300.08 161.352 300.696 161.719C301.312 162.071 301.994 162.247 302.742 162.247C303.49 162.247 304.172 162.071 304.788 161.719C305.419 161.352 305.918 160.831 306.284 160.157C306.651 159.467 306.834 158.668 306.834 157.759ZM311.493 157.759C311.493 156.512 311.743 155.427 312.241 154.503C312.74 153.564 313.429 152.838 314.309 152.325C315.204 151.811 316.223 151.555 317.367 151.555C318.849 151.555 320.066 151.914 321.019 152.633C321.987 153.351 322.625 154.349 322.933 155.625H320.777C320.572 154.891 320.169 154.312 319.567 153.887C318.981 153.461 318.247 153.249 317.367 153.249C316.223 153.249 315.299 153.645 314.595 154.437C313.891 155.214 313.539 156.321 313.539 157.759C313.539 159.211 313.891 160.333 314.595 161.125C315.299 161.917 316.223 162.313 317.367 162.313C318.247 162.313 318.981 162.107 319.567 161.697C320.154 161.286 320.557 160.699 320.777 159.937H322.933C322.611 161.169 321.965 162.159 320.997 162.907C320.029 163.64 318.819 164.007 317.367 164.007C316.223 164.007 315.204 163.75 314.309 163.237C313.429 162.723 312.74 161.997 312.241 161.059C311.743 160.12 311.493 159.02 311.493 157.759ZM336.605 157.319C336.605 157.7 336.583 158.103 336.539 158.529H326.903C326.976 159.717 327.379 160.648 328.113 161.323C328.861 161.983 329.763 162.313 330.819 162.313C331.684 162.313 332.403 162.115 332.975 161.719C333.561 161.308 333.972 160.765 334.207 160.091H336.363C336.04 161.249 335.395 162.195 334.427 162.929C333.459 163.647 332.256 164.007 330.819 164.007C329.675 164.007 328.648 163.75 327.739 163.237C326.844 162.723 326.14 161.997 325.627 161.059C325.113 160.105 324.857 159.005 324.857 157.759C324.857 156.512 325.106 155.419 325.605 154.481C326.103 153.542 326.8 152.823 327.695 152.325C328.604 151.811 329.645 151.555 330.819 151.555C331.963 151.555 332.975 151.804 333.855 152.303C334.735 152.801 335.409 153.491 335.879 154.371C336.363 155.236 336.605 156.219 336.605 157.319ZM334.537 156.901C334.537 156.138 334.368 155.485 334.031 154.943C333.693 154.385 333.231 153.967 332.645 153.689C332.073 153.395 331.435 153.249 330.731 153.249C329.719 153.249 328.853 153.571 328.135 154.217C327.431 154.862 327.027 155.757 326.925 156.901H334.537Z" fill="#625F68"/>
<path d="M254.793 53.3636V81H249.787V58.2351H249.625L243.161 62.3643V57.7763L250.03 53.3636H254.793ZM272.026 81.5263C269.804 81.5263 267.896 80.964 266.304 79.8395C264.721 78.706 263.502 77.0732 262.647 74.9411C261.801 72.8 261.379 70.2225 261.379 67.2088C261.388 64.1951 261.815 61.6312 262.661 59.517C263.515 57.3939 264.734 55.7746 266.318 54.6591C267.91 53.5436 269.813 52.9858 272.026 52.9858C274.239 52.9858 276.141 53.5436 277.734 54.6591C279.326 55.7746 280.545 57.3939 281.391 59.517C282.245 61.6402 282.673 64.2041 282.673 67.2088C282.673 70.2315 282.245 72.8134 281.391 74.9545C280.545 77.0866 279.326 78.715 277.734 79.8395C276.15 80.964 274.248 81.5263 272.026 81.5263ZM272.026 77.3026C273.753 77.3026 275.116 76.4524 276.114 74.7521C277.122 73.0428 277.626 70.5284 277.626 67.2088C277.626 65.0137 277.396 63.1695 276.938 61.6761C276.479 60.1828 275.831 59.0582 274.994 58.3026C274.158 57.5379 273.168 57.1555 272.026 57.1555C270.307 57.1555 268.949 58.0102 267.95 59.7195C266.952 61.4197 266.448 63.9162 266.439 67.2088C266.43 69.4129 266.65 71.2661 267.1 72.7685C267.559 74.2708 268.207 75.4044 269.043 76.169C269.88 76.9247 270.874 77.3026 272.026 77.3026ZM296.852 81V53.3636H301.858V76.8033H314.03V81H296.852ZM338.084 60.2727V64.0511H325.831V60.2727H338.084ZM328.894 81V58.316C328.894 56.9216 329.182 55.7611 329.758 54.8345C330.342 53.9079 331.125 53.2152 332.106 52.7564C333.086 52.2976 334.175 52.0682 335.371 52.0682C336.217 52.0682 336.968 52.1357 337.625 52.2706C338.282 52.4055 338.767 52.527 339.082 52.6349L338.111 56.4134C337.904 56.3504 337.643 56.2874 337.328 56.2244C337.013 56.1525 336.662 56.1165 336.275 56.1165C335.367 56.1165 334.724 56.3369 334.346 56.7777C333.977 57.2095 333.793 57.8303 333.793 58.6399V81H328.894ZM352.259 60.2727V64.0511H340.344V60.2727H352.259ZM343.286 55.3068H348.171V74.7656C348.171 75.4223 348.27 75.9261 348.468 76.277C348.675 76.6188 348.944 76.8527 349.277 76.9787C349.61 77.1046 349.979 77.1676 350.384 77.1676C350.69 77.1676 350.969 77.1451 351.22 77.1001C351.481 77.0552 351.679 77.0147 351.814 76.9787L352.637 80.7976C352.376 80.8875 352.003 80.9865 351.517 81.0945C351.041 81.2024 350.456 81.2654 349.763 81.2834C348.54 81.3194 347.438 81.1349 346.457 80.7301C345.476 80.3163 344.698 79.6776 344.122 78.8139C343.556 77.9503 343.277 76.8707 343.286 75.5753V55.3068ZM355.576 67.1818V64.4964L362.066 59.1122C362.606 58.6624 363.07 58.2531 363.456 57.8842C363.843 57.5064 364.14 57.1375 364.347 56.7777C364.554 56.4089 364.657 56.0085 364.657 55.5767C364.657 54.875 364.379 54.3262 363.821 53.9304C363.263 53.5346 362.579 53.3366 361.77 53.3366C360.906 53.3366 360.209 53.5571 359.678 53.9979C359.156 54.4297 358.895 55.0324 358.895 55.8061H355.319C355.319 54.1328 355.927 52.8149 357.141 51.8523C358.365 50.8807 359.925 50.3949 361.824 50.3949C363.11 50.3949 364.23 50.6243 365.184 51.0831C366.146 51.5329 366.893 52.1446 367.424 52.9183C367.955 53.692 368.22 54.5601 368.22 55.5227C368.22 56.2964 368.062 57.0161 367.748 57.6818C367.433 58.3385 366.942 58.9998 366.277 59.6655C365.611 60.3222 364.761 61.0329 363.726 61.7976L360.946 64.0107V64.1321H368.517V67.1818H355.576Z" fill="#29272E"/>
<rect x="0.370864" y="0.370864" width="201.008" height="201.008" stroke="#A4B4B9" stroke-width="0.741728"/>
<path d="M40.6406 80V76.3835L50.2351 66.978C51.1527 66.0514 51.9173 65.2282 52.5291 64.5085C53.1408 63.7888 53.5996 63.0916 53.9055 62.4169C54.2114 61.7422 54.3643 61.0225 54.3643 60.2578C54.3643 59.3852 54.1664 58.6385 53.7706 58.0178C53.3747 57.388 52.8305 56.9022 52.1378 56.5604C51.445 56.2185 50.6579 56.0476 49.7763 56.0476C48.8676 56.0476 48.0715 56.2365 47.3878 56.6143C46.704 56.9832 46.1733 57.5095 45.7954 58.1932C45.4266 58.8769 45.2422 59.6911 45.2422 60.6357H40.4787C40.4787 58.8814 40.879 57.3565 41.6797 56.0611C42.4803 54.7656 43.5824 53.7625 44.9858 53.0518C46.3982 52.3411 48.0175 51.9858 49.8437 51.9858C51.6969 51.9858 53.3253 52.3321 54.7287 53.0249C56.1321 53.7176 57.2206 54.6667 57.9943 55.8722C58.777 57.0777 59.1683 58.4541 59.1683 60.0014C59.1683 61.036 58.9704 62.0526 58.5745 63.0511C58.1787 64.0497 57.4815 65.1562 56.4829 66.3707C55.4933 67.5852 54.1034 69.0561 52.3132 70.7834L47.5497 75.6278V75.8168H59.5866V80H40.6406ZM73.8366 51.9858C75.1591 51.9948 76.4455 52.2287 77.696 52.6875C78.9555 53.1373 80.089 53.875 81.0966 54.9006C82.1041 55.9171 82.9048 57.2801 83.4986 58.9893C84.0923 60.6986 84.3892 62.8127 84.3892 65.3317C84.3982 67.7067 84.1463 69.8298 83.6335 71.701C83.1297 73.5632 82.4055 75.1375 81.4609 76.424C80.5163 77.7105 79.3783 78.6911 78.0468 79.3658C76.7154 80.0405 75.2175 80.3778 73.5532 80.3778C71.808 80.3778 70.2606 80.036 68.9112 79.3523C67.5708 78.6686 66.4867 77.733 65.6591 76.5455C64.8314 75.358 64.3231 73.9995 64.1342 72.4702H69.0596C69.3115 73.5677 69.8243 74.4403 70.598 75.0881C71.3807 75.7268 72.3657 76.0462 73.5532 76.0462C75.4694 76.0462 76.9448 75.214 77.9794 73.5497C79.0139 71.8854 79.5312 69.5734 79.5312 66.6136H79.3423C78.9015 67.4053 78.3302 68.089 77.6285 68.6648C76.9268 69.2315 76.1307 69.6678 75.24 69.9737C74.3584 70.2796 73.4228 70.4325 72.4332 70.4325C70.8139 70.4325 69.3565 70.0457 68.0611 69.272C66.7746 68.4983 65.7535 67.4368 64.9978 66.0874C64.2512 64.7379 63.8733 63.1951 63.8643 61.4588C63.8643 59.6596 64.2781 58.0447 65.1058 56.6143C65.9424 55.175 67.1075 54.0414 68.6008 53.2138C70.0942 52.3771 71.8395 51.9678 73.8366 51.9858ZM73.8501 56.0341C72.8785 56.0341 72.0014 56.2725 71.2187 56.7493C70.445 57.2171 69.8333 57.8558 69.3835 58.6655C68.9427 59.4661 68.7223 60.3613 68.7223 61.3509C68.7313 62.3314 68.9517 63.2221 69.3835 64.0227C69.8243 64.8234 70.4226 65.4576 71.1782 65.9254C71.9429 66.3932 72.8156 66.6271 73.7961 66.6271C74.5248 66.6271 75.204 66.4877 75.8338 66.2088C76.4635 65.9299 77.0123 65.5431 77.4801 65.0483C77.9569 64.5445 78.3257 63.9732 78.5866 63.3345C78.8565 62.6958 78.987 62.0211 78.978 61.3104C78.978 60.3658 78.7531 59.4931 78.3032 58.6925C77.8624 57.8918 77.2552 57.2486 76.4815 56.7628C75.7168 56.277 74.8397 56.0341 73.8501 56.0341ZM99.098 80.5263C96.8759 80.5263 94.9687 79.964 93.3764 78.8395C91.7931 77.706 90.5741 76.0732 89.7194 73.9411C88.8738 71.8 88.451 69.2225 88.451 66.2088C88.46 63.1951 88.8873 60.6312 89.7329 58.517C90.5876 56.3939 91.8066 54.7746 93.3899 53.6591C94.9822 52.5436 96.8849 51.9858 99.098 51.9858C101.311 51.9858 103.214 52.5436 104.806 53.6591C106.398 54.7746 107.617 56.3939 108.463 58.517C109.318 60.6402 109.745 63.2041 109.745 66.2088C109.745 69.2315 109.318 71.8134 108.463 73.9545C107.617 76.0866 106.398 77.715 104.806 78.8395C103.223 79.964 101.32 80.5263 99.098 80.5263ZM99.098 76.3026C100.825 76.3026 102.188 75.4524 103.187 73.7521C104.194 72.0428 104.698 69.5284 104.698 66.2088C104.698 64.0137 104.469 62.1695 104.01 60.6761C103.551 59.1828 102.903 58.0582 102.067 57.3026C101.23 56.5379 100.241 56.1555 99.098 56.1555C97.3797 56.1555 96.0213 57.0102 95.0227 58.7195C94.0241 60.4197 93.5203 62.9162 93.5113 66.2088C93.5023 68.4129 93.7227 70.2661 94.1726 71.7685C94.6314 73.2708 95.2791 74.4044 96.1157 75.169C96.9524 75.9247 97.9465 76.3026 99.098 76.3026ZM124.444 80.5263C122.222 80.5263 120.314 79.964 118.722 78.8395C117.139 77.706 115.92 76.0732 115.065 73.9411C114.219 71.8 113.797 69.2225 113.797 66.2088C113.806 63.1951 114.233 60.6312 115.079 58.517C115.933 56.3939 117.152 54.7746 118.736 53.6591C120.328 52.5436 122.231 51.9858 124.444 51.9858C126.657 51.9858 128.559 52.5436 130.152 53.6591C131.744 54.7746 132.963 56.3939 133.809 58.517C134.663 60.6402 135.091 63.2041 135.091 66.2088C135.091 69.2315 134.663 71.8134 133.809 73.9545C132.963 76.0866 131.744 77.715 130.152 78.8395C128.568 79.964 126.666 80.5263 124.444 80.5263ZM124.444 76.3026C126.171 76.3026 127.534 75.4524 128.532 73.7521C129.54 72.0428 130.044 69.5284 130.044 66.2088C130.044 64.0137 129.814 62.1695 129.356 60.6761C128.897 59.1828 128.249 58.0582 127.412 57.3026C126.576 56.5379 125.586 56.1555 124.444 56.1555C122.725 56.1555 121.367 57.0102 120.368 58.7195C119.37 60.4197 118.866 62.9162 118.857 66.2088C118.848 68.4129 119.068 70.2661 119.518 71.7685C119.977 73.2708 120.625 74.4044 121.461 75.169C122.298 75.9247 123.292 76.3026 124.444 76.3026Z" fill="#28262D"/>
<path d="M148.709 78.0114V59.2614H151.891V78.0114H148.709ZM140.925 70.2273V67.0455H159.675V70.2273H140.925Z" fill="#252329"/>
<path d="M51.9487 132.325L48.2967 126.055H45.8767V132.325H43.8747V116.991H48.8247C49.9833 116.991 50.9587 117.189 51.7507 117.585C52.5573 117.981 53.1587 118.517 53.5547 119.191C53.9507 119.866 54.1487 120.636 54.1487 121.501C54.1487 122.557 53.8407 123.489 53.2247 124.295C52.6233 125.102 51.714 125.637 50.4967 125.901L54.3467 132.325H51.9487ZM45.8767 124.449H48.8247C49.91 124.449 50.724 124.185 51.2667 123.657C51.8093 123.115 52.0807 122.396 52.0807 121.501C52.0807 120.592 51.8093 119.888 51.2667 119.389C50.7387 118.891 49.9247 118.641 48.8247 118.641H45.8767V124.449ZM68.2594 125.835C68.2594 126.217 68.2374 126.62 68.1934 127.045H58.5574C58.6308 128.233 59.0341 129.165 59.7674 129.839C60.5154 130.499 61.4174 130.829 62.4734 130.829C63.3388 130.829 64.0574 130.631 64.6294 130.235C65.2161 129.825 65.6268 129.282 65.8614 128.607H68.0174C67.6948 129.766 67.0494 130.712 66.0814 131.445C65.1134 132.164 63.9108 132.523 62.4734 132.523C61.3294 132.523 60.3028 132.267 59.3934 131.753C58.4988 131.24 57.7948 130.514 57.2814 129.575C56.7681 128.622 56.5114 127.522 56.5114 126.275C56.5114 125.029 56.7608 123.936 57.2594 122.997C57.7581 122.059 58.4548 121.34 59.3494 120.841C60.2588 120.328 61.3001 120.071 62.4734 120.071C63.6174 120.071 64.6294 120.321 65.5094 120.819C66.3894 121.318 67.0641 122.007 67.5334 122.887C68.0174 123.753 68.2594 124.735 68.2594 125.835ZM66.1914 125.417C66.1914 124.655 66.0228 124.002 65.6854 123.459C65.3481 122.902 64.8861 122.484 64.2994 122.205C63.7274 121.912 63.0894 121.765 62.3854 121.765C61.3734 121.765 60.5081 122.088 59.7894 122.733C59.0854 123.379 58.6821 124.273 58.5794 125.417H66.1914ZM75.874 120.071C76.9153 120.071 77.8247 120.299 78.602 120.753C79.394 121.208 79.9807 121.78 80.362 122.469V120.269H82.386V132.589C82.386 133.689 82.1513 134.665 81.682 135.515C81.2127 136.381 80.538 137.055 79.658 137.539C78.7927 138.023 77.7807 138.265 76.622 138.265C75.038 138.265 73.718 137.891 72.662 137.143C71.606 136.395 70.9827 135.376 70.792 134.085H72.772C72.992 134.819 73.4467 135.405 74.136 135.845C74.8253 136.3 75.654 136.527 76.622 136.527C77.722 136.527 78.6167 136.183 79.306 135.493C80.01 134.804 80.362 133.836 80.362 132.589V130.059C79.966 130.763 79.3793 131.35 78.602 131.819C77.8247 132.289 76.9153 132.523 75.874 132.523C74.8033 132.523 73.828 132.259 72.948 131.731C72.0827 131.203 71.4007 130.463 70.902 129.509C70.4033 128.556 70.154 127.471 70.154 126.253C70.154 125.021 70.4033 123.943 70.902 123.019C71.4007 122.081 72.0827 121.355 72.948 120.841C73.828 120.328 74.8033 120.071 75.874 120.071ZM80.362 126.275C80.362 125.366 80.1787 124.574 79.812 123.899C79.4453 123.225 78.9467 122.711 78.316 122.359C77.7 121.993 77.018 121.809 76.27 121.809C75.522 121.809 74.84 121.985 74.224 122.337C73.608 122.689 73.1167 123.203 72.75 123.877C72.3833 124.552 72.2 125.344 72.2 126.253C72.2 127.177 72.3833 127.984 72.75 128.673C73.1167 129.348 73.608 129.869 74.224 130.235C74.84 130.587 75.522 130.763 76.27 130.763C77.018 130.763 77.7 130.587 78.316 130.235C78.9467 129.869 79.4453 129.348 79.812 128.673C80.1787 127.984 80.362 127.185 80.362 126.275ZM86.8032 118.311C86.4219 118.311 86.0992 118.179 85.8352 117.915C85.5712 117.651 85.4392 117.329 85.4392 116.947C85.4392 116.566 85.5712 116.243 85.8352 115.979C86.0992 115.715 86.4219 115.583 86.8032 115.583C87.1699 115.583 87.4779 115.715 87.7272 115.979C87.9912 116.243 88.1232 116.566 88.1232 116.947C88.1232 117.329 87.9912 117.651 87.7272 117.915C87.4779 118.179 87.1699 118.311 86.8032 118.311ZM87.7712 120.269V132.325H85.7692V120.269H87.7712ZM95.4513 132.523C94.5273 132.523 93.6986 132.369 92.9653 132.061C92.2319 131.739 91.6526 131.299 91.2273 130.741C90.8019 130.169 90.5673 129.517 90.5233 128.783H92.5913C92.6499 129.385 92.9286 129.876 93.4273 130.257C93.9406 130.639 94.6079 130.829 95.4293 130.829C96.1919 130.829 96.7933 130.661 97.2333 130.323C97.6733 129.986 97.8933 129.561 97.8933 129.047C97.8933 128.519 97.6586 128.131 97.1893 127.881C96.7199 127.617 95.9939 127.361 95.0113 127.111C94.1166 126.877 93.3833 126.642 92.8113 126.407C92.2539 126.158 91.7699 125.799 91.3593 125.329C90.9633 124.845 90.7653 124.215 90.7653 123.437C90.7653 122.821 90.9486 122.257 91.3153 121.743C91.6819 121.23 92.2026 120.827 92.8773 120.533C93.5519 120.225 94.3219 120.071 95.1873 120.071C96.5219 120.071 97.5999 120.409 98.4213 121.083C99.2426 121.758 99.6826 122.682 99.7413 123.855H97.7393C97.6953 123.225 97.4386 122.719 96.9693 122.337C96.5146 121.956 95.8986 121.765 95.1213 121.765C94.4026 121.765 93.8306 121.919 93.4053 122.227C92.9799 122.535 92.7673 122.939 92.7673 123.437C92.7673 123.833 92.8919 124.163 93.1413 124.427C93.4053 124.677 93.7279 124.882 94.1093 125.043C94.5053 125.19 95.0479 125.359 95.7373 125.549C96.6026 125.784 97.3066 126.019 97.8493 126.253C98.3919 126.473 98.8539 126.811 99.2353 127.265C99.6313 127.72 99.8366 128.314 99.8513 129.047C99.8513 129.707 99.6679 130.301 99.3013 130.829C98.9346 131.357 98.4139 131.775 97.7393 132.083C97.0793 132.377 96.3166 132.523 95.4513 132.523ZM105.119 121.919V129.025C105.119 129.612 105.244 130.03 105.493 130.279C105.743 130.514 106.175 130.631 106.791 130.631H108.265V132.325H106.461C105.347 132.325 104.511 132.069 103.953 131.555C103.396 131.042 103.117 130.199 103.117 129.025V121.919H101.555V120.269H103.117V117.233H105.119V120.269H108.265V121.919H105.119ZM121.691 125.835C121.691 126.217 121.669 126.62 121.625 127.045H111.989C112.062 128.233 112.466 129.165 113.199 129.839C113.947 130.499 114.849 130.829 115.905 130.829C116.77 130.829 117.489 130.631 118.061 130.235C118.648 129.825 119.058 129.282 119.293 128.607H121.449C121.126 129.766 120.481 130.712 119.513 131.445C118.545 132.164 117.342 132.523 115.905 132.523C114.761 132.523 113.734 132.267 112.825 131.753C111.93 131.24 111.226 130.514 110.713 129.575C110.2 128.622 109.943 127.522 109.943 126.275C109.943 125.029 110.192 123.936 110.691 122.997C111.19 122.059 111.886 121.34 112.781 120.841C113.69 120.328 114.732 120.071 115.905 120.071C117.049 120.071 118.061 120.321 118.941 120.819C119.821 121.318 120.496 122.007 120.965 122.887C121.449 123.753 121.691 124.735 121.691 125.835ZM119.623 125.417C119.623 124.655 119.454 124.002 119.117 123.459C118.78 122.902 118.318 122.484 117.731 122.205C117.159 121.912 116.521 121.765 115.817 121.765C114.805 121.765 113.94 122.088 113.221 122.733C112.517 123.379 112.114 124.273 112.011 125.417H119.623ZM126.336 122.227C126.688 121.538 127.186 121.003 127.832 120.621C128.492 120.24 129.291 120.049 130.23 120.049V122.117H129.702C127.458 122.117 126.336 123.335 126.336 125.769V132.325H124.334V120.269H126.336V122.227ZM143.541 125.835C143.541 126.217 143.519 126.62 143.475 127.045H133.839C133.912 128.233 134.315 129.165 135.049 129.839C135.797 130.499 136.699 130.829 137.755 130.829C138.62 130.829 139.339 130.631 139.911 130.235C140.497 129.825 140.908 129.282 141.143 128.607H143.299C142.976 129.766 142.331 130.712 141.363 131.445C140.395 132.164 139.192 132.523 137.755 132.523C136.611 132.523 135.584 132.267 134.675 131.753C133.78 131.24 133.076 130.514 132.563 129.575C132.049 128.622 131.793 127.522 131.793 126.275C131.793 125.029 132.042 123.936 132.541 122.997C133.039 122.059 133.736 121.34 134.631 120.841C135.54 120.328 136.581 120.071 137.755 120.071C138.899 120.071 139.911 120.321 140.791 120.819C141.671 121.318 142.345 122.007 142.815 122.887C143.299 123.753 143.541 124.735 143.541 125.835ZM141.473 125.417C141.473 124.655 141.304 124.002 140.967 123.459C140.629 122.902 140.167 122.484 139.581 122.205C139.009 121.912 138.371 121.765 137.667 121.765C136.655 121.765 135.789 122.088 135.071 122.733C134.367 123.379 133.963 124.273 133.861 125.417H141.473ZM145.435 126.253C145.435 125.021 145.685 123.943 146.183 123.019C146.682 122.081 147.364 121.355 148.229 120.841C149.109 120.328 150.092 120.071 151.177 120.071C152.116 120.071 152.989 120.291 153.795 120.731C154.602 121.157 155.218 121.721 155.643 122.425V116.045H157.667V132.325H155.643V130.059C155.247 130.778 154.661 131.372 153.883 131.841C153.106 132.296 152.197 132.523 151.155 132.523C150.085 132.523 149.109 132.259 148.229 131.731C147.364 131.203 146.682 130.463 146.183 129.509C145.685 128.556 145.435 127.471 145.435 126.253ZM155.643 126.275C155.643 125.366 155.46 124.574 155.093 123.899C154.727 123.225 154.228 122.711 153.597 122.359C152.981 121.993 152.299 121.809 151.551 121.809C150.803 121.809 150.121 121.985 149.505 122.337C148.889 122.689 148.398 123.203 148.031 123.877C147.665 124.552 147.481 125.344 147.481 126.253C147.481 127.177 147.665 127.984 148.031 128.673C148.398 129.348 148.889 129.869 149.505 130.235C150.121 130.587 150.803 130.763 151.551 130.763C152.299 130.763 152.981 130.587 153.597 130.235C154.228 129.869 154.727 129.348 155.093 128.673C155.46 127.984 155.643 127.185 155.643 126.275ZM61.1009 165.479C60.0889 165.479 59.1796 165.303 58.3729 164.951C57.5809 164.585 56.9576 164.086 56.5029 163.455C56.0483 162.81 55.8136 162.069 55.7989 161.233H57.9329C58.0063 161.952 58.2996 162.561 58.8129 163.059C59.3409 163.543 60.1036 163.785 61.1009 163.785C62.0543 163.785 62.8023 163.551 63.3449 163.081C63.9023 162.597 64.1809 161.981 64.1809 161.233C64.1809 160.647 64.0196 160.17 63.6969 159.803C63.3743 159.437 62.9709 159.158 62.4869 158.967C62.0029 158.777 61.3503 158.571 60.5289 158.351C59.5169 158.087 58.7029 157.823 58.0869 157.559C57.4856 157.295 56.9649 156.885 56.5249 156.327C56.0996 155.755 55.8869 154.993 55.8869 154.039C55.8869 153.203 56.0996 152.463 56.5249 151.817C56.9503 151.172 57.5443 150.673 58.3069 150.321C59.0843 149.969 59.9716 149.793 60.9689 149.793C62.4063 149.793 63.5796 150.153 64.4889 150.871C65.4129 151.59 65.9336 152.543 66.0509 153.731H63.8509C63.7776 153.145 63.4696 152.631 62.9269 152.191C62.3843 151.737 61.6656 151.509 60.7709 151.509C59.9349 151.509 59.2529 151.729 58.7249 152.169C58.1969 152.595 57.9329 153.196 57.9329 153.973C57.9329 154.531 58.0869 154.985 58.3949 155.337C58.7176 155.689 59.1063 155.961 59.5609 156.151C60.0303 156.327 60.6829 156.533 61.5189 156.767C62.5309 157.046 63.3449 157.325 63.9609 157.603C64.5769 157.867 65.1049 158.285 65.5449 158.857C65.9849 159.415 66.2049 160.177 66.2049 161.145C66.2049 161.893 66.0069 162.597 65.6109 163.257C65.2149 163.917 64.6283 164.453 63.8509 164.863C63.0736 165.274 62.1569 165.479 61.1009 165.479ZM71.593 154.919V162.025C71.593 162.612 71.7177 163.03 71.967 163.279C72.2164 163.514 72.649 163.631 73.265 163.631H74.739V165.325H72.935C71.8204 165.325 70.9844 165.069 70.427 164.555C69.8697 164.042 69.591 163.199 69.591 162.025V154.919H68.029V153.269H69.591V150.233H71.593V153.269H74.739V154.919H71.593ZM76.4167 159.253C76.4167 158.021 76.666 156.943 77.1647 156.019C77.6634 155.081 78.3454 154.355 79.2107 153.841C80.0907 153.328 81.066 153.071 82.1367 153.071C83.1927 153.071 84.1094 153.299 84.8867 153.753C85.664 154.208 86.2434 154.78 86.6247 155.469V153.269H88.6487V165.325H86.6247V163.081C86.2287 163.785 85.6347 164.372 84.8427 164.841C84.0654 165.296 83.156 165.523 82.1147 165.523C81.044 165.523 80.076 165.259 79.2107 164.731C78.3454 164.203 77.6634 163.463 77.1647 162.509C76.666 161.556 76.4167 160.471 76.4167 159.253ZM86.6247 159.275C86.6247 158.366 86.4414 157.574 86.0747 156.899C85.708 156.225 85.2094 155.711 84.5787 155.359C83.9627 154.993 83.2807 154.809 82.5327 154.809C81.7847 154.809 81.1027 154.985 80.4867 155.337C79.8707 155.689 79.3794 156.203 79.0127 156.877C78.646 157.552 78.4627 158.344 78.4627 159.253C78.4627 160.177 78.646 160.984 79.0127 161.673C79.3794 162.348 79.8707 162.869 80.4867 163.235C81.1027 163.587 81.7847 163.763 82.5327 163.763C83.2807 163.763 83.9627 163.587 84.5787 163.235C85.2094 162.869 85.708 162.348 86.0747 161.673C86.4414 160.984 86.6247 160.185 86.6247 159.275ZM94.0339 155.227C94.3859 154.538 94.8846 154.003 95.5299 153.621C96.1899 153.24 96.9892 153.049 97.9279 153.049V155.117H97.3999C95.1559 155.117 94.0339 156.335 94.0339 158.769V165.325H92.0319V153.269H94.0339V155.227ZM102.681 154.919V162.025C102.681 162.612 102.806 163.03 103.055 163.279C103.304 163.514 103.737 163.631 104.353 163.631H105.827V165.325H104.023C102.908 165.325 102.072 165.069 101.515 164.555C100.958 164.042 100.679 163.199 100.679 162.025V154.919H99.1169V153.269H100.679V150.233H102.681V153.269H105.827V154.919H102.681ZM118.945 153.269V165.325H116.943V163.543C116.561 164.159 116.026 164.643 115.337 164.995C114.662 165.333 113.914 165.501 113.093 165.501C112.154 165.501 111.311 165.311 110.563 164.929C109.815 164.533 109.221 163.947 108.781 163.169C108.355 162.392 108.143 161.446 108.143 160.331V153.269H110.123V160.067C110.123 161.255 110.423 162.172 111.025 162.817C111.626 163.448 112.447 163.763 113.489 163.763C114.559 163.763 115.403 163.433 116.019 162.773C116.635 162.113 116.943 161.153 116.943 159.891V153.269H118.945ZM124.327 155.491C124.723 154.802 125.31 154.23 126.087 153.775C126.879 153.306 127.796 153.071 128.837 153.071C129.908 153.071 130.876 153.328 131.741 153.841C132.621 154.355 133.31 155.081 133.809 156.019C134.308 156.943 134.557 158.021 134.557 159.253C134.557 160.471 134.308 161.556 133.809 162.509C133.31 163.463 132.621 164.203 131.741 164.731C130.876 165.259 129.908 165.523 128.837 165.523C127.81 165.523 126.901 165.296 126.109 164.841C125.332 164.372 124.738 163.793 124.327 163.103V171.045H122.325V153.269H124.327V155.491ZM132.511 159.253C132.511 158.344 132.328 157.552 131.961 156.877C131.594 156.203 131.096 155.689 130.465 155.337C129.849 154.985 129.167 154.809 128.419 154.809C127.686 154.809 127.004 154.993 126.373 155.359C125.757 155.711 125.258 156.232 124.877 156.921C124.51 157.596 124.327 158.381 124.327 159.275C124.327 160.185 124.51 160.984 124.877 161.673C125.258 162.348 125.757 162.869 126.373 163.235C127.004 163.587 127.686 163.763 128.419 163.763C129.167 163.763 129.849 163.587 130.465 163.235C131.096 162.869 131.594 162.348 131.961 161.673C132.328 160.984 132.511 160.177 132.511 159.253ZM141.46 165.523C140.536 165.523 139.707 165.369 138.974 165.061C138.241 164.739 137.661 164.299 137.236 163.741C136.811 163.169 136.576 162.517 136.532 161.783H138.6C138.659 162.385 138.937 162.876 139.436 163.257C139.949 163.639 140.617 163.829 141.438 163.829C142.201 163.829 142.802 163.661 143.242 163.323C143.682 162.986 143.902 162.561 143.902 162.047C143.902 161.519 143.667 161.131 143.198 160.881C142.729 160.617 142.003 160.361 141.02 160.111C140.125 159.877 139.392 159.642 138.82 159.407C138.263 159.158 137.779 158.799 137.368 158.329C136.972 157.845 136.774 157.215 136.774 156.437C136.774 155.821 136.957 155.257 137.324 154.743C137.691 154.23 138.211 153.827 138.886 153.533C139.561 153.225 140.331 153.071 141.196 153.071C142.531 153.071 143.609 153.409 144.43 154.083C145.251 154.758 145.691 155.682 145.75 156.855H143.748C143.704 156.225 143.447 155.719 142.978 155.337C142.523 154.956 141.907 154.765 141.13 154.765C140.411 154.765 139.839 154.919 139.414 155.227C138.989 155.535 138.776 155.939 138.776 156.437C138.776 156.833 138.901 157.163 139.15 157.427C139.414 157.677 139.737 157.882 140.118 158.043C140.514 158.19 141.057 158.359 141.746 158.549C142.611 158.784 143.315 159.019 143.858 159.253C144.401 159.473 144.863 159.811 145.244 160.265C145.64 160.72 145.845 161.314 145.86 162.047C145.86 162.707 145.677 163.301 145.31 163.829C144.943 164.357 144.423 164.775 143.748 165.083C143.088 165.377 142.325 165.523 141.46 165.523Z" fill="#625F68"/>
<rect x="605.371" y="0.370864" width="201.008" height="201.008" stroke="#A4B4B9" stroke-width="0.741728"/>
<path d="M648.474 112.666V128H646.472V112.666H648.474ZM657.76 115.724C659.227 115.724 660.415 116.171 661.324 117.066C662.234 117.946 662.688 119.222 662.688 120.894V128H660.708V121.18C660.708 119.977 660.408 119.061 659.806 118.43C659.205 117.785 658.384 117.462 657.342 117.462C656.286 117.462 655.443 117.792 654.812 118.452C654.196 119.112 653.888 120.073 653.888 121.334V128H651.886V115.944H653.888V117.66C654.284 117.044 654.82 116.567 655.494 116.23C656.184 115.893 656.939 115.724 657.76 115.724ZM665.211 121.95C665.211 120.703 665.46 119.618 665.959 118.694C666.457 117.755 667.147 117.029 668.027 116.516C668.921 116.003 669.941 115.746 671.085 115.746C672.566 115.746 673.783 116.105 674.737 116.824C675.705 117.543 676.343 118.54 676.651 119.816H674.495C674.289 119.083 673.886 118.503 673.285 118.078C672.698 117.653 671.965 117.44 671.085 117.44C669.941 117.44 669.017 117.836 668.313 118.628C667.609 119.405 667.257 120.513 667.257 121.95C667.257 123.402 667.609 124.524 668.313 125.316C669.017 126.108 669.941 126.504 671.085 126.504C671.965 126.504 672.698 126.299 673.285 125.888C673.871 125.477 674.275 124.891 674.495 124.128H676.651C676.328 125.36 675.683 126.35 674.715 127.098C673.747 127.831 672.537 128.198 671.085 128.198C669.941 128.198 668.921 127.941 668.027 127.428C667.147 126.915 666.457 126.189 665.959 125.25C665.46 124.311 665.211 123.211 665.211 121.95ZM690.014 115.944V128H688.012V126.218C687.631 126.834 687.095 127.318 686.406 127.67C685.731 128.007 684.983 128.176 684.162 128.176C683.223 128.176 682.38 127.985 681.632 127.604C680.884 127.208 680.29 126.621 679.85 125.844C679.425 125.067 679.212 124.121 679.212 123.006V115.944H681.192V122.742C681.192 123.93 681.493 124.847 682.094 125.492C682.695 126.123 683.517 126.438 684.558 126.438C685.629 126.438 686.472 126.108 687.088 125.448C687.704 124.788 688.012 123.827 688.012 122.566V115.944H690.014ZM695.396 118.188C695.807 117.469 696.408 116.883 697.2 116.428C697.992 115.973 698.894 115.746 699.906 115.746C700.992 115.746 701.967 116.003 702.832 116.516C703.698 117.029 704.38 117.755 704.878 118.694C705.377 119.618 705.626 120.696 705.626 121.928C705.626 123.145 705.377 124.231 704.878 125.184C704.38 126.137 703.69 126.878 702.81 127.406C701.945 127.934 700.977 128.198 699.906 128.198C698.865 128.198 697.948 127.971 697.156 127.516C696.379 127.061 695.792 126.482 695.396 125.778V128H693.394V111.72H695.396V118.188ZM703.58 121.928C703.58 121.019 703.397 120.227 703.03 119.552C702.664 118.877 702.165 118.364 701.534 118.012C700.918 117.66 700.236 117.484 699.488 117.484C698.755 117.484 698.073 117.667 697.442 118.034C696.826 118.386 696.328 118.907 695.946 119.596C695.58 120.271 695.396 121.055 695.396 121.95C695.396 122.859 695.58 123.659 695.946 124.348C696.328 125.023 696.826 125.543 697.442 125.91C698.073 126.262 698.755 126.438 699.488 126.438C700.236 126.438 700.918 126.262 701.534 125.91C702.165 125.543 702.664 125.023 703.03 124.348C703.397 123.659 703.58 122.852 703.58 121.928ZM707.513 121.928C707.513 120.696 707.763 119.618 708.261 118.694C708.76 117.755 709.442 117.029 710.307 116.516C711.187 116.003 712.163 115.746 713.233 115.746C714.289 115.746 715.206 115.973 715.983 116.428C716.761 116.883 717.34 117.455 717.721 118.144V115.944H719.745V128H717.721V125.756C717.325 126.46 716.731 127.047 715.939 127.516C715.162 127.971 714.253 128.198 713.211 128.198C712.141 128.198 711.173 127.934 710.307 127.406C709.442 126.878 708.76 126.137 708.261 125.184C707.763 124.231 707.513 123.145 707.513 121.928ZM717.721 121.95C717.721 121.041 717.538 120.249 717.171 119.574C716.805 118.899 716.306 118.386 715.675 118.034C715.059 117.667 714.377 117.484 713.629 117.484C712.881 117.484 712.199 117.66 711.583 118.012C710.967 118.364 710.476 118.877 710.109 119.552C709.743 120.227 709.559 121.019 709.559 121.928C709.559 122.852 709.743 123.659 710.109 124.348C710.476 125.023 710.967 125.543 711.583 125.91C712.199 126.262 712.881 126.438 713.629 126.438C714.377 126.438 715.059 126.262 715.675 125.91C716.306 125.543 716.805 125.023 717.171 124.348C717.538 123.659 717.721 122.859 717.721 121.95ZM725.571 117.594V124.7C725.571 125.287 725.695 125.705 725.945 125.954C726.194 126.189 726.627 126.306 727.243 126.306H728.717V128H726.913C725.798 128 724.962 127.743 724.405 127.23C723.847 126.717 723.569 125.873 723.569 124.7V117.594H722.007V115.944H723.569V112.908H725.571V115.944H728.717V117.594H725.571ZM736.4 128.198C735.271 128.198 734.244 127.941 733.32 127.428C732.411 126.915 731.692 126.189 731.164 125.25C730.651 124.297 730.394 123.197 730.394 121.95C730.394 120.718 730.658 119.633 731.186 118.694C731.729 117.741 732.462 117.015 733.386 116.516C734.31 116.003 735.344 115.746 736.488 115.746C737.632 115.746 738.666 116.003 739.59 116.516C740.514 117.015 741.24 117.733 741.768 118.672C742.311 119.611 742.582 120.703 742.582 121.95C742.582 123.197 742.304 124.297 741.746 125.25C741.204 126.189 740.463 126.915 739.524 127.428C738.586 127.941 737.544 128.198 736.4 128.198ZM736.4 126.438C737.119 126.438 737.794 126.269 738.424 125.932C739.055 125.595 739.561 125.089 739.942 124.414C740.338 123.739 740.536 122.918 740.536 121.95C740.536 120.982 740.346 120.161 739.964 119.486C739.583 118.811 739.084 118.313 738.468 117.99C737.852 117.653 737.185 117.484 736.466 117.484C735.733 117.484 735.058 117.653 734.442 117.99C733.841 118.313 733.357 118.811 732.99 119.486C732.624 120.161 732.44 120.982 732.44 121.95C732.44 122.933 732.616 123.761 732.968 124.436C733.335 125.111 733.819 125.617 734.42 125.954C735.022 126.277 735.682 126.438 736.4 126.438ZM747.217 117.902C747.569 117.213 748.067 116.677 748.713 116.296C749.373 115.915 750.172 115.724 751.111 115.724V117.792H750.583C748.339 117.792 747.217 119.009 747.217 121.444V128H745.215V115.944H747.217V117.902ZM757.69 128.198C756.766 128.198 755.937 128.044 755.204 127.736C754.47 127.413 753.891 126.973 753.466 126.416C753.04 125.844 752.806 125.191 752.762 124.458H754.83C754.888 125.059 755.167 125.551 755.666 125.932C756.179 126.313 756.846 126.504 757.668 126.504C758.43 126.504 759.032 126.335 759.472 125.998C759.912 125.661 760.132 125.235 760.132 124.722C760.132 124.194 759.897 123.805 759.428 123.556C758.958 123.292 758.232 123.035 757.25 122.786C756.355 122.551 755.622 122.317 755.05 122.082C754.492 121.833 754.008 121.473 753.598 121.004C753.202 120.52 753.004 119.889 753.004 119.112C753.004 118.496 753.187 117.931 753.554 117.418C753.92 116.905 754.441 116.501 755.116 116.208C755.79 115.9 756.56 115.746 757.426 115.746C758.76 115.746 759.838 116.083 760.66 116.758C761.481 117.433 761.921 118.357 761.98 119.53H759.978C759.934 118.899 759.677 118.393 759.208 118.012C758.753 117.631 758.137 117.44 757.36 117.44C756.641 117.44 756.069 117.594 755.644 117.902C755.218 118.21 755.006 118.613 755.006 119.112C755.006 119.508 755.13 119.838 755.38 120.102C755.644 120.351 755.966 120.557 756.348 120.718C756.744 120.865 757.286 121.033 757.976 121.224C758.841 121.459 759.545 121.693 760.088 121.928C760.63 122.148 761.092 122.485 761.474 122.94C761.87 123.395 762.075 123.989 762.09 124.722C762.09 125.382 761.906 125.976 761.54 126.504C761.173 127.032 760.652 127.45 759.978 127.758C759.318 128.051 758.555 128.198 757.69 128.198Z" fill="#625F68"/>
<path d="M677.103 75.8722V71.8913L688.83 53.3636H692.149V59.0312H690.125L682.231 71.5405V71.7564H698.6V75.8722H677.103ZM690.287 81V74.6577L690.341 72.8764V53.3636H695.064V81H690.287ZM711.606 81.5263C709.384 81.5263 707.477 80.964 705.885 79.8395C704.301 78.706 703.082 77.0732 702.228 74.9411C701.382 72.8 700.959 70.2225 700.959 67.2088C700.968 64.1951 701.396 61.6312 702.241 59.517C703.096 57.3939 704.315 55.7746 705.898 54.6591C707.491 53.5436 709.393 52.9858 711.606 52.9858C713.819 52.9858 715.722 53.5436 717.314 54.6591C718.907 55.7746 720.126 57.3939 720.971 59.517C721.826 61.6402 722.253 64.2041 722.253 67.2088C722.253 70.2315 721.826 72.8134 720.971 74.9545C720.126 77.0866 718.907 78.715 717.314 79.8395C715.731 80.964 713.828 81.5263 711.606 81.5263ZM711.606 77.3026C713.334 77.3026 714.697 76.4524 715.695 74.7521C716.703 73.0428 717.206 70.5284 717.206 67.2088C717.206 65.0137 716.977 63.1695 716.518 61.6761C716.059 60.1828 715.412 59.0582 714.575 58.3026C713.738 57.5379 712.749 57.1555 711.606 57.1555C709.888 57.1555 708.53 58.0102 707.531 59.7195C706.532 61.4197 706.029 63.9162 706.02 67.2088C706.011 69.4129 706.231 71.2661 706.681 72.7685C707.14 74.2708 707.787 75.4044 708.624 76.169C709.461 76.9247 710.455 77.3026 711.606 77.3026ZM734.352 79.0114V60.2614H737.534V79.0114H734.352ZM726.568 71.2273V68.0455H745.318V71.2273H726.568Z" fill="#2A282F"/>
</g>
<defs>
<filter id="filter0_i_325_364" x="0" y="0" width="807" height="204.717" filterUnits="userSpaceOnUse" color-interpolation-filters="sRGB">
<feFlood flood-opacity="0" result="BackgroundImageFix"/>
<feBlend mode="normal" in="SourceGraphic" in2="BackgroundImageFix" result="shape"/>
<feColorMatrix in="SourceAlpha" type="matrix" values="0 0 0 0 0 0 0 0 0 0 0 0 0 0 0 0 0 0 127 0" result="hardAlpha"/>
<feOffset dy="2.96691"/>
<feGaussianBlur stdDeviation="1.48346"/>
<feComposite in2="hardAlpha" operator="arithmetic" k2="-1" k3="1"/>
<feColorMatrix type="matrix" values="0 0 0 0 0 0 0 0 0 0 0 0 0 0 0 0 0 0 0.25 0"/>
<feBlend mode="normal" in2="shape" result="effect1_innerShadow_325_364"/>
</filter>
</defs>
</svg>
